<svg width="0" height="0" fill="none" style="visibility: hidden; position: absolute;" aria-hidden="true">
    <symbol id="axe-in-log" xmlns="http://www.w3.org/2000/svg" viewBox="0 0 512 512">
        <path fill="none" d="M0 0h512v512H0z"/>
        <path fill="currentColor" d="M89.17 24.96L67.55 55.98 327.8 237.4l21.7-31zM381.5 191.8l-47.9 68.7-1.2.9c-37.2 26.8-67.5 33.5-97.9 35 2.7 4.5 6.5 9.9 11.2 15.4 9.5 11.2 22.3 23.7 36.8 35.2 13.9 10.9 29.2 20.7 44.4 27.8l35.4-1.2c-3.1-23.5-4-50.7 18-82.3l47.2-67.6zm43.3 67.2l-21.6 30.9 22.6 15.8 21.6-31zM89.11 340.4c-4.37 0-8.16 1.3-10.4 2.9-2.24 1.6-2.72 2.9-2.72 3.9s.48 2.3 2.72 3.9 6.03 2.9 10.4 2.9 8.16-1.3 10.4-2.9c2.29-1.6 2.79-2.9 2.79-3.9s-.5-2.3-2.79-3.9c-2.24-1.6-6.03-2.9-10.4-2.9zm-14.22 28.9c-1.88 7-4.61 13.8-8.34 21.9-7.06-.2-14.12-.5-21.19-.8-14.17 9.2-22.04 22-25.2 35.4l38.05 8.1-39.69 7.1v1c.54 18.8 9.93 34.4 20.31 38.5 138.47 8.6 274.87 6.3 410.87 1.9-2.1-4.9-3.9-10.3-5.3-16.2l-50-8.3s32.7-5.5 47.4-8.1c-.3-4-.5-8.1-.5-12.4 0-17.3 3-32.9 8.5-45.1.7-1.7 1.5-3.3 2.4-4.8v-.6c-111.5 7.3-224 8.8-337.3 5.8-6-7.6-9.7-15.1-11.9-23.2-4.24 1.6-8.94 2.5-13.89 2.5-5.07 0-9.89-.9-14.22-2.7zm401.51 18.5c-.9 0-2 .3-3.9 2.2-2 1.8-4.3 5.1-6.3 9.6-4 9.1-6.9 22.7-6.9 37.8 0 2.2.1 4.4.2 6.5l20.9-18.7-17.1 41.8c.9 3 1.8 5.8 2.9 8.2 2 4.5 4.3 7.8 6.3 9.6 1.9 1.9 3 2.2 3.9 2.2.9 0 2-.3 3.9-2.2 2-1.8 4.3-5.1 6.3-9.6 4-9.1 6.9-22.7 6.9-37.8 0-15.1-2.9-28.7-6.9-37.8-2-4.5-4.3-7.8-6.3-9.6-1.9-1.9-3-2.2-3.9-2.2z"/>
    </symbol>
    <symbol id="barracks-tent" xmlns="http://www.w3.org/2000/svg" viewBox="0 0 512 512">
        <path fill="none" d="M0 0h512v512H0z"/>
        <path fill="currentColor" d="M247 28v80h18V28zm35 0v64l80-32zm-26 96c-48 48-144 112-192 128 0 64-16 208-32 240h160c16-16 64-144 64-192 0 48 48 176 64 192h160c-16-32-32-176-32-240-48-16-144-80-192-128zM112 300h80v80h-80z"/>
    </symbol>
    <symbol id="barracks" xmlns="http://www.w3.org/2000/svg" viewBox="0 0 512 512">
        <path fill="none" d="M0 0h512v512H0z"/>
        <path fill="currentColor" d="M127.596 26.436C111.219 26.126 90.368 38.184 78 32v64c16.008 8.004 48.437-15.563 64 0 16 16 40.004 7.996 48 0V32c-7.755 7.755-32 16-48 0-3.985-3.985-8.946-5.462-14.404-5.564zM39 32v254.373c5.412-12.05 11.43-23.452 18-34.172V32H39zm217 121C135.23 153 28.575 256.151 25.162 439H208V336c0-32 96-32 96 0v103h182.838C483.425 256.151 376.769 153 256 153zm0 26.938l36.025 18.011-8.05 16.102L256 200.063l-27.975 13.988-8.05-16.102L256 179.937zm0 38l36.025 18.011-8.05 16.102L256 238.063l-27.975 13.988-8.05-16.102L256 217.937zm0 38l36.025 18.011-8.05 16.102L256 276.063l-27.975 13.988-8.05-16.102L256 255.937zM80 336h96v48H80v-48zm256 0h96v48h-96v-48zm-80 39v18h32v-18h-32zM25 457v16h158v-16H25zm176 0v16h110v-16H201zm128 0v16h158v-16H329z"/>
    </symbol>
    <symbol id="black-bar" xmlns="http://www.w3.org/2000/svg" viewBox="0 0 512 512">
        <path fill="none" d="M0 0h512v512H0z"/>
        <path fill="currentColor" d="M341.28 22.813L254 123.843l-11.094 5.907-113.094-83.125L154.22 177.03l-47.907 25.564-89.72 24.22 36.938 19.624-30.968 82.625-2.843 7.687 7.218 3.844 79.406 42.25-19.47 44.844L144 402.906l32.22 17.156 4.405 2.344 4.375-2.344 47.844-25.468L287.75 497.97l37.78-139.876L467.94 384.75l-60.907-82.875 74.814-39.844 7.25-3.842-2.906-7.688-20.625-54.594 26.218-22.625-35.28-1.405-3.906-10.344-1.25-3.25-3.03-1.655-103.97-56.53-3.063-77.282zM321.595 109l107.97 58.688-237.47 125.718-108.625-57.5L321.593 109zm42.78 44.563l-171.718 90.062-41.562-22.188-25.313 13.407 66.876 35.656 197.28-103.906-25.56-13.03zm76.313 29.406l25.125 66.436L193.656 394.28l5.78-83.624 241.25-127.687zM71.813 250.874l109.032 57.75-6.188 89.438L42.97 327.938l28.843-77.063z"/>
    </symbol>
    <symbol id="camping-tent" xmlns="http://www.w3.org/2000/svg" viewBox="0 0 512 512">
        <path fill="none" d="M0 0h512v512H0z"/>
        <path fill="currentColor" d="M361.155 91.245l-18 .193.42 38.98c-45.773 13.285-108.533 19.738-166.474 23.573 35.097 96.284 99.357 173.77 157.845 257.13 20.718-19.655 51.11-31.983 83.46-36.01-20.8-18.109-36.634-27.966-58.833-70.438 31.27 37.085 52.579 48.467 77.623 62.006 3.263-13.094 8.938-24.638 18.721-32.674 8.667-7.12 20.026-10.654 33.53-10.344-46.874-59.763-101.67-117.054-127.83-189.435l-.462-42.98zM163.25 102.92l-17.998.244s.25 18.34.56 36.97c.156 9.316.325 18.703.489 25.929.06 2.636.117 4.58.174 6.542-34.378 83.733-69.154 160.993-123.92 233.442 33.635-1.387 66.326-1.203 98.552-.041 22.263-62.617 23.346-134.855 35.627-202.006 11.417 68.562 10.566 139.445 33.483 205.83 42.962 3.082 85.69 7.198 129.35 10.926-55.67-79.151-118.213-155.037-155.118-249.365-.05-1.782-.1-3.396-.152-5.737-.162-7.156-.333-16.523-.488-25.82-.31-18.594-.559-36.914-.559-36.914z"/>
    </symbol>
    <symbol id="cancel" xmlns="http://www.w3.org/2000/svg" viewBox="0 0 512 512">
        <path fill="none" d="M0 0h512v512H0z"/>
        <path fill="currentColor" d="M256 16C123.45 16 16 123.45 16 256s107.45 240 240 240 240-107.45 240-240S388.55 16 256 16zm0 60c99.41 0 180 80.59 180 180s-80.59 180-180 180S76 355.41 76 256 156.59 76 256 76zm-80.625 60c-.97-.005-2.006.112-3.063.313v-.032c-18.297 3.436-45.264 34.743-33.375 46.626l73.157 73.125-73.156 73.126c-14.63 14.625 29.275 58.534 43.906 43.906L256 299.906l73.156 73.156c14.63 14.628 58.537-29.28 43.906-43.906l-73.156-73.125 73.156-73.124c14.63-14.625-29.275-58.5-43.906-43.875L256 212.157l-73.156-73.125c-2.06-2.046-4.56-3.015-7.47-3.03z"/>
    </symbol>
    <symbol id="capitol" xmlns="http://www.w3.org/2000/svg" viewBox="0 0 512 512">
        <path fill="none" d="M0 0h512v512H0z"/>
        <path fill="currentColor" d="M255.594 19.406l-15.78 59.125c5.184-.58 10.44-.874 15.78-.874 5.338 0 10.595.293 15.78.875l-15.78-59.124zm0 76.97c-57.894 0-106.156 40.154-118.656 94.186H374.25c-12.5-54.032-60.762-94.187-118.656-94.187zM19.406 209.25v33.53h472.406v-33.53H19.406zM71.5 261.47v159.124h50.406V261.47H71.5zm105.97 0v159.124h50.405V261.47H177.47zm105.936 0v159.124h50.406V261.47h-50.406zm105.938 0v159.124h50.406V261.47h-50.406zm-161.78 177.655l-31.658 56.656h120.5l-32.062-56.655h-56.78zm-208.158.156v33.533h167.938l18.72-33.532H19.405zm286.531 0l18.97 33.533h166.906V439.28H305.938z"/>
    </symbol>
    <symbol id="cash" xmlns="http://www.w3.org/2000/svg" viewBox="0 0 512 512">
        <path fill="none" d="M0 0h512v512H0z"/>
        <path fill="currentColor" d="M210.6 44.39l-7-4.39c-13.7-8.4-30.8-13.28-45.5-8.7-15.8 4.92-28.4 17.09-35 35.37l-9.4-4.84c-16.2-8.34-24.68-8.47-31.71-5.31-5.61 2.51-11.46 8.55-18.09 17.37l82.4 63.71c12.9 4.2 31.8 4.1 50.7-.8 19-4.9 37.9-14.5 51.7-27.4l31.1-76.9c-27.4-21.65-52.4-9.11-69.2 11.89zm53.1 76.51c-17 17.2-42.3 28.8-62 34-6.9 1.8-13.8 3.1-20.5 3.8-3.7 6.1-6.8 12.3-9.2 18.5 4.8 24.4 13.8 44.4 27.3 60.8l-14.4 12c-8.3-10-15.7-20.8-21.3-32.8-.9 23.2 4.3 47.2 12.8 72.2l-17.7 6c-15.6-45.6-20.9-92.3 1-136.3-7.4-.6-14.4-2-20.9-4.3l-.3-.1c-4.3 4.1-8.4 8.4-12.3 12.9-31.57 36.6-48.96 85.3-39.86 123.2 4.87 20.3 13.6 39.5 26.16 55.9 18.4-.4 35.8 0 51.6 6 7.5-.8 15.2-1.3 23.2-1.3 28.5 0 54.3 5.3 73.8 14.5 7.6 3.6 14.5 7.9 20 12.8 0-5.3.8-11 2.4-15.2-8.9-8.4-14.5-18.6-14.5-30.2 0-16.1 10.7-29.4 26.2-39 0-4.6.9-9 2.5-13.2-10.1-8.7-16.6-19.5-16.6-32.1 0-7.9 2.6-15.1 7-21.6-4.4-6.4-7-13.6-7-21.5 0-3.9.6-7.5 1.7-11-9.7-8.6-15.8-19.2-15.8-31.4 0-12.1 6-22.6 15.6-31.1-5.9-4.6-12.2-8.5-18.9-11.5zm111.4 2.3c-26 0-49.5 5.5-65.6 13.6-16.2 8.1-23.8 18.1-23.8 26.7 0 8.7 7.6 18.7 23.8 26.8 16.1 8.1 39.6 13.6 65.6 13.6 11.3 0 22-1.1 31.9-2.9v-17c13.9-2.1 25.4-5.9 32.8-10.8v17.6c12.5-3.6 24.5-16.9 24.8-27.3 0-8.6-7.6-18.6-23.8-26.7-16.2-8.1-39.6-13.6-65.7-13.6zm96.5 67.7c-3.3 3.5-7.2 6.8-11.6 9.8l.2 29c12.6-7.5 18.5-16.2 18.5-23.8 0-4.8-2.3-10-7.1-15zm-171.8 15.4c.3 8.6 7.9 18.3 23.8 26.3 16.2 8.2 39.6 13.6 65.7 13.6 16.3 0 31.6-2.2 44.7-5.8l.7-27.2c-17.2 6-37.6 9.3-59.6 9.3-28.5 0-54.4-5.7-74-15.5-.5-.2-.9-.5-1.3-.7zm2 34.8c-1.4 2.7-2 5.4-2 7.9 0 8.7 7.6 18.7 23.8 26.8 16.2 8.1 39.6 13.5 65.7 13.5 13.2 0 25.7-1.3 37-3.8v-24c-11.6 2.2-24 3.3-37 3.3-28.6 0-54.5-5.6-74.1-15.5-4.9-2.4-9.4-5.2-13.4-8.2zm174.9 0c-6.1 4.3-11.4 7.5-17.6 10.2v22.3c13.3-7.7 19.6-16.7 19.6-24.6 0-2.5-.6-5.2-2-7.9zm7.5 36.8c-2 2-4.2 3.9-6.6 5.8v32.4c10.3-7 15.3-14.7 15.3-21.7 0-5.3-2.9-11-8.7-16.5zm-170.1 14c-.1.9-.2 1.7-.2 2.5 0 8.7 7.6 18.6 23.8 26.7 16.2 8.2 39.7 13.6 65.7 13.6 14.9 0 29.1-1.8 41.4-4.8V300c-16.3 5.2-35.2 8-55.5 8-28.6 0-54.5-5.7-74.1-15.5-.4-.2-.7-.4-1.1-.6zm-13.6 21.4c-8.7 6.5-12.8 13.6-12.8 20 0 8.7 7.6 18.6 23.8 26.8 16.2 8.1 39.6 13.5 65.7 13.5 9.5 0 18.7-.7 27.3-2v-18.2h-1.1c-28.6 0-54.5-5.7-74.1-15.6-12.5-6.2-22.9-14.5-28.8-24.5zM463 343.9c-7.9 2.8-16.5 5.1-25.7 6.6v12.1c1.9-.8 3.8-1.6 5.6-2.5 9.8-5 16.4-10.6 20.1-16.2zm9.2 18.2c-3.8 3.8-8.2 7.2-13.1 10.3V401c13.3-7.6 19.6-16.6 19.6-24.5 0-4.6-2.1-9.6-6.5-14.4zm-348.7 2.8c-10.2.1-21.2 1.4-32.6 4.1-22.81 5.3-42.42 15-55.22 25.7-12.8 10.6-17.8 21.4-16.3 29.1 1.5 7.7 9.4 14.8 24.8 18.9 15.35 4 36.82 4.2 59.62-1.1 9.2-2.2 17.8-5 25.7-8.3v-20.7c14.6-6.5 25.5-14.3 30.4-21.9v24.4c12.1-10.4 16.8-20.8 15.4-28.4-1.4-7.7-9.4-14.8-24.8-18.8-7.7-2-16.9-3.1-27-3zm64.6 5.2c2.7 3.9 4.6 8.3 5.6 13.2 1.1 6 .6 11.8-1.2 17.5 9.9 2.6 18.9 6.1 26.7 10.5 4.4 2.4 8.5 5.3 12.1 8.3 9-2.1 16.6-5.1 22-8.7v20.6c16.1-7.6 23.5-16.9 23.5-24.3 0-7.5-7.4-16.8-23.6-24.4-16.1-7.5-39.3-12.6-65.1-12.7zm111.8 5c-.1.4-.1.9-.1 1.4 0 8.7 7.6 18.6 23.8 26.8 16.2 8.1 39.6 13.5 65.7 13.5 13.2 0 25.7-1.4 37-3.8v-26.9c-14.8 4-31.5 6.2-49.1 6.2-28.6 0-54.5-5.7-74.1-15.5-1.1-.6-2.2-1.2-3.2-1.7zm2.8 37.3c-2 3.3-2.9 6.5-2.9 9.6 0 8.7 7.6 18.6 23.8 26.8 16.2 8.1 39.6 13.5 65.7 13.5 13.2 0 25.7-1.4 37-3.8v-26.4c-11.6 2.2-24 3.4-37 3.4-28.6 0-54.5-5.7-74.1-15.6-4.5-2.2-8.7-4.7-12.5-7.5zm173.1 0c-5.8 3.9-10.9 7-16.7 9.5v24.6c13.3-7.6 19.6-16.6 19.6-24.5 0-3.1-.9-6.3-2.9-9.6zm-292.6 5.4c-3.5 4.4-7.6 8.6-12.2 12.4-15.6 13.1-37.6 23.7-63 29.6-9.06 2.1-18.06 3.4-26.7 4.1 3.2 5.3 8.83 10.5 17.07 15.1 13.63 7.7 33.63 12.9 55.83 12.9 10.1 0 19.7-1.1 28.5-3v-20.8c13.8-2.1 25.4-5.9 32.8-10.8v18.4c10-7 14.8-14.9 14.8-22.4 0-8.7-6.5-18-20.2-25.7-7.4-4.1-16.6-7.5-26.9-9.8z"/>
    </symbol>
    <symbol id="cave-entrance" xmlns="http://www.w3.org/2000/svg" viewBox="0 0 512 512">
        <path fill="none" d="M0 0h512v512H0z"/>
        <path fill="currentColor" d="M346.951 24.582L299.193 72.34l-101.136-7.024-40.97 80.737 68.688 25.35 37.153-19.936 8.511 15.861-44.293 23.768-79.7-29.416-70.19 55.341 35.117 58.995-.375.2 13.014 21.585 29.134 2.361 55.06-35.123 9.679 15.176-60.16 38.377-44.364-3.596-18.23-30.234-56.8 30.586 33.712 61.804-33.713 40.735L18 444.177V494h170.62l-5.6-45.592a260.658 260.658 0 0 1-5.147-4.512c-4.186-3.761-5.89-5.444-8.027-7.484l-73.13 21.797-21.339-20.484 12.467-12.985 13.777 13.225 73.068-21.78 3.784 3.667s4.24 4.09 9.216 8.636l37.797-37.248 8.133 79.54 6.3-93.444 10.364 28.387 6.281-45.112 3.14-3.091-.29-.233 22.486-27.974.465-.907.188.096 11.453-14.248 14.03 11.277-9.122 11.348 67.803 34.715 27.008-9.489 22.478 17.71 22.924-12.036 8.367 15.938-33.262 17.46-23.875-18.81-24.964 8.772-9.584-4.907 39.04 87.842L383.923 494H494v-28.512L462.713 478.2l-6.776-16.678L494 446.06V211.176l-23.438-26.463-21.654-67.371-33.547 32.666-107.77-13.873-28.019-29.096 12.967-12.486 23.629 24.539 92.867 11.953 31.442-30.615-52.79-61.801zm27.53 177.74l34.177 41.428 28.863-6.56-4.136-13.59 17.22-5.243 9.77 32.098-58.543 13.307-31.377-38.033-33.086 19.853-9.262-15.436z"/>
    </symbol>
    <symbol id="chart" xmlns="http://www.w3.org/2000/svg" viewBox="0 0 512 512">
        <path fill="none" d="M0 0h512v512H0z"/>
        <path fill="currentColor" d="M23 23v466h466v-18H41v-82.184l85.854-57.234 70.023 70.022 65.133-260.536L387.28 203.7 455.07 95.73l19.317 11.858 6.102-71.1-60.644 37.616 19.884 12.207-59.01 93.99-130.732-65.366-62.865 251.462-57.98-57.978L41 367.184V23H23z"/>
    </symbol>
    <symbol id="chat-bubble" xmlns="http://www.w3.org/2000/svg" viewBox="0 0 512 512">
        <path fill="none" d="M0 0h512v512H0z"/>
        <path fill="currentColor" d="M229.7 22.66A155.2 235.6 80.24 0 0 23.81 215.6 155.2 235.6 80.24 0 0 236.7 333.4c23.8 55.6-17.1 109.3-83.6 161.1 86.2-28.3 176.2-94.4 179.7-178.7a155.2 235.6 80.24 0 0 155.4-180.1A155.2 235.6 80.24 0 0 229.7 22.66z"/>
    </symbol>
    <symbol id="checkbox-tree" xmlns="http://www.w3.org/2000/svg" viewBox="0 0 512 512">
        <path fill="none" d="M0 0h512v512H0z"/>
        <path fill="currentColor" d="M249.28 106.28V250h-77.186v-56.25H22.47V319.406h149.624v-50.719h77.187v148.407h18.69V357.22h71.686v50.718H489.28V282.28H339.657v56.251H267.97V189.407h71.686v50.72H489.28V114.47H339.657V170.718H267.97v-64.44h-18.69zm109.064 26.876h112.25v88.28h-112.25v-88.28zm-317.188 79.28h112.25v88.283H41.156v-88.283zm317.188 88.533h112.25v88.28h-112.25v-88.28z"/>
    </symbol>
    <symbol id="checklist" xmlns="http://www.w3.org/2000/svg" viewBox="0 0 512 512">
        <path fill="none" d="M0 0h512v512H0z"/>
        <path fill="currentColor" d="M122.31 84.615l-2.85 8.54-11.394 34.185-5.703-5.703L96 115.27 83.27 128l6.367 6.363 26.297 26.297 20.605-61.814 2.845-8.537-17.076-5.695zM151 119v18h242v-18H151zm0 64v18h242v-18H151zm0 64v18h242v-18H151zm-28.69 29.615l-2.85 8.54-11.394 34.185-5.703-5.703L96 307.27 83.27 320l6.367 6.363 26.297 26.297 20.605-61.814 2.845-8.537-17.076-5.695zM151 311v18h242v-18H151zm0 64v18h242v-18H151z"/>
    </symbol>
    <symbol id="church" xmlns="http://www.w3.org/2000/svg" viewBox="0 0 512 512">
        <path fill="none" d="M0 0h512v512H0z"/>
        <path fill="currentColor" d="M163.5 22.754l-68.178 170.16h136.356L163.5 22.754zm-73.328 186.16v280.332H131.5v-72c20.034-22.093 41.16-25.61 64 0v72h40V208.914H90.172zm33.328 16.332h16v32h-16v-32zm32 0h16v32h-16v-32zm32 0h16v32h-16v-32zm64 47.715v216.286h48V324.264c-2.595-2.982-13.49-15.47-26.64-29.56-7.4-7.93-15.062-15.85-21.22-21.622-.055-.052-.084-.07-.14-.12zm-177.328 1.267c-5.95 5.658-13.084 13.03-20.033 20.476-13.15 14.09-24.045 26.58-26.64 29.56v164.983h46.672v-215.02zm89.328 7.35c30.933 0 56.186 24.12 56.186 53.67 0 29.547-25.253 53.67-56.186 53.67s-56.186-24.123-56.186-53.67c0-29.55 25.253-53.67 56.186-53.67zm-9 16.614c-4.782 1.046-9.23 2.898-13.172 5.415l13.172 12.957v-18.37zm18 0v19.847l15.14-13.088c-4.407-3.203-9.544-5.536-15.14-6.76zm-42.61 16.605c-2.68 4.026-4.588 8.57-5.53 13.45h19.2l-13.67-13.45zm68.485 2.025l-13.217 11.426h17.48c-.785-4.078-2.24-7.923-4.263-11.426zM315.5 330.246v30h156.27l-30-30H315.5zm-190.135 16c.993 3.174 2.404 6.17 4.176 8.932l10.33-8.932h-14.505zm59.31 0l11.278 11.096c2.486-3.335 4.422-7.07 5.682-11.096h-16.96zM154.5 354.75l-13.662 11.813c4.064 2.68 8.68 4.65 13.662 5.738v-17.55zm18 1.965V372.3c4.084-.892 7.924-2.373 11.414-4.357L172.5 356.715zm143 21.53v110h169v-110h-169zm25 23h18v32h-18v-32zm32 0h18v32h-18v-32zm32 0h18v32h-18v-32zm32 0h18v32h-18v-32z"/>
    </symbol>
    <symbol id="clay-brick" xmlns="http://www.w3.org/2000/svg" viewBox="0 0 512 512">
        <path fill="none" d="M0 0h512v512H0z"/>
        <path fill="currentColor" d="M329.3 99.64l-39.7 10.46c-30.2 26.1-62.7 50.9-96.7 75.1l-6.7 21-34.1 7.3c-22.6 15.3-45.6 30.4-68.82 45.5l120.32 18.4 213.9-167.1c-27.7-3.8-56.9-7.5-88.2-10.66zm103.4 21.56l-61.4 47.9-43 53.1-45 15.7-65 50.7 20.8 115.1c65.6-54.6 127.6-109.4 187-163.1l-5.6-31.2 42.1-1.9c8.3-7.4 16.5-14.9 24.6-22.3zM61.58 277.6c-21.15 39.9-32.01 70.6-36.83 95.8 9.21 1.1 18.3 2.2 27.28 3.5l16.76-30.6 5.52 34c53.29 8.6 103.09 20.5 152.19 32.1l-26.9-117.6-66-10.1z"/>
    </symbol>
    <symbol id="cog" xmlns="http://www.w3.org/2000/svg" viewBox="0 0 512 512">
        <path fill="none" d="M0 0h512v512H0z"/>
        <path fill="currentColor" d="M234.875 18.78c-26.087 2.367-51.557 8.56-74.875 18.782 15.37 32.763 14.222 66.706-6.72 82.407-20.835 15.617-54.055 7.965-81.124-15.69-16.246 19.452-29.336 41.36-38.875 65.626 33.83 12.333 56.635 37.665 52.94 63.5-3.698 25.835-32.697 43.74-68.626 46.094 2.338 25.796 8.91 50.778 18.937 73.875 17.81-8.182 35.793-11.09 51.095-8.938 13.032 1.87 23.927 7.015 31.156 16.657 15.817 21.097 7.603 54.713-16.78 81.97 19.516 16.35 42.216 29.444 66.594 39.03 12.33-33.828 37.655-56.634 63.5-52.938 25.844 3.697 43.74 32.696 46.094 68.625 26.087-2.365 51.557-8.555 74.875-18.78-15.766-32.997-14.26-67.588 6.843-83.406 9.64-7.23 22.568-9.022 35.594-7.125 15.112 2.16 31.19 10.25 45.563 22.78 16.088-19.345 29.4-41.51 38.875-65.594-33.83-12.332-56.635-37.653-52.938-63.5 3.697-25.846 32.665-43.772 68.594-46.125-2.36-25.944-8.774-50.663-18.906-73.874-32.612 15.117-66.66 13.145-82.282-7.687-15.696-20.944-7.252-53.86 16.688-81-19.52-16.352-42.248-29.447-66.625-39.032-12.332 33.828-37.657 56.66-63.5 52.968-25.846-3.693-43.744-32.696-46.095-68.625zm21.656 95.126c79.626 0 144.376 64.752 144.376 144.375 0 79.626-64.75 144.376-144.375 144.376-79.624 0-144.374-64.75-144.374-144.375 0-79.624 64.75-144.374 144.375-144.374zm0 18.688c-69.524 0-125.686 56.162-125.686 125.687 0 69.526 56.162 125.69 125.687 125.69 69.526 0 125.69-56.164 125.69-125.69 0-69.522-56.164-125.686-125.69-125.686zm.033 15.125c61.094 0 110.625 49.53 110.625 110.624 0 61.095-49.53 110.625-110.625 110.625s-110.625-49.53-110.625-110.626c0-61.095 49.53-110.625 110.625-110.625z"/>
    </symbol>
    <symbol id="concrete-bag" xmlns="http://www.w3.org/2000/svg" viewBox="0 0 512 512">
        <path fill="none" d="M0 0h512v512H0z"/>
        <path fill="currentColor" d="M172.416 41.021c-39.47.351-78.748 5.972-114.732 14.827 10.094 15.264 27.17 26.95 46.898 34.865 23.65 9.488 50.72 13.333 70.959 12.299 20.826-1.065 47.765-9.524 68.764-21.008 10.5-5.742 19.542-12.245 25.652-18.5 3.24-3.317 5.517-6.486 6.99-9.316-30.874-8.778-63.696-12.865-96.635-13.167a438.026 438.026 0 0 0-7.896 0zm111.541 33.877c-.372.396-.743.793-1.125 1.184-7.888 8.075-18.231 15.34-29.889 21.715-23.314 12.75-51.772 21.928-76.484 23.191-23.227 1.188-52.158-2.967-78.58-13.568-18.094-7.26-35.189-17.651-47.762-31.873C33.802 206.86 19.325 353.169 39.992 473.012c19.598 6.163 40.992 10.825 63.008 13.95V423h64v-64h109.957c-.024-3.013.152-6.295.486-9.97.96-10.546 3.217-24.018 6.338-39.007 5.408-25.967 13.412-56.318 21.948-82.152-4.95-49.133-12.133-100.876-21.772-152.973zm152.682.59c-.909.002-1.93.107-2.87.137l-56.949 71.28c7.692 2.471 14.598 7.387 19.639 14.052l55.268-66.045c.901-2.06.935-7.813-2.174-12.293-2.433-3.505-5.967-6.446-12.051-7.092-.27-.028-.56-.04-.863-.039zm-69.506 87.742a31.857 31.857 0 0 0-4.278 6.745c-3.85 8.26-4.52 17.07-3.816 24.61l.022.224 3.507 24.408a201.33 201.33 0 0 0-5.46.586c-11.149 1.362-23.392 3.885-31.805 6.601-9.124 26.31-18.124 59.552-23.9 87.29-3.034 14.562-5.182 27.607-6.034 36.966-.268 2.945-.188 4.657-.203 6.729 2.338-1.204 5.048-2.731 8.326-4.871 9.674-6.317 22.502-16.22 36.13-27.565 25.535-21.259 53.706-47.399 71.997-65.816-2.982-7.624-8.213-16.243-13.951-23.516-6.682-8.469-14.49-15.144-16.53-16.408-.057.008-.262-.026-.392-.04l-3.783-26.323c-.448-4.91.237-11.044 2.207-15.27.975-2.092 2.012-3.727 3.46-4.951-3.847-5.382-9.725-8.894-15.497-9.399zM377 313v46h110v-46H377zm-192 64v46h110v-46H185zm128 0v46h110v-46H313zm128 0v46h46v-46h-46zm-320 64v46h110v-46H121zm128 0v46h110v-46H249zm128 0v46h110v-46H377z"/>
    </symbol>
    <symbol id="confirmed" xmlns="http://www.w3.org/2000/svg" viewBox="0 0 512 512">
        <path fill="none" d="M0 0h512v512H0z"/>
        <path fill="currentColor" d="M256 16C123.5 16 16 123.5 16 256c0 132.6 107.5 240 240 240 132.6 0 240-107.4 240-240S388.6 16 256 16zm0 60c99.4 0 180 80.6 180 180s-80.6 180-180 180S76 355.4 76 256 156.6 76 256 76zm91.3 64.2c-6.5 0-12.5 2.4-16.8 8.2-52 70.1-69 96.5-106 169.8-8.4-11.1-65.6-72.4-93.9-94.1-14.2-10.9-41.3 27.2-31.6 37.1C142.6 306.1 220.1 406 232.7 405c21.4-1.7 75.1-136.8 148.8-233.7 8-10.4-15-31.3-34.2-31.1z"/>
    </symbol>
    <symbol id="congress" xmlns="http://www.w3.org/2000/svg" viewBox="0 0 512 512">
        <path fill="none" d="M0 0h512v512H0z"/>
        <path fill="currentColor" d="M247.002 32v47.725a56.476 56.476 0 0 1 17.996 0V32h-17.996zM256 96.998c-11.5 0-23.002 5.001-23.002 15.002v10.1c7.37-2 15.05-3.098 23.002-3.098 7.953 0 15.632 1.098 23.002 3.098V112c0-10-11.502-15.002-23.002-15.002zm0 40c-28.25 0-53.982 17.938-72.867 42.488-16.345 21.249-26.934 47.277-29.496 67.516h204.726c-2.562-20.239-13.15-46.267-29.496-67.516-18.885-24.55-44.617-42.488-72.867-42.488zm-80 78.004h32v17.996h-32v-17.996zm64 0h32v17.996h-32v-17.996zm64 0h32v17.996h-32v-17.996zm-170.29 49.996l-7.53 16.004h259.64l-7.53-16.004H133.71zm1.292 34v28.004h17.996v-28.004h-17.996zm56 0v28.004h17.996v-28.004h-17.996zm56 0v28.004h17.996v-28.004h-17.996zm56 0v28.004h17.996v-28.004h-17.996zm56 0v28.004h17.996v-28.004h-17.996zm-270.004 46v16.004h334.004v-16.004H88.998zm14.004 34v60.004h17.996v-60.004h-17.996zm48 0v60.004h17.996v-60.004h-17.996zm48 0v60.004h17.996v-60.004h-17.996zm48 0v60.004h17.996v-60.004h-17.996zm48 0v60.004h17.996v-60.004h-17.996zm48 0v60.004h17.996v-60.004h-17.996zm48 0v60.004h17.996v-60.004h-17.996zm-350.004 78v30.004h430.004v-30.004H40.998z"/>
    </symbol>
    <symbol id="crags" xmlns="http://www.w3.org/2000/svg" viewBox="0 0 512 512">
        <path fill="none" d="M0 0h512v512H0z"/>
        <path fill="currentColor" d="M256.375 17.47c-132.537 0-240.188 107.618-240.188 240.155s107.65 240.188 240.188 240.188c132.537 0 240.188-107.65 240.188-240.188 0-132.537-107.65-240.156-240.188-240.156zm0 18.686c60.246 0 114.816 23.992 154.72 62.938l-61.626 29.875-21 263.217-.5 6.313-6.033 1.875-96.312 30.063-12.063 44.53c-6.15-1.202-12.23-2.644-18.187-4.343l13.563-50 1.343-4.97 4.876-1.53 21.344-6.656 30.594-247.19.937-7.593 7.595-.593L329.22 148l2.06-25.875.44-5.344 4.81-2.31 10.22-4.94-58.938-21.905-69.437 41-20.78 138.094-.97 6.592-6.563 1.22-10.875 2.03-28.593 175.782c-5.914-3.216-11.647-6.714-17.22-10.438L153.5 318.25l-81.875 5.125L58.845 358c-15.325-30.126-23.97-64.225-23.97-100.375 0-122.436 99.064-221.47 221.5-221.47zm71.344 130.688l-43.033 3.28-28.562 231.22 54.22-16.938 17.374-217.562zm133.342 5.97c2.374 5.73 4.512 11.568 6.407 17.53l-49.408 19.78-30.125 225.75c-5.78 4.273-11.776 8.266-17.968 11.97l-2.44-.313 32.72-245.31.72-5.407 5.06-2.032 55.033-21.968zm-277.75 63.405l-61.343 1.124-14.69 65.062 49.282-3.094 5.25-32.25 1.032-6.5 6.47-1.187 10.81-2 3.19-21.156z"/>
    </symbol>
    <symbol id="cube" xmlns="http://www.w3.org/2000/svg" viewBox="0 0 512 512">
        <path fill="none" d="M0 0h512v512H0z"/>
        <path fill="currentColor" d="M256 24.585L51.47 118.989 256 213.394l204.53-94.405zM38.998 133.054v258.353L247 487.415V229.063zm434.004 0L265 229.062v258.353l208.002-96.008z"/>
    </symbol>
    <symbol id="database" xmlns="http://www.w3.org/2000/svg" viewBox="0 0 512 512">
        <path fill="none" d="M0 0h512v512H0z"/>
        <path fill="currentColor" d="M256 19.11c-48.03 0-91.515 6.572-122.235 16.82-15.36 5.123-27.503 11.218-35.225 17.308C90.82 59.328 88 64.702 88 69.278c0 4.574 2.82 9.948 10.54 16.038 7.722 6.09 19.865 12.184 35.225 17.308 30.72 10.247 74.204 16.82 122.235 16.82 48.03 0 91.515-6.573 122.235-16.82 15.36-5.124 27.503-11.22 35.225-17.308 7.72-6.09 10.54-11.464 10.54-16.04 0-4.574-2.82-9.948-10.54-16.038-7.722-6.09-19.865-12.185-35.225-17.308C347.515 25.682 304.03 19.11 256 19.11zM88 99.434v92.63c0 5.84 5.338 13.804 19.285 21.862 13.947 8.058 35.283 15.424 61.976 20.564 53.387 10.283 120.093 10.283 173.48 0 26.692-5.14 48.028-12.505 61.975-20.563C418.662 205.87 424 197.905 424 192.067V99.434c-10.135 7.894-23.752 14.42-40.19 19.903-33.272 11.098-78.19 17.727-127.81 17.727-49.62 0-94.538-6.63-127.81-17.727-16.438-5.483-30.055-12.01-40.19-19.903zm0 122.75v95.32c0 5.84 5.338 13.803 19.285 21.86 13.947 8.06 35.283 15.425 61.976 20.566 53.387 10.282 120.093 10.282 173.48 0 26.692-5.14 48.028-12.506 61.975-20.564 13.947-8.058 19.285-16.022 19.285-21.86v-95.322c-3.18 2.475-6.685 4.812-10.47 7-16.58 9.578-39.446 17.215-67.46 22.61-56.023 10.79-124.117 10.79-180.14 0-28.014-5.395-50.88-13.032-67.46-22.61-3.785-2.188-7.29-4.525-10.47-7zm0 125.44v98.035h.386c.994 3.89 4.026 8.27 10.154 13.102 7.722 6.09 19.865 12.185 35.225 17.308 30.72 10.248 74.204 16.82 122.235 16.82 48.03 0 91.515-6.572 122.235-16.82 15.36-5.123 27.503-11.218 35.225-17.308 6.128-4.833 9.16-9.213 10.154-13.102H424V347.623c-3.18 2.475-6.685 4.813-10.47 7-16.58 9.58-39.446 17.215-67.46 22.61-56.023 10.79-124.117 10.79-180.14 0-28.014-5.395-50.88-13.03-67.46-22.61-3.785-2.187-7.29-4.525-10.47-7z"/>
    </symbol>
    <symbol id="earth-africa-europe" xmlns="http://www.w3.org/2000/svg" viewBox="0 0 512 512">
        <path fill="none" d="M0 0h512v512H0z"/>
        <path fill="currentColor" d="M256 32A224 224 0 0 0 32 256a224 224 0 0 0 224 224 224 224 0 0 0 223.672-217.45c-15.468 4.148-.306.22-16.467 4.51-9.1-2.965-28.42 10.264-29.197 10.264-1.756 0-14.65-49.66-14.65-49.66L381.08 208H368l-1.316 6.32 30.2 28.444-47.76 20.718-35.466-49.162-5.24 2.328 11.21 36.3 42.84 23.177-42.84 50.568 1.403 35.82-31.276 67.182-52.168-6.716-16-88.843-3.094-33.43-71.517-3.838-9.258-60.77 32.314-35.827 54.782-6.32 40.034 21.772 36.93-9.72c-1.112-18.374.05-12.54-1.112-18.374l-19.666-.7-1.053-10.184-5.97-2.107-2.81 12.64-9.48-.526-11.94-26.514-8.43 2.81 10.185 22.475-9.13 3.16-13.694-20.718-8.428-1.406-21.773 2.81-18.26 23.177-18.613 1.406-1.405-34.064 24.23-1.757 2.108-10.184-5.795-5.618-.174-3.69 16.182-7.94 11.56-2.944 19.665-6.848 6.32-7.375 3.512 7.375 22.474 2.81 8.78-9.13 5.97-24.582-6.673-2.81-11.238 16.857-8.43-9.834-11.586 14.75-14.4 2.458-.7-10.184 11.236-23.88 31.606-13.694 43.894-3.16 3.864 13.344s-4.916 13.344-5.97 13.695c-.138.045.428 1.754 1.464 4.565h31.195l14.047-11.59 29.484-9.138A224 224 0 0 0 256 32zM145.098 69.465l6.144 1.053s1.756 8.076.352 10.007c-1.405 1.932-10.885 7.903-10.885 7.903l-6.148-12.115 10.536-6.848zm41.086 11.588l8.252 19.49 3.337 16.68s-11.588 5.793-12.466 6.496c-.878.7-6.147-8.077-6.147-8.077l-1.93-17.91 2.81-15.1 6.144-1.58zm-12.116 22.474v16.155l-10.007 3.86-2.107-7.724 12.115-12.29zm189.104 238.618l-7.365 61.798-16.164 3.166s4.868-50.492 7.326-53.3l16.202-11.665z"/>
    </symbol>
    <symbol id="entry-door" xmlns="http://www.w3.org/2000/svg" viewBox="0 0 512 512">
        <path fill="none" d="M0 0h512v512H0z"/>
        <path fill="currentColor" d="M217 28.098v455.804l142-42.597V70.697zM119 55v160h18V73h62V55zm257.98.03l.02 2.275V87h16V55zM377 105v16h16v-16zm0 34v236h16V139zm-276.564 58.727L42.162 256l58.274 58.273V279h96v-46h-96zM244 232c6.627 0 12 10.745 12 24s-5.373 24-12 24-12-10.745-12-24 5.373-24 12-24zm-125 65v151h18V297zm258 96v14h16v-14zm0 32v23h16v-23zM32 471v18h167v-18zm290.652 0l-60 18H480v-18z"/>
    </symbol>
    <symbol id="exit-door" xmlns="http://www.w3.org/2000/svg" viewBox="0 0 512 512">
        <path fill="none" d="M0 0h512v512H0z"/>
        <path fill="currentColor" d="M217 28.098v455.804l142-42.597V70.697zm159.938 26.88l.062 2.327V87h16V55zM119 55v117.27h18V73h62V55zm258 50v16h16v-16zm0 34v236h16V139zm-240 58.727V233H41v46h96v35.273L195.273 256zM244 232c6.627 0 12 10.745 12 24s-5.373 24-12 24-12-10.745-12-24 5.373-24 12-24zM137 339.73h-18V448h18zM377 393v14h16v-14zm0 32v23h16v-23zM32 471v18h167v-18zm290.652 0l-60 18H480v-18z"/>
    </symbol>
    <symbol id="expander" xmlns="http://www.w3.org/2000/svg" viewBox="0 0 512 512">
        <path fill="none" d="M0 0h512v512H0z"/>
        <path fill="currentColor" d="M20.625 16c-1.74.052-2.956.394-3.594 1.03-10.2 10.203 58.65 170.85 76.5 178.5 5.02 2.152 15.865-3.563 28.72-13.28h.03L196 256l-73.72 73.75c-12.863-9.726-23.728-15.433-28.75-13.28-17.85 7.65-86.7 168.297-76.5 178.5 10.203 10.2 170.85-58.65 178.5-76.5 2.153-5.022-3.554-15.887-13.28-28.75L256 316l73.75 73.75c-9.717 12.855-15.432 23.7-13.28 28.72 7.65 17.85 168.297 86.7 178.5 76.5 10.2-10.203-58.65-170.85-76.5-178.5-5.02-2.152-15.865 3.563-28.72 13.28L316 256l73.75-73.75c12.855 9.717 23.7 15.432 28.72 13.28 17.85-7.65 86.7-168.297 76.5-178.5-10.203-10.2-170.85 58.65-178.5 76.5-2.153 5.022 3.554 15.887 13.28 28.75L256 196l-73.75-73.72c.005-.006-.005-.023 0-.03 9.717-12.855 15.432-23.7 13.28-28.72C188.36 76.796 46.71 15.225 20.626 16z"/>
    </symbol>
    <symbol id="gamepad-cross" xmlns="http://www.w3.org/2000/svg" viewBox="0 0 512 512">
        <path fill="none" d="M0 0h512v512H0z"/>
        <path fill="currentColor" d="M176.938 24.03V75.44c-52.96 6.715-94.96 48.652-101.72 101.593H24.564v160.096h50.75c7.034 52.62 48.895 94.247 101.624 100.938V489.5H337v-51.374c53.01-6.453 95.158-48.183 102.22-101h50.811V177.03h-50.717C432.526 123.893 390.238 81.85 337 75.376V24.03H176.938zm18.687 18.69h122.688v139.75L257.25 243.5l-61.625-61.625V42.72zm61.656 17.436c-24.524 0-44.405 19.88-44.405 44.407 0 24.525 19.88 44.406 44.406 44.406 24.524 0 44.376-19.882 44.376-44.407 0-24.526-19.85-44.407-44.375-44.407zM43.25 195.72h139.78l61.032 61.03-61.718 61.688H43.25v-122.72zm288.25 0h139.844v122.718H332.188L270.5 256.75l61-61.03zm-226.406 16.624c-24.525 0-44.406 19.88-44.406 44.406 0 24.525 19.88 44.406 44.406 44.406 24.525 0 44.406-19.88 44.406-44.406 0-24.523-19.88-44.406-44.406-44.406zm304.344 0c-24.526 0-44.407 19.88-44.407 44.406 0 24.525 19.882 44.406 44.408 44.406 24.525 0 44.406-19.88 44.406-44.406 0-24.523-19.88-44.406-44.406-44.406zM257.25 269.938L318.313 331v139.813H195.625v-139.22l61.625-61.656zm.03 94.562c-24.524 0-44.405 19.88-44.405 44.406 0 24.525 19.88 44.406 44.406 44.406 24.524 0 44.376-19.88 44.376-44.406 0-24.525-19.85-44.406-44.375-44.406z"/>
    </symbol>
    <symbol id="gamepad" xmlns="http://www.w3.org/2000/svg" viewBox="0 0 512 512">
        <path fill="none" d="M0 0h512v512H0z"/>
        <path fill="currentColor" d="M155.084 125.945c-.46 0-.926.01-1.397.034-5.646.285-12.097 2.464-20.707 8.204-21.824 14.55-51.912 60.395-67.834 110.005-15.92 49.61-18.046 102.25 5.936 132.966 4.142 5.306 13.387 8.93 23.756 8.846 10.216-.084 20.682-3.838 26.482-9.44 1.022-1.47 9.296-13.336 21.39-27.404 12.863-14.96 28.716-31.686 45.835-38.777 41.863-17.34 93.024-17.34 134.887 0 17.118 7.092 32.97 23.818 45.834 38.778 12.095 14.068 20.37 25.933 21.39 27.404 5.8 5.602 16.267 9.356 26.483 9.44 10.368.085 19.612-3.54 23.755-8.846 23.973-30.704 21.885-83.575 5.978-133.287-15.907-49.713-46.054-95.526-67.783-109.624-11.498-7.46-19.198-8.73-26.285-7.64-7.088 1.093-14.347 5.197-22.866 11.07-17.038 11.746-38.898 30.02-73.952 30.02-35.212 0-57.115-18.514-74.13-30.356-8.505-5.92-15.73-10.025-22.743-11.078-1.315-.198-2.65-.312-4.03-.317zm212.904 48.75a16 16 0 0 1 16 16 16 16 0 0 1-16 16 16 16 0 0 1-16-16 16 16 0 0 1 16-16zM135 183h18v32h32v18h-32v32h-18v-32h-32v-18h32v-32zm200.988 23.695a16 16 0 0 1 16 16 16 16 0 0 1-16 16 16 16 0 0 1-16-16 16 16 0 0 1 16-16zm64 0a16 16 0 0 1 16 16 16 16 0 0 1-16 16 16 16 0 0 1-16-16 16 16 0 0 1 16-16zm-32 32a16 16 0 0 1 16 16 16 16 0 0 1-16 16 16 16 0 0 1-16-16 16 16 0 0 1 16-16zm-160 7h32v18h-32v-18zm64 0h27.897v18h-27.897v-18z"/>
    </symbol>
    <symbol id="hamburger-menu" xmlns="http://www.w3.org/2000/svg" viewBox="0 0 512 512">
        <path fill="none" d="M0 0h512v512H0z"/>
        <path fill="currentColor" d="M32 96v64h448V96H32zm0 128v64h448v-64H32zm0 128v64h448v-64H32z"/>
    </symbol>
    <symbol id="histogram" xmlns="http://www.w3.org/2000/svg" viewBox="0 0 512 512">
        <path fill="none" d="M0 0h512v512H0z"/>
        <path fill="currentColor" d="M23 23v466h466v-18h-40.893V256h-48v215h-31.675V159.33h-48V471h-31.227V320.242h-48V471H207.2V80.418h-48V471H128V192H80v279H41V23H23z"/>
    </symbol>
    <symbol id="house" xmlns="http://www.w3.org/2000/svg" viewBox="0 0 512 512">
        <path fill="none" d="M0 0h512v512H0z"/>
        <path fill="currentColor" d="M256 19.27L25.637 249.638 19.27 256 32 268.73l6.363-6.367L256 44.727l217.637 217.636L480 268.73 492.73 256l-6.367-6.363zM96 48v107.273l64-64.002V48zm160 20.727l-192 192V486h64V320h96v166h224V260.727zM288 320h96v80h-96z"/>
    </symbol>
    <symbol id="info" xmlns="http://www.w3.org/2000/svg" viewBox="0 0 512 512">
        <path fill="none" d="M0 0h512v512H0z"/>
        <path fill="currentColor" d="M256 21C126.426 21 21 126.426 21 256s105.426 235 235 235 235-105.426 235-235S385.574 21 256 21zm0 36c110.118 0 199 88.882 199 199s-88.882 199-199 199S57 366.118 57 256 145.882 57 256 57zm-7.352 36.744c-8.227 0-15.317 2.976-21.27 8.928-5.776 5.952-8.665 12.955-8.665 21.008 0 8.227 2.89 15.23 8.666 21.006 5.95 5.776 13.04 8.666 21.268 8.666 8.228 0 15.23-2.89 21.006-8.666 5.777-5.777 8.666-12.78 8.666-21.006 0-8.053-2.976-15.056-8.927-21.008-5.777-5.952-12.692-8.928-20.745-8.928zm-62.757 82.453v28.096h46.215v186.13H185.89v27.833h140.22v-27.834h-45.69V176.197h-94.53z"/>
    </symbol>
    <symbol id="pagoda" xmlns="http://www.w3.org/2000/svg" viewBox="0 0 512 512">
        <path fill="none" d="M0 0h512v512H0z"/>
        <path fill="currentColor" d="M255.967 23.386c19.704 15.157 49.792 21.65 82.52 27.105 21.419 3.57 43.864 6.501 65.163 9.832-7.28 1.686-14.641 3.4-21.609 4.97-21.25 4.789-41 8.38-45.967 8.321H175.8l-.168.006c-4.61.172-24.44-3.34-45.662-8.181-7.035-1.605-14.48-3.364-21.842-5.09 21.346-3.342 43.848-6.279 65.32-9.858 32.727-5.454 62.815-11.948 82.52-27.105zm55 67.228v16h-110v-16zm3.394 34a24.977 24.977 0 0 0 4.563 4.28c3.799 2.763 8.317 4.922 13.701 7.076 10.768 4.307 24.987 8.332 41.158 12.375 18.612 4.653 39.434 9.269 60.069 13.865l-50.182 8.404H128.71l-50.54-8.424c20.606-4.59 41.396-9.2 59.98-13.845 16.172-4.043 30.39-8.068 41.159-12.375 5.384-2.154 9.902-4.313 13.7-7.076a24.977 24.977 0 0 0 4.563-4.28zm28.606 62v30h-46v-30zm-64 0v30h-46v-30zm-64 0v30h-46v-30zm131.123 48c1.246 1.65 2.68 3.113 4.156 4.422 3.592 3.184 8.04 6.026 13.383 8.965 10.686 5.877 24.947 11.954 41.178 18.041 20.082 7.531 43.024 14.894 65.33 21.42l-54.914 9.152H96.263l-54.533-9.133c22.327-6.53 45.294-13.9 65.397-21.439 16.23-6.087 30.492-12.164 41.178-18.041 5.343-2.939 9.79-5.781 13.382-8.965 1.477-1.309 2.91-2.772 4.157-4.422zm28.877 80v30h-238v-30zm3.123 48c1.246 1.65 2.68 3.113 4.156 4.422 3.592 3.184 8.04 6.026 13.383 8.965 10.686 5.877 24.947 11.954 41.178 18.041 20.102 7.539 43.07 14.909 65.396 21.44l-54.533 9.132H64.71l-54.913-9.152c22.305-6.526 45.247-13.889 65.33-21.42 16.23-6.087 30.492-12.164 41.178-18.041 5.343-2.939 9.79-5.781 13.382-8.965 1.477-1.309 2.91-2.772 4.157-4.422zm60.877 80v46h-142v-46zm-160 0v46h-46v-46zm-64 0v46h-142v-46z"/>
    </symbol>
    <symbol id="player-base" xmlns="http://www.w3.org/2000/svg" viewBox="0 0 512 512">
        <path fill="none" d="M0 0h512v512H0z"/>
        <path fill="currentColor" d="M256 32L32 240h64v240h320V240h64L256 32zm-3.1 145.5l3 .1c15.6 0 30.1 17.1 30.1 40.3 0 11.6-3.9 22-9.7 29.3l-7.3 8.9 11.5 1.8c8.8 1.4 14.8 5.5 19.8 12.3 5 6.7 8.6 16.1 11.1 27 4.3 19.9 4.6 44.4 4.6 65.9h-25l-6.3 96.4c-17.6 4.1-37.1 4.2-55.3 0l-7.2-96.4H196c.2-21.3 1.2-45.4 6-65.1 2.6-10.9 6.4-20.3 11.4-27.1 4.9-6.8 10.7-10.9 18.5-12.5l11.2-2.1-7.2-8.6c-6.1-7.4-10.3-18-10.3-29.8 0-21.8 13-38.5 27.3-40.4z"/>
    </symbol>
    <symbol id="power-button" xmlns="http://www.w3.org/2000/svg" viewBox="0 0 512 512">
        <path fill="none" d="M0 0h512v512H0z"/>
        <path fill="currentColor" d="M228.576 26.213v207.32h54.848V26.214h-54.848zm-28.518 45.744C108.44 96.58 41 180.215 41 279.605c0 118.74 96.258 215 215 215 118.74 0 215-96.26 215-215 0-99.39-67.44-183.025-159.057-207.647v50.47c64.6 22.994 110.85 84.684 110.85 157.177 0 92.117-74.676 166.794-166.793 166.794-92.118 0-166.794-74.678-166.794-166.795 0-72.494 46.25-134.183 110.852-157.178v-50.47z"/>
    </symbol>
    <symbol id="save" xmlns="http://www.w3.org/2000/svg" viewBox="0 0 512 512">
        <path fill="none" d="M0 0h512v512H0z"/>
        <path fill="currentColor" d="M64 48c-8.726 0-16 7.274-16 16v384c0 8.726 7.274 16 16 16h215v-16H64V64h63.375v97.53c0 3.924 3.443 7.095 7.72 7.095h169.81c4.277 0 7.72-3.17 7.72-7.094V64h69.22c.428.318.8.548 1.467 1.094 2.05 1.675 4.962 4.264 8.375 7.406 6.827 6.283 15.65 14.837 24.313 23.5 8.663 8.663 17.217 17.486 23.5 24.313 3.142 3.413 5.73 6.324 7.406 8.374.546.668.776 1.04 1.094 1.47V330.25l16 16V128c0-2.68-.657-3.402-1.03-4.156-.375-.754-.725-1.294-1.095-1.844-.74-1.1-1.575-2.19-2.594-3.438-2.036-2.492-4.768-5.55-8.03-9.093-6.524-7.09-15.155-16-23.938-24.782-8.782-8.783-17.692-17.414-24.78-23.938-3.545-3.262-6.6-5.994-9.094-8.03-1.247-1.02-2.337-1.855-3.438-2.595-.55-.37-1.09-.72-1.844-1.094-.754-.373-1.477-1.03-4.156-1.03H64zm87.72 16h48.56c4.277 0 7.72 4.425 7.72 9.938v70.124c0 5.513-3.443 9.938-7.72 9.938h-48.56c-4.277 0-7.72-4.425-7.72-9.938V73.938c0-5.512 3.443-9.937 7.72-9.937zM114 212c-4.432 0-8 3.568-8 8v184c0 4.432 3.568 8 8 8h165v-28h-76.72l15.345-15.375 128-128L352 234.28l6.375 6.345L406 288.25V220c0-4.432-3.568-8-8-8H114zm238 47.75L245.75 366H297v128h110V366h51.25L352 259.75zM448 384v64h-23v16h23c8.726 0 16-7.274 16-16v-64h-16z"/>
    </symbol>
    <symbol id="settings-knobs" xmlns="http://www.w3.org/2000/svg" viewBox="0 0 512 512">
        <path fill="none" d="M0 0h512v512H0z"/>
        <path fill="currentColor" d="M87 32v71h18V32H87zm160 0v345h18V32h-18zm160 0v167h18V32h-18zM50 121c-5.14 0-9 3.9-9 9v28c0 5.1 3.86 9 9 9h92c5.1 0 9-3.9 9-9v-28c0-5.1-3.9-9-9-9H50zm37 64v295h18V185H87zm283 32c-5.1 0-9 3.9-9 9v28c0 5.1 3.9 9 9 9h92c5.1 0 9-3.9 9-9v-28c0-5.1-3.9-9-9-9h-92zm37 64v199h18V281h-18zM210 395c-5.1 0-9 3.9-9 9v28c0 5.1 3.9 9 9 9h92c5.1 0 9-3.9 9-9v-28c0-5.1-3.9-9-9-9h-92zm37 64v21h18v-21h-18z"/>
    </symbol>
    <symbol id="sound-off" xmlns="http://www.w3.org/2000/svg" viewBox="0 0 512 512">
        <path fill="none" d="M0 0h512v512H0z"/>
        <path fill="currentColor" d="M210.652 145.922c-35.467.215-70.267 6.618-89.252 14.863-14.085 43.136-16.33 127.919-6.736 180.518-8.452-4.265-18.339-6.543-28.447-6.555-28.719 0-52 17.909-52 40s23.281 40 52 40 52.002-17.909 52.002-40c-6.166-49.187-13.74-115.12-8.225-165.437 37.756-7.722 77.49-17.422 114.688-10.715-4.152 38.294-3.03 82.424 3.377 117.552-8.452-4.265-18.335-6.543-28.444-6.554-28.719 0-52 17.908-52 40 0 22.091 23.281 40 52 40s52-17.909 52-40c-4.618-72.485-18.78-132.767.33-196.436-18.492-5.267-40.012-7.365-61.293-7.236zm5.457 15.635c11.697-.073 23.313.706 34.174 2.558-1.185 5.199-2.232 10.67-3.156 16.336-37.913-5.64-78.578 1.385-114.332 9.656a227.233 227.233 0 0 1 3.277-14.884c19.722-7.718 50.145-13.48 80.037-13.666zm116.62 17.714L307.27 204.73 358.543 256l-51.272 51.271 25.458 25.458L384 281.457l51.271 51.272 25.458-25.458L409.457 256l51.272-51.271-25.458-25.458L384 230.543l-51.271-51.272z"/>
    </symbol>
    <symbol id="sound-on" xmlns="http://www.w3.org/2000/svg" viewBox="0 0 512 512">
        <path fill="none" d="M0 0h512v512H0z"/>
        <path fill="currentColor" d="M333.782 80c128 64 128 288 0 352 192-64 192-288 0-352zm-48 16c64 50.843 64 270.217 0 321.06 128-50.843 128-270.217 0-321.06zm-75.13 49.922c-35.468.215-70.268 6.618-89.253 14.863-14.084 43.136-16.33 127.919-6.736 180.518-8.452-4.265-18.337-6.543-28.445-6.555-28.719 0-52 17.909-52 40s23.281 40 52 40 52-17.909 52-40c-6.166-49.187-13.74-115.12-8.225-165.437 37.756-7.722 77.49-17.422 114.688-10.715-4.152 38.294-3.029 82.424 3.379 117.552-8.452-4.265-18.337-6.543-28.446-6.554-28.719 0-52 17.908-52 40 0 22.091 23.281 40 52 40 28.72 0 52-17.909 52-40-4.618-72.485-18.78-132.767.33-196.436-18.491-5.267-40.012-7.365-61.293-7.236zm5.456 15.635c11.697-.073 23.313.706 34.174 2.558-1.185 5.199-2.232 10.67-3.156 16.336-37.913-5.64-78.578 1.385-114.332 9.656a227.233 227.233 0 0 1 3.277-14.884c19.722-7.718 50.145-13.48 80.037-13.666z"/>
    </symbol>
    <symbol id="stone-axe" xmlns="http://www.w3.org/2000/svg" viewBox="0 0 512 512">
        <path fill="none" d="M0 0h512v512H0z"/>
        <path fill="currentColor" d="M165.088 23.9l-36.824 73.973 5.584 60.91 39.248 26.475 50.498-50.498 22.896-85.45-81.402-25.41zm114.648 11.786c-.43.002-.86.025-1.285.068-1.702.172-3.353.668-4.848 1.494-2.992 1.65-5.75 4.55-7.38 10.633l-48.917 182.556L238.72 242.8c1.165.672 2.277 1.388 3.337 2.14L292.94 55.044c3.18-11.877-2.487-16.975-9.32-18.844-1.282-.35-2.59-.523-3.884-.514zm57.21 18.207c-3.527-.127-7.513 1.456-11.86 5.802L305.9 78.88l-14.318 53.442 53.064-53.064c4.454-4.454 5.586-8.292 5.52-11.71-.066-3.416-1.584-6.708-4.102-9.2-2.517-2.492-5.59-4.33-9.117-4.455zm26.34 31.873c-1.507 2.336-3.308 4.59-5.425 6.707l-75.954 75.955-20.474 76.418 70.207 47.36 73.64-90.462 12.173-99.07-54.168-16.908zm72.3 22.568l-11.258 91.607 43.533 33.624 1.61-114.654-33.884-10.576zm-221.666 62.53l-31.15 31.148c-2.114 2.115-3.475 4.195-4.266 6.21 1.064.494 2.12 1.038 3.17 1.643l18.875 10.9 13.37-49.902zm202.605 46.665l-69.332 85.17 23.924 16.136 91.658-65.586-46.25-35.72zm-252.845 5.853c-.34.005-.672.024-.996.056-.866.087-1.678.267-2.452.51-3.095.966-5.83 3.317-7.584 6.495-3.504 6.356-3.73 14.03 5.846 19.56l57.05 32.934c10.648 6.147 17.037 1.992 20.61-4.126 1.787-3.058 2.4-6.632 1.58-9.95-.82-3.316-2.907-6.73-8.36-9.88l-57.046-32.933c-3.475-2.006-6.266-2.7-8.648-2.667zm-23.203 40.783c-.34.005-.672.024-.997.057-.865.087-1.677.268-2.45.51-3.096.967-5.833 3.318-7.585 6.496-3.504 6.354-3.73 14.028 5.844 19.555l57.05 32.938h.002c10.647 6.147 17.035 1.99 20.61-4.127 1.786-3.06 2.4-6.63 1.58-9.948-.82-3.317-2.908-6.733-8.362-9.882l-57.045-32.934c-3.475-2.007-6.266-2.7-8.648-2.666zm-7.334 46.96l-105.54 183.1h59.35l90.73-157.388-44.54-25.713z"/>
    </symbol>
    <symbol id="stone-crafting" xmlns="http://www.w3.org/2000/svg" viewBox="0 0 512 512">
        <path fill="none" d="M0 0h512v512H0z"/>
        <path fill="currentColor" d="M352.75 39.47l-33.094 83.374 111.156 111.28 58.22-58.28L352.75 39.47zm-160.344 5.218c-98.25 66.974-166.87 161.246-169.47 288.906 62.25-119.817 162.457-225.092 255.22-269.75l-85.75-19.157zM97.75 60.156L68.187 89.72c7.276 6.96 14.53 13.893 21.813 20.843 8.887-10.39 18.37-20.35 28.313-29.907l-20.563-20.5zm353.813 0L425.688 86l28.718 28.75c8.91-8.36 17.822-16.728 26.72-25.094l-29.563-29.5zm-263.938 89.75c-9.44 8.552-18.824 17.596-28.063 27.063 25.263 24.13 50.526 48.323 75.688 72.75l26.188-26.126-73.813-73.688zm153.313 20.72L68 443.155l29.313 29.22c83.48-96.13 175.757-186.498 269.812-275.532l-26.188-26.22zm-28.25 104.155c-8.692 8.42-17.35 16.853-25.97 25.314 55.896 55.38 111.166 112.353 165.157 172.437l29.438-29.374L312.688 274.78z"/>
    </symbol>
    <symbol id="wood-axe" xmlns="http://www.w3.org/2000/svg" viewBox="0 0 512 512">
        <path fill="none" d="M0 0h512v512H0z"/>
        <path fill="currentColor" d="M215.344 22.813L205.03 37.906l71.782 46.375 8.938-12.81c-15.62-23.633-44.153-40.97-70.406-48.657zm-38.47 18.843c-28.32 35.34-79.16 105.16-105.718 145.313 61.96 26.364 113.013 69.562 133.22 119.593 5.064 12.54 8.125 25.566 8.78 38.75 36.873-9.75 80.34-36.93 117.25-70.5 30.105-27.38 55.912-59.115 71.406-87.75L176.875 41.655zm240.657 155.53c-16.836 31.038-43.713 63.084-74.717 91.283-40.21 36.57-87.238 66.474-130.47 76.03-1.09 8.278-3.153 16.543-6.343 24.72-8.91 22.832-26.23 44.633-52.656 64.592 64.678 10.955 135.135-13.105 195.844-53.687 64.21-42.923 116.84-104.112 139.28-157.063l-70.937-45.875zM84.814 213.782L16.5 313.72v143.717l135.875-194.812c-18.23-18.513-41.412-35.295-67.563-48.844z"/>
    </symbol>
    <symbol id="wood-beam" xmlns="http://www.w3.org/2000/svg" viewBox="0 0 512 512">
        <path fill="none" d="M0 0h512v512H0z"/>
        <path fill="currentColor" d="M268.4 48.99L42.55 335H82.2l75.9-104.2 14.6 10.6-68.3 93.6h27.5l28.2-30.4-1.6 30.4h116.8L470.9 48.99h-50.6l-150 219.91-14.8-10.2L398.6 48.99h-34.9l-47.8 66.51-14.6-10.6 40.2-55.91zM479 69.08L289 346.8v30.7l68.9-100.8 14.8 10.2L289 409.3v32.3l190-292.3v-11.7l-22 5.8 22-33.3zM32.98 353v110h23.83l10.54-38.1L78.48 463h37.62c-2.2-5.7-3.4-11.8-3.4-18.2 0-18.6 10.4-35 25.9-46.3 15.5-11.2 36.2-17.8 58.9-17.8 22.7 0 43.4 6.6 58.9 17.8 5.6 4.1 10.6 8.9 14.6 14.2V353zm164.52 45.7c-19.2 0-36.4 5.7-48.3 14.4-12 8.7-18.5 19.8-18.5 31.7 0 6.4 1.9 12.5 5.5 18.2h16.3c-3.3-4.7-5.4-10.1-5.4-16.1 0-11.2 7.1-20.4 16.5-26.3 9.3-6 21.3-9.2 34.4-9.2 13.1 0 25.1 3.2 34.4 9.2 9.4 5.9 16.5 15.1 16.5 26.3 0 6-2.1 11.4-5.4 16.1h15.3c3.6-5.7 5.5-11.8 5.5-18.2 0-11.9-6.5-23-18.5-31.7-11.9-8.7-29.1-14.4-48.3-14.4zm.5 30.7c-10 0-19 2.7-24.8 6.4-5.8 3.7-8.1 7.6-8.1 11.1s2.3 7.4 8.1 11.1c3.3 2.1 7.6 3.9 12.5 5h24.6c4.9-1.1 9.2-2.9 12.5-5 5.8-3.7 8.1-7.6 8.1-11.1s-2.3-7.4-8.1-11.1c-5.8-3.7-14.8-6.4-24.8-6.4z"/>
    </symbol>
    <symbol id="wood-cabin" xmlns="http://www.w3.org/2000/svg" viewBox="0 0 512 512">
        <path fill="none" d="M0 0h512v512H0z"/>
        <path fill="currentColor" d="M495.145 15.451l-178.215.205s7.918 25.215 15.652 35.63c13.155 17.712 67.295 2.752 59.79 35.714h55.4c6.995-6.98 14.212-15.862 15.064-23.44 1.035-9.207-15.175-16.126-12.29-24.931 5.22-15.92 44.599-23.178 44.599-23.178zM256 28.311L30.455 238.82l32.666 21.777L256 83.79l192.879 176.807 32.666-21.778L256 28.31zM393 105v26.555l46 42.933V105h-46zm-137 3.209L209.318 151h93.364L256 108.209zM189.682 169l-32.727 30H279v-30h-89.318zM297 169v30h58.045l-32.727-30H297zm-159.682 48l-34.564 31.684 64.246-.288V217h-29.682zM185 217v31.316l222.76-.994L374.682 217H185zm242.303 48.236L83.02 266.773l-18.141 16.63-.932-.622A31.64 31.64 0 0 1 60.737 295H451.263a31.64 31.64 0 0 1-3.211-12.219l-.932.621-19.818-18.166zM32 267c-7.839 0-14 6.161-14 14s6.161 14 14 14 14-6.161 14-14-6.161-14-14-14zm448 0c-7.839 0-14 6.161-14 14s6.161 14 14 14 14-6.161 14-14-6.161-14-14-14zM59.656 313a31.659 31.659 0 0 1 1.08 30H103v-30H59.656zM121 313v78h46v-78h-46zm64 0v78h46v-78h-46zm64 0v30h30v-30h-30zm48 0v174h94V313h-94zm112 0v30h42.264a31.659 31.659 0 0 1 1.08-30H409zm-377 2c-7.839 0-14 6.161-14 14s6.161 14 14 14 14-6.161 14-14-6.161-14-14-14zm448 0c-7.839 0-14 6.161-14 14s6.161 14 14 14 14-6.161 14-14-6.161-14-14-14zM59.656 361a31.659 31.659 0 0 1 1.08 30H103v-30H59.656zM249 361v30h30v-30h-30zm160 0v30h42.264a31.659 31.659 0 0 1 1.08-30H409zm-377 2c-7.839 0-14 6.161-14 14s6.161 14 14 14 14-6.161 14-14-6.161-14-14-14zm448 0c-7.839 0-14 6.161-14 14s6.161 14 14 14 14-6.161 14-14-6.161-14-14-14zm-128 28h22v18h-22v-18zM59.656 409a31.659 31.659 0 0 1 1.08 30H279v-30H59.656zM409 409v30h42.264a31.659 31.659 0 0 1 1.08-30H409zm-377 2c-7.839 0-14 6.161-14 14s6.161 14 14 14 14-6.161 14-14-6.161-14-14-14zm448 0c-7.839 0-14 6.161-14 14s6.161 14 14 14 14-6.161 14-14-6.161-14-14-14zM32 457c-7.839 0-14 6.161-14 14s6.161 14 14 14 14-6.161 14-14-6.161-14-14-14zm28.736 0a31.659 31.659 0 0 1-1.08 30H87v-30H60.736zM105 457v30h174v-30H105zm304 0v30h43.344a31.659 31.659 0 0 1-1.08-30H409zm71 0c-7.839 0-14 6.161-14 14s6.161 14 14 14 14-6.161 14-14-6.161-14-14-14z"/>
    </symbol>
</svg>

