<svg width="0" height="0" fill="none" style="visibility: hidden; position: absolute;" aria-hidden="true">
    <symbol id="rpsvg_adventure_map" enable-background="new 0 0 512 512" viewBox="0 0 512 512" xml:space="preserve" xmlns="http://www.w3.org/2000/svg">
        <circle cx="72.542" cy="63.845" fill="#FFBF76" r="21.845"/>
        <path d="M67.61,42.58c-9.686,2.238-16.914,10.899-16.914,21.265c0,10.366,7.228,19.026,16.913,21.265 c5.729-5.294,9.337-12.849,9.337-21.265S73.338,47.875,67.61,42.58z" fill="#FFD9BE"/>
        <linearGradient gradientUnits="userSpaceOnUse" id="SVGID_1___adventure_map" x1="218.9883" x2="332.9009" y1="185.4399" y2="529.0007">
            <stop offset="0.0103" style="stop-color:#A84A78"/>
            <stop offset="1" style="stop-color:#C36C9A"/>
        </linearGradient>
        <path d="M8.963,317.887C48.476,291.35,179.168,203.231,215.1,174.655c4.479-3.562,10.441-4.596,15.853-2.734 c25.923,8.92,101.317,34.708,135.479,44.713c4.355,1.276,6.545,6.113,4.659,10.242l-15.641,34.246l40.942-27.861 c2.646-1.801,5.971-2.272,9.009-1.265c14.693,4.872,60.127,19.768,94.329,29.163c6.722,1.846,9.011,10.193,4.152,15.191 c-23.237,23.902-77.256,79.354-99.357,101.067c-1.247,1.225-2.875,1.968-4.617,2.11l-29.851,2.438l8.77,7.972 c3.169,2.881,3.272,7.827,0.216,10.827c-13.654,13.409-48.672,47.802-65.389,64.268c-5.209,5.133-13.076,6.426-19.657,3.238 l-126.162-61.087c-3.18-1.54-4.842-5.1-3.981-8.526l3.693-14.7l-29.756,15.281c-2.376,1.22-5.203,1.087-7.444-0.366 c-13.158-8.533-61.13-38.897-120.383-67.474C4.525,328.773,3.95,321.254,8.963,317.887z" fill="url(#SVGID_1___adventure_map)"/>
        <path d="M435.011,289.653c4.71-4.418,3.083-12.237-3.001-14.401c-15.798-5.621-38.645-13.965-63.401-23.084 l-13.158,8.954l5.396-11.815c-50.595-18.666-106.828-39.678-126.805-47.151c-4.681-1.751-9.903-0.994-13.885,2.027 c-30.374,23.037-117.562,87.625-146.712,109.202c-3.983,2.949-3.176,9.13,1.445,10.922c26.648,10.333,69.443,33.023,69.443,33.023 c38.745,20.909,114.45,51.946,139.998,62.263c5.277,2.131,11.272,0.998,15.414-2.906 C329.742,388.406,406.973,315.951,435.011,289.653z" fill="#FFE7D0"/>
        <path d="M313.844,352.27l-11.662-10.465c-0.823-0.738-1.956-1.027-3.033-0.772l-19.018,4.504l-9.876-10.673 c-0.809-0.873-2.016-1.256-3.179-1.01l-15.138,3.212c-2.488,0.527-3.521,3.511-1.893,5.464l7.053,8.462l-20.123,4.766 c-2.599,0.615-3.488,3.86-1.566,5.716l10.987,10.602c0.827,0.798,2.003,1.121,3.122,0.855l21.608-5.109l11.178,13.411 c0.868,1.042,2.274,1.462,3.572,1.069l16.928-5.122c2.387-0.723,3.193-3.694,1.499-5.525l-8.866-9.581l16.93-4.004 C315.019,357.441,315.873,354.09,313.844,352.27z" fill="#C14C82"/>
        <ellipse cx="231.374" cy="233.066" fill="#C14C82" rx="10.692" ry="9.737" transform="matrix(0.9645 0.2639 -0.2639 0.9645 69.714 -52.8006)"/>
        <path clip-rule="evenodd" d="M310.201,301.695l-10.238,0.115 c0.04,6.678-0.657,13.466-2.095,20.193l10.029,2.063C309.451,316.771,310.251,309.257,310.201,301.695z" fill="#C14C82" fill-rule="evenodd"/>
        <path clip-rule="evenodd" d="M298.315,262.896l-8.312,5.979 c3.688,5.231,6.505,11.084,8.043,17.41l9.919-2.54C306.146,276.293,302.773,269.186,298.315,262.896z" fill="#C14C82" fill-rule="evenodd"/>
        <path clip-rule="evenodd" d="M265.768,238.878l-3.554,9.602 c6.178,2.325,12.101,5.465,17.21,9.495l6.286-8.083C279.678,245.152,272.88,241.553,265.768,238.878z" fill="#C14C82" fill-rule="evenodd"/>
        <path d="M73.542,93.448c4.081-4.909,12.269-11.751,26.009-11.311c2.882,0.092,5.521,1.679,7.101,4.091l43.702,66.754 l-40.028,23.814c0,0-23.957-41.924-38.043-73.935C70.901,99.726,71.351,96.084,73.542,93.448z" fill="#B75798"/>
        <path d="M71.857,102.551c4.146-5.862,14.205-16.875,31.621-17.626c2.262-0.098,3.547-2.607,2.206-4.431l-1.205-1.639 c-3.149-4.283-8.559-6.316-13.717-5.03c-5.939,1.48-13.967,4.725-21.546,11.822c-4.655,4.358-5.476,11.472-2.003,16.821l0.013,0.021 C68.306,104.154,70.71,104.172,71.857,102.551z" fill="#FFD9BE"/>
        <path d="M113.882,174.682l36.472-21.698l-43.702-66.754c-1.58-2.413-4.219-3.999-7.101-4.091 c-2.83-0.091-5.368,0.186-7.739,0.633C106.99,100.186,134.428,139.13,113.882,174.682z" fill="#7F2467"/>
        <path d="M89.876,87.922c3.914-1.632,8.425-2.774,13.601-2.997c2.262-0.098,3.547-2.607,2.206-4.431l-1.205-1.639 c-3.149-4.283-8.559-6.316-13.717-5.03c-1.687,0.42-3.554,1.005-5.52,1.758C87.703,78.124,90.149,82.149,89.876,87.922z" fill="#FFBF76"/>
        <linearGradient gradientUnits="userSpaceOnUse" id="SVGID_2___adventure_map" x1="183.4746" x2="129.2596" y1="256.2935" y2="166.6726">
            <stop offset="0" style="stop-color:#FFFFFF"/>
            <stop offset="1" style="stop-color:#C7DAFF"/>
        </linearGradient>
        <path d="M106.229,191.664c0,0,37.804,65.307,57.192,88.266h55.103c0,0-38.314-93.878-56.147-121.94 L106.229,191.664z" fill="url(#SVGID_2___adventure_map)"/>
        <linearGradient gradientUnits="userSpaceOnUse" id="SVGID_3___adventure_map" x1="106.2285" x2="218.5234" y1="218.9595" y2="218.9595">
            <stop offset="0" style="stop-color:#819FEA"/>
            <stop offset="1" style="stop-color:#A7C1FC"/>
        </linearGradient>
        <path d="M218.523,279.93c0,0-38.314-93.878-56.147-121.94l-56.147,33.674c0,0,0.684,1.179,1.885,3.231 c14.962,4.643,42.24,13.606,42.24,13.606l40.406,71.429H218.523z" fill="url(#SVGID_3___adventure_map)"/>
        <path d="M61.608,198.513l128.116-71.255c3.678-2.046,8.089-2.519,12.027-1.035c3.902,1.47,8.382,4.226,10.667,9.368 c0,0,0.076,0.159,0.197,0.455c5.552,13.566-8.891,27.15-22.021,20.633c-1.241-0.616-2.434-1.364-3.508-2.274 c-2.021-1.711-4.872-2.014-7.157-0.676l-9.544,5.587c-1.087,0.636-1.954,1.589-2.485,2.732l-14.96,32.203 c-1.562,3.361-5.012,5.433-8.713,5.232l-41.098-2.235c-1.099-0.06-2.193,0.174-3.171,0.679l-10.602,5.468 c-2.282,1.177-3.611,3.625-3.308,6.174c0.29,2.436,0.392,5.809-0.325,9.673c-1.353,7.297-8.325,12.188-15.646,10.969 c-0.151-0.025-0.303-0.051-0.455-0.078c-11.988-2.141-19.315-15.157-13.641-25.931c0.282-0.536,0.593-1.063,0.936-1.578 C58.083,200.873,59.771,199.535,61.608,198.513z" fill="#FFD9BE"/>
        <path d="M152.939,194.25l14.961-32.203c0.531-1.143,1.397-2.096,2.485-2.732l9.544-5.586 c2.285-1.338,5.137-1.035,7.157,0.677c1.074,0.909,2.267,1.657,3.508,2.273c13.13,6.517,27.573-7.067,22.021-20.633 c-0.121-0.295-0.197-0.455-0.197-0.455c-2.285-5.142-6.766-7.898-10.667-9.368c-3.938-1.484-8.349-1.011-12.027,1.035 l-60.711,33.767c5.314,6.163,14.505,19.278,17.27,38.31C149.16,198.827,151.674,196.975,152.939,194.25z" fill="#FFBF76"/>
        <linearGradient gradientUnits="userSpaceOnUse" id="SVGID_4___adventure_map" x1="147.1084" x2="236.5098" y1="279.709" y2="279.709">
            <stop offset="0.0103" style="stop-color:#A84A78"/>
            <stop offset="1" style="stop-color:#C36C9A"/>
        </linearGradient>
        <path d="M148.047,280.744c-1.222-0.104-1.265-1.882-0.048-2.033c8.67-1.077,23.229-2.506,40.548-2.693 c0,0,25.725-0.773,47.108,2.572c1.186,0.186,1.117,1.924-0.078,2.032c-10.809,0.978-31.43,2.667-46.784,2.856 c-0.024,0-0.023,0.001-0.048,0C188.156,283.447,165.795,282.267,148.047,280.744z" fill="url(#SVGID_4___adventure_map)"/>
    </symbol>
    <symbol id="rpsvg_armor" enable-background="new 0 0 512 512" viewBox="0 0 512 512" xml:space="preserve" xmlns="http://www.w3.org/2000/svg">
        <linearGradient gradientUnits="userSpaceOnUse" id="SVGID_1___armor" x1="255.8799" x2="255.8799" y1="467.6563" y2="161.3456">
            <stop offset="0" style="stop-color:#CC5697"/>
            <stop offset="1" style="stop-color:#8E3979"/>
        </linearGradient>
        <path d="M388.938,78.947c-0.751-10.932-9.838-19.415-20.796-19.415H255.88H146.103 c-10.889,0-19.942,8.381-20.782,19.237l-22.314,288.333c-0.343,18.889,7.863,36.955,22.436,48.979 c23.437,19.34,64.007,48.741,117.906,72.305c7.975,3.485,17.09,3.485,25.064,0c53.898-23.563,94.469-52.965,117.906-72.305 c14.571-12.024,22.777-30.091,22.435-48.979L388.938,78.947z" fill="url(#SVGID_1___armor)"/>
        <path d="M356.442,214.607c0,0-10.946,47.027-8.96,87.547c0.211,4.291-1.557,8.439-4.703,11.364 c-7.137,6.634-21.877,19.222-45.183,34.054C297.597,347.572,287.265,238.415,356.442,214.607z" fill="#819FEA"/>
        <path d="M155.558,214.607c0,0,10.946,47.027,8.96,87.547c-0.211,4.291,1.557,8.439,4.703,11.364 c7.137,6.634,21.877,19.222,45.183,34.054C214.403,347.572,224.735,238.415,155.558,214.607z" fill="#FFFFFF"/>
        <path d="M177.839,321.074c8.249,6.908,20.268,16.127,36.564,26.498c0,0,4.458-63.892-26.219-110.058 C194.31,270.041,204.554,304.594,177.839,321.074z" fill="#C7DAFF"/>
        <path d="M207.234,264.084c-7.671-25.656-22.669-39.494-51.677-49.477c0,0,1.371,5.901,3.054,15.3 C165.591,234.505,185.254,245.484,207.234,264.084z" fill="#819FEA"/>
        <path d="M116.606,36.749l26.591,26.97c6.084,6.172,9.468,14.51,9.303,23.175 c-0.514,26.892-9.313,82.28-73.291,80.748c0,0-50.864,0.458-74.052-54.041c-1.841-4.327,0.654-9.321,5.194-10.545 c17.79-4.794,59.726-20.167,87.783-63.17c1.999-3.065,5.022-5.448,8.61-6.168C109.765,33.111,113.379,33.475,116.606,36.749z" fill="#FFFFFF"/>
        <path d="M27.277,110.997c28.994,0.741,55.828-14.918,71.089-39.582c6.293-10.169,11.858-23.088,13.021-37.676 c-1.611-0.368-3.196-0.313-4.643-0.022c-3.588,0.72-6.611,3.104-8.61,6.168c-28.058,43.003-69.993,58.376-87.783,63.17 c-2.512,0.677-4.359,2.522-5.23,4.756C10.365,109.21,18.101,110.762,27.277,110.997z" fill="#819FEA"/>
        <path d="M303.908,278.139c16.354-23.814,40.549-41.418,49.322-47.337c1.754-9.918,3.212-16.194,3.212-16.194 C326.342,224.966,311.304,251.485,303.908,278.139z" fill="#819FEA"/>
        <path d="M342.588,224.278c-32.667,18.659-86.505,57.548-86.718,57.702c-0.214-0.154-54.052-39.043-86.718-57.702 c-0.449-0.256-0.907,0.319-0.553,0.697c8.948,9.546,41.252,49.083,38.004,119.423c-0.146,3.172,1.218,6.215,3.757,8.123 c7.341,5.518,24.104,17.219,45.499,26.486c0,0,38.314-21.045,45.52-26.486c2.534-1.914,3.903-4.951,3.757-8.123 c-3.247-70.341,29.056-109.877,38.005-119.423C343.494,224.598,343.036,224.022,342.588,224.278z" fill="#FFFFFF"/>
        <path d="M342.611,224.265c-32.664,18.654-86.528,57.562-86.741,57.716h-0.001v38.471 c0,16.534-12.903,30.654-29.433,31.092c-7.447,0.197-14.444-1.239-18.877-2.434c0.64,1.337,1.575,2.53,2.801,3.451 c7.344,5.52,24.114,17.227,45.52,26.494v-0.059c0.394-0.217,38.331-21.063,45.499-26.475c2.534-1.914,3.903-4.951,3.757-8.123 c-3.248-70.352,29.065-109.889,38.009-119.428C343.496,224.596,343.058,224.01,342.611,224.265z" fill="#C7DAFF"/>
        <path d="M342.588,224.278c-32.667,18.659-86.505,57.548-86.718,57.702c-0.214-0.154-54.052-39.043-86.718-57.702 c-0.449-0.256-0.907,0.319-0.553,0.697c2.576,2.749,10.676,13.794,15.719,21.535c17.398,12.146,39.061,28.756,71.551,53.881 c33.421-25.125,53.443-38.088,69.701-47.27c5.043-7.741,14.993-25.397,17.57-28.146 C343.494,224.598,343.036,224.022,342.588,224.278z" fill="#819FEA"/>
        <path d="M369.938,185.458c-22.293,17.219-114.047,47.054-114.059,47.058c-0.012-0.004-91.766-29.839-114.058-47.058 c-0.604-0.467-1.422,0.15-1.145,0.862l10.185,26.186c1.072,2.756,2.933,5.135,5.348,6.841l99.67,70.385v0.001v-0.001l0.001,0.001 v-0.001l99.669-70.385c2.415-1.706,4.275-4.085,5.348-6.841l10.185-26.186C371.358,185.608,370.541,184.991,369.938,185.458z" fill="#FFFFFF"/>
        <path d="M230.004,271.46l25.876,18.273v-57.218c0,0-42.604-13.856-76.808-28.133 C198.101,219.646,220.619,242.681,230.004,271.46z" fill="#DEEEFF"/>
        <path d="M200.478,21c0,0-7.829,27.402,15.249,49.317c3.152,2.994,3.933,7.729,2.077,11.661l-19.554,41.44 c0,0-48.083,2.246-65.152-28.3l1.797-27.851C134.895,67.269,165.439,36.273,200.478,21z" fill="#819FEA"/>
        <path d="M126.809,61.429c0,0,17.573-21.002,43.798-31.972c4.344-1.817,9.259,0.783,10.108,5.414 c1.623,8.854,4.073,23.56,5.553,38.841c1.926,19.875-13.67,37.717-33.636,37.436c-0.911-0.013-1.843-0.054-2.793-0.125 L126.809,61.429z" fill="#8C266B"/>
        <path d="M311.522,21c0,0,7.829,27.402-15.249,49.317c-3.152,2.994-3.933,7.729-2.077,11.661l19.554,41.44 c0,0,48.083,2.246,65.152-28.3l-1.797-27.851C377.105,67.269,346.56,36.273,311.522,21z" fill="#819FEA"/>
        <path d="M385.191,61.429c0,0-17.573-21.002-43.798-31.972c-4.344-1.817-9.259,0.783-10.108,5.414 c-1.623,8.854-4.073,23.56-5.554,38.841c-1.925,19.875,13.671,37.717,33.637,37.436c0.911-0.013,1.843-0.054,2.793-0.125 L385.191,61.429z" fill="#8C266B"/>
        <path d="M319.83,37.695c-1.206-5.692-3.748-11.557-8.549-16.695c0,0-12.986,29.232-55.401,29.232 C213.464,50.232,200.479,21,200.479,21c-4.802,5.139-7.344,11.003-8.55,16.695c-4.11,19.405,7.276,38.972,25.778,46.123 c17.945,6.936,38.173,6.229,38.173,6.229s20.228,0.707,38.172-6.229C312.554,76.667,323.941,57.101,319.83,37.695z" fill="#5071BA"/>
        <path d="M304.814,81.771c-2.042-3.973-6.135-6.471-10.602-6.471H255.88h-38.334c-4.467,0-8.559,2.498-10.601,6.471 l-17.887,34.796c25.455,28.54,66.821,34.325,66.821,34.325s41.366-5.785,66.82-34.325L304.814,81.771z" fill="#FFFFFF"/>
        <path d="M322.7,116.567l-17.886-34.796c-2.042-3.973-6.135-6.471-10.602-6.471H255.88v75.592 C255.88,150.892,297.246,145.106,322.7,116.567z" fill="#C7DAFF"/>
        <path d="M315.114,101.341c-5.009,2.546-14.495,7.24-26.536,12.1c-21.017,8.482-44.463,8.468-65.458-0.066 c-11.898-4.836-21.248-9.5-26.234-12.034l-7.827,15.226c25.455,28.54,66.821,34.325,66.821,34.325s41.606-5.785,67.062-34.325 L315.114,101.341z" fill="#819FEA"/>
        <path d="M369.938,185.458c-22.291,17.218-114.037,47.05-114.058,47.058v57.217l99.669-70.385 c2.415-1.706,4.275-4.085,5.348-6.841l10.185-26.186C371.358,185.608,370.541,184.991,369.938,185.458z" fill="#C7DAFF"/>
        <path d="M369.938,185.458c-22.293,17.219-114.047,47.054-114.059,47.058c-0.012-0.004-91.766-29.839-114.058-47.058 c-0.604-0.467-1.422,0.15-1.145,0.862l5.248,13.494c17.483,9.881,74.367,41.479,109.944,54.778c0,0,67.738-26.227,109.907-54.633 l5.305-13.639C371.358,185.608,370.541,184.991,369.938,185.458z" fill="#819FEA"/>
        <path d="M411.631,157.347l-39.61-47.533c-5.513-6.614-13.677-10.438-22.287-10.438c-5.98,0-11.813,1.822-16.69,5.284 c-13.251,9.407-43.496,28.746-77.164,35.94c-33.669-7.195-63.915-26.534-77.165-35.94c-4.877-3.462-10.71-5.284-16.69-5.284 c-8.61,0-16.775,3.824-22.287,10.438l-39.611,47.533c53.449,55.381,155.752,83.093,155.752,83.093S358.182,212.728,411.631,157.347z " fill="#FFFFFF"/>
        <path d="M176.761,209.076c-20.626-17.934-32.199-44.612-29.381-71.799c1.944-18.757,9.89-31.254,15.371-37.847 c-0.244-0.006-0.482-0.056-0.728-0.056c-8.61,0-16.775,3.824-22.287,10.438l-39.611,47.533 c21.657,22.44,51.325,40.332,78.962,53.681C178.299,210.378,177.51,209.728,176.761,209.076z" fill="#C7DAFF"/>
        <path d="M255.88,240.439v-56.871c-3.71,21.197-14.596,43.046-43.805,41.863 C237.4,235.424,255.88,240.439,255.88,240.439z" fill="#C7DAFF"/>
        <path d="M411.631,157.347l-39.61-47.533c-5.513-6.614-13.677-10.438-22.287-10.438c-5.98,0-11.813,1.822-16.69,5.284 c-13.251,9.407-43.496,28.746-77.164,35.94v99.84C255.906,240.431,358.189,212.721,411.631,157.347z" fill="#C7DAFF"/>
        <path d="M152.5,86.894c0.165-8.666-3.219-17.003-9.303-23.175l-26.591-26.97c-3.228-3.274-6.842-3.638-9.861-3.032 c-0.171,0.035-0.323,0.118-0.491,0.159c-1.749,7.44-3.271,14.286-3.258,15.535c0.764,72.478-27.937,103.65-42.92,114.971 c11.111,3.318,19.133,3.259,19.133,3.259C143.188,169.174,151.986,113.786,152.5,86.894z" fill="#DEEEFF"/>
        <path d="M106.745,33.717c-3.588,0.72-6.611,3.104-8.61,6.168c-8.959,13.73-19.333,24.619-29.884,33.271 c9.452-1.689,19.37-1.866,28.165,1.201c0.658-0.974,1.329-1.938,1.95-2.942c6.293-10.169,11.858-23.088,13.021-37.676 C109.776,33.371,108.191,33.427,106.745,33.717z" fill="#819FEA"/>
        <path d="M395.394,36.749l-26.591,26.97c-6.084,6.172-9.468,14.51-9.303,23.175 c0.514,26.892,9.313,82.28,73.291,80.748c0,0,50.864,0.458,74.052-54.041c1.841-4.327-0.654-9.321-5.194-10.545 c-17.79-4.794-59.727-20.167-87.783-63.17c-1.999-3.065-5.022-5.448-8.61-6.168C402.235,33.111,398.621,33.475,395.394,36.749z" fill="#FFFFFF"/>
        <path d="M501.648,103.056c-17.79-4.794-59.727-20.167-87.783-63.17c-1.999-3.065-5.022-5.448-8.61-6.168 c-0.254-0.051-0.519-0.083-0.78-0.12c10.393,19.826,36.815,78.861,16.63,133.646c3.678,0.351,7.563,0.498,11.687,0.399 c0,0,50.864,0.458,74.052-54.041C508.684,109.274,506.188,104.279,501.648,103.056z" fill="#DEEEFF"/>
        <path d="M484.723,110.997c-28.994,0.741-55.828-14.918-71.09-39.582c-6.292-10.169-11.857-23.088-13.021-37.676 c1.612-0.368,3.196-0.313,4.643-0.022c3.588,0.72,6.611,3.104,8.61,6.168c28.058,43.003,69.992,58.376,87.783,63.17 c2.512,0.677,4.359,2.522,5.23,4.756C501.635,109.21,493.899,110.762,484.723,110.997z" fill="#819FEA"/>
        <path d="M292.473,148.836c-7.966-2.337-16.68,2.919-20.912,8.367c-0.465,0.598-0.765,1.226-0.959,1.859 c-4.807,14.603,4.693,22.51,5.298,22.794c7.002,5.544,14.308-5.699,16.802-10.932C295.558,164.93,300.758,151.267,292.473,148.836z" fill="#FFFFFF"/>
        <path d="M312.383,135.831c-0.145,0-0.289,0-0.434,0c-2.791,0-5.464,2.453-5.335,5.334 c0.13,2.89,2.345,5.334,5.335,5.334c0.145,0,0.289,0,0.434,0c2.791,0,5.464-2.454,5.335-5.334 C317.588,138.274,315.374,135.831,312.383,135.831z" fill="#FFFFFF"/>
    </symbol>
    <symbol id="rpsvg_crystal_shard" enable-background="new 0 0 512 512" viewBox="0 0 512 512" xml:space="preserve" xmlns="http://www.w3.org/2000/svg">
        <polygon fill="#5B153E" points="286.189,10.023 197.834,96.197 161.838,233.639 216.378,455.071 293.825,501.977 308.006,451.799 337.457,139.829"/>
        <linearGradient gradientUnits="userSpaceOnUse" id="SVGID_1___crystal_shard" x1="352.6113" x2="198.4708" y1="409.2539" y2="40.8847">
            <stop offset="0" style="stop-color:#CC5697"/>
            <stop offset="1" style="stop-color:#E585BE"/>
        </linearGradient>
        <polygon fill="url(#SVGID_1___crystal_shard)" points="337.457,139.829 282.917,80.926 207.651,185.643 293.825,501.977 308.006,451.8"/>
        <polygon fill="#F49FD3" points="337.457,139.829 337.457,139.829 286.189,10.023 282.917,80.926"/>
        <polygon fill="#A03774" points="282.917,80.926 286.189,10.023 197.834,96.197 207.651,185.643"/>
        <polygon fill="#A03774" points="207.651,185.643 216.378,455.071 293.825,501.977"/>
        <path d="M135.817,47.732c0,0,2.546,24.612-17.54,35.928c0,0,20.086,6.602,21.218,30.459 c0,0,0.849-27.347,16.407-35.551C155.902,78.568,138.363,71.496,135.817,47.732z" fill="#FFE9FB"/>
        <path d="M373.637,222.807c0,0,2.547,24.611-17.539,35.928c0,0,20.086,6.602,21.217,30.459 c0,0,0.849-27.347,16.408-35.551C393.723,253.643,376.184,246.57,373.637,222.807z" fill="#FFE9FB"/>
        <path d="M154.63,356.787c0,0,2.546,24.612-17.54,35.929c0,0,20.086,6.602,21.218,30.459 c0,0,0.849-27.347,16.408-35.551C174.716,387.624,157.176,380.551,154.63,356.787z" fill="#FFE9FB"/>
    </symbol>
    <symbol id="rpsvg_destructive_magic" enable-background="new 0 0 512 512" viewBox="0 0 512 512" xml:space="preserve" xmlns="http://www.w3.org/2000/svg">
        <path d="M263.309,454.193c0,0,0.673,0.049,1.843,0.076c12.185,0.285,24.129-3.425,34.153-10.357l16.264-11.245 c6.631-4.585,16.039-2.358,19.379,4.979c0.049,0.106,0.097,0.214,0.145,0.323l-37.222,24.52l-23.216,3.564 C274.654,466.053,264.088,460.25,263.309,454.193z" fill="#A06260"/>
        <path d="M307.154,475.534c0,0,22.242-15.151,39.766-24.509c9.105-4.863,5.165-18.961-5.126-18.138 c-0.152,0.013-0.307,0.026-0.462,0.042c-1.301,0.129-2.541,0.621-3.66,1.296l-31.819,19.183c-3.87,2.332-7.971,4.235-12.272,5.619 c-6.594,2.121-16.397,4.363-26.627,3.461C266.953,462.488,291.181,474.735,307.154,475.534z" fill="#BA8280"/>
        <linearGradient gradientUnits="userSpaceOnUse" id="SVGID_1___destructive_magic" x1="236.272" x2="236.272" y1="378.9619" y2="-21.0057">
            <stop offset="0.0154" style="stop-color:#E54254"/>
            <stop offset="1" style="stop-color:#FF94A6"/>
        </linearGradient>
        <path d="M234.971,403.179c-4.015,0.598-8.112-0.687-10.979-3.562c-8.273-8.297-28.464-25.216-57.628-27.833 c0,0-13.959-0.416-19.443-7.687c0,0-31.938-44.375-19.604-92.033c0.662-2.557,3.857-3.46,5.735-1.604 c2.007,1.982,4.597,4.222,7.339,5.753c3.01,1.681,6.687,1.531,9.573-0.354c3.594-2.348,9.323-6.406,14.302-11.344 c7.528-7.467,10.891-18.475,7.664-28.575c-2.004-6.273-6.501-12.556-16.106-15.33c-2.145-0.619-3.374-2.786-2.687-4.91 c2.493-7.704,8.679-24.69,17.678-35.161c1.406-1.636,3.396-2.639,5.553-2.718c9.439-0.342,38.737-3.31,55.638-26.404 c2.403-3.284,4.325-6.939,5.36-10.875c2.128-8.099,1.968-20.999-18.156-25.506c0,0-24.014-5.447-11.965-31.907 c0,0,6.066-15.166,20.844-24.336c2.317-1.438,5.205,0.835,4.316,3.413c-1.918,5.567-4.014,13.471-3.305,19.949 c0.572,5.227,4.496,9.46,9.629,10.598c10.313,2.286,39.395,11.786,38.67,46.165c-0.064,3.038-2.067,5.662-4.898,6.764 c-7.93,3.087-22.573,13.607-12.852,48.38c0,0,6.104,20.264,23.438,20.996c11.066,0.467,12.518-8.555,12.566-12.992 c0.014-1.226,1.127-2.127,2.314-1.82c10.018,2.593,47.709,14.878,50.068,53.387c0.221,3.597-1.055,7.163-3.471,9.837 c-8.768,9.706-28.27,36.122-7.389,60.622c3.018,3.54,3.631,8.533,1.811,12.813c-6.797,15.989-27.508,51.355-80.682,62.798 L234.971,403.179z" fill="url(#SVGID_1___destructive_magic)"/>
        <path d="M303.576,176.95c0,5.395-3.225,9.769-8.619,9.769c-5.396,0-9.77-4.374-9.77-9.769s4.373-9.769,9.77-9.769 C300.352,167.181,303.576,171.555,303.576,176.95z" fill="#FF697B"/>
        <path d="M257.586,12.486c-1.79-1.826-4.662-2.179-6.729-0.673c-2.655,1.935-5.849,6.328-6.288,16.295 c0,0,0.276,4.233-0.702,8.298c-0.583,2.418,1.625,4.542,4.007,3.823c0.347-0.105,0.702-0.22,1.062-0.346 c8.813-3.069,14.109-12.57,11.771-21.605C260.16,16.167,259.195,14.129,257.586,12.486z" fill="#FF94A6"/>
        <path d="M228.887,218.66c-3.488,4.791-7.526,11.104-9.616,17.063c-0.644,1.835-0.331,3.872,0.834,5.43 c3.505,4.684,8.993,16.998-13.984,31.788c0,0-21.642,11.159-21.98,33.816c0,0,0.37,41.326,39.769,51.081 c6.043,1.497,12.307,1.846,18.524,1.522c5.823-0.304,13.667-1.106,20.454-3.163c2.926-0.887,5.437-2.744,7.326-5.148 c3.302-4.2,9.441-11.396,16.186-16.224c3.195-2.288,5.554-5.521,6.473-9.343c2.129-8.861,3.688-25.211-7.575-40.405 c-1.005-1.356-3.08-1.349-3.95,0.098c-2.135,3.543-6.619,8.734-14.24,7.767c-7.121-0.904-13.057-8.163-13.099-15.341 c-0.028-4.796,1.679-9.584,8.299-10.383c2.085-0.251,3.265-2.554,2.315-4.427c-2.395-4.716-7.922-12.129-20.094-16.619 c-6.014-2.219-10.78-7.121-12.016-13.41c-0.655-3.332-0.791-7.471,0.101-12.535C232.995,218.058,230.183,216.88,228.887,218.66z" fill="#FBB04D"/>
        <path d="M225.334,195.891c0,3.575-4.305,7.739-7.88,7.739s-6.473-2.898-6.473-6.473s5.149-9.005,8.724-9.005 S225.334,192.316,225.334,195.891z" fill="#FBB04D"/>
        <path d="M342.029,432.871c-0.152,0.01-0.383,0.029-0.57,0.047c-1.233,0.115-2.554,0.565-3.673,1.24l-31.752,19.25 c-3.87,2.332-7.971,4.235-12.272,5.619c-6.066,1.952-14.859,3.975-24.191,3.587l5.262,3.436c0.002,0.001,0.005,0.003,0.008,0.004 c0.044,0.011,14.446,3.616,34.828-8.184l29.317-18.842c3.038-1.952,6.478-3.285,10.075-3.604 C349.061,435.424,346.736,432.598,342.029,432.871z" fill="#DDAEA9"/>
        <path d="M129.095,449.737c0,10.48,0,30.083,0,40.638c0,4.355,3.07,8.094,7.349,8.902 c12.418,2.346,32.791,4.867,64.936-8.834c0,0,29.715-14.66,67.714-3.688c0,0,25.5,7.594,47.98,8.898 c5.258,0.307,10.402-1.454,14.363-4.927c9.025-7.913,28.203-23.331,49.91-32.364c8.446-3.517,8.148-15.705-0.467-18.785 c-0.704-0.252-1.436-0.476-2.195-0.667c-1.852-0.466-3.785-0.419-5.601,0.169c-6.38,2.07-24.247,8.383-39.004,18.459 c-9.546,6.518-21.147,9.26-32.546,7.342c-14.113-2.376-32.765-7.367-47.639-17.845c-8.29-5.839-11.988-16.719-7.716-25.915 c0.81-1.741,1.865-3.37,3.237-4.742c0,0,27.164-25.566,42.453-40.354c3.648-3.527,1.955-9.654-2.973-10.868 c-6.752-1.663-15.916-2.034-24.285,3.944l-26.939,23.571c-2.742,2.399-6.267,3.674-9.909,3.555 c-12.952-0.425-46.76,2.56-70.525,41.408c-1.706,2.788-4.627,4.587-7.865,5.034c-3.532,0.486-8.423,0.933-13.623,0.712 C132.125,443.227,129.095,446.107,129.095,449.737z" fill="#FFD3CD"/>
        <path d="M265.924,459.203c6.949-0.168,21.904-1.51,32.102-9.486l18.965-12.447c3.355-2.202,7.023-3.949,10.935-4.848 c0.601-0.138,1.291-0.289,1.915-0.389c-4.255-2.427-9.891-2.395-14.271,0.634l-16.271,11.251 c-10.022,6.931-21.966,10.637-34.147,10.352c-1.17-0.027-1.842-0.076-1.842-0.076C263.531,455.93,264.57,457.64,265.924,459.203z" fill="#BA8280"/>
        <path d="M269.094,486.755c0,0,25.5,7.595,47.98,8.899c5.258,0.307,10.402-1.454,14.363-4.927 c9.025-7.913,28.203-23.331,49.909-32.364c8.447-3.516,8.149-15.705-0.466-18.785c-0.704-0.252-1.436-0.476-2.195-0.667 c-1.852-0.466-3.785-0.419-5.601,0.169c-6.38,2.07-24.247,8.383-39.004,18.459c-9.546,6.518-21.147,9.26-32.546,7.342 c-14.113-2.376-32.765-7.367-47.639-17.845c-8.29-5.839-11.988-16.719-7.716-25.915c0.81-1.741,1.865-3.37,3.237-4.742 c0,0,27.164-25.566,42.453-40.354c1.977-1.91,2.342-4.568,1.518-6.812c-2.583-0.196-5.074-0.119-7.379,0.157 c-7.377,0.883-14.232,4.243-19.686,9.289l-28.403,26.279c-2.7,2.498-6.156,4.058-9.82,4.385 c-35.401,3.161-53.286,25.592-61.157,39.786c-3.987,7.19-11.476,11.707-19.698,11.707h-18.151c0,10.094,0,22.087,0,29.558 c0,4.355,3.07,8.094,7.349,8.901c12.418,2.347,32.791,4.868,64.936-8.833C201.38,490.443,231.095,475.783,269.094,486.755z" fill="#DDAEA9"/>
        <path d="M385.938,443.563c-1.107-1.745-2.792-3.175-5.057-3.984c-0.704-0.252-1.436-0.476-2.195-0.667 c-1.852-0.466-3.785-0.419-5.601,0.169c-6.38,2.07-24.247,8.383-39.004,18.459c-9.546,6.518-21.147,9.26-32.546,7.342 c-12.254-2.063-27.924-6.109-41.578-13.995c16.08,14.538,38.57,20.753,51.041,23.2c5.57,1.092,11.32-0.264,15.936-3.567 C354.172,451.025,377.25,445.177,385.938,443.563z" fill="#FFD3CD"/>
        <path d="M252.629,339.908c-4.7,4.491-10.457,5.172-17.874,4.723c-7.732-0.468-18.152-5.784-20.933-17.254 c0,0-1.659-7.229,0.735-14.433c1.748-5.259,6.051-9.181,11.145-11.364c2.759-1.182,6.597-3.727,7.518-8.904 c0.313-1.757,2.379-2.617,3.915-1.709c2.826,1.672,6.501,4.478,8.259,8.472c0,0,2.102,6.286,6.785,10.137 c4.336,3.564,7.287,8.641,7.096,14.25C259.094,329.086,257.574,335.18,252.629,339.908z" fill="#FFFFFF"/>
        <circle cx="220.354" cy="287.217" fill="#FFFFFF" r="3.414"/>
        <circle cx="280.172" cy="258.792" fill="#FBB04D" r="3.85"/>
    </symbol>
    <symbol id="rpsvg_elf" enable-background="new 0 0 512 512" viewBox="0 0 512 512" xml:space="preserve" xmlns="http://www.w3.org/2000/svg">
        <path d="M430.847,368.385c0,0,0.435,45.119-9.979,84.6l-40.478-90.674 C380.391,362.311,415.662,358.84,430.847,368.385z" fill="#E8897B"/>
        <linearGradient gradientUnits="userSpaceOnUse" id="SVGID_1___elf" x1="311.5713" x2="345.333" y1="409.2168" y2="516.4917">
            <stop offset="0.0051" style="stop-color:#FFC3B0"/>
            <stop offset="1" style="stop-color:#E8897B"/>
        </linearGradient>
        <path d="M226.504,469.471c0,0,9.466,26.766,41.139,33.865c11.453,2.566,23.517,1.599,34.027-3.629 c6.703-3.334,13.931-8.713,19.065-17.361c1.368-2.304,4.662-2.29,6.128-0.047c3.338,5.109,9.595,12.443,20.099,17.391 c15.135,7.129,32.739,5.976,47.389-2.105c11.136-6.144,23.337-17.162,28.02-36.715c2.317-9.675,2.08-19.761,0.024-29.493 c-3.588-16.981-25.569-50.735-42.004-69.065C380.391,362.311,295.92,381.834,226.504,469.471z" fill="url(#SVGID_1___elf)"/>
        <path d="M422.395,431.375c-0.145-0.683-0.313-1.435-0.473-2.17c-16.443-0.561-57.639-6.938-63.23-55.978 c-34.713,13.467-88.924,41.622-132.188,96.243c0,0,9.466,26.766,41.139,33.865c11.453,2.566,23.517,1.599,34.027-3.629 c6.703-3.334,13.931-8.713,19.065-17.361c1.368-2.304,4.662-2.29,6.128-0.047c3.338,5.109,9.595,12.443,20.099,17.391 c15.136,7.129,32.739,5.975,47.388-2.105c11.137-6.144,23.338-17.162,28.021-36.715C424.688,451.194,424.45,441.108,422.395,431.375 z" fill="#B56D95"/>
        <path d="M422.395,431.375c-0.145-0.683-0.313-1.435-0.473-2.17c-8.816-0.301-24.747-2.283-38.492-11.609 c2.748,18.002,5.816,69.195-46.67,75.672c2.838,2.316,6.21,4.542,10.202,6.422c15.136,7.129,32.739,5.975,47.388-2.105 c11.137-6.144,23.338-17.162,28.021-36.715C424.688,451.194,424.45,441.108,422.395,431.375z" fill="#934A74"/>
        <path d="M321.385,435.826c-2.025-3.885-5.594-9.275-11.389-13.852c-1.248-0.986-0.371-2.969,1.188-2.645 l11.107,2.311c0,0,3.608-2.768,9.539-6.1c1.394-0.783,2.883,0.889,1.931,2.174c-3.286,4.438-7.48,11.031-9.265,17.75 C324.1,436.961,322.102,437.199,321.385,435.826z" fill="#934A74"/>
        <path d="M311.592,439.38c-2.164-2.676-6.408-1.409-6.969,1.986c-6.715,40.685-40.844,53.976-50.426,57.228 c3.971,1.943,8.397,3.61,13.446,4.742c11.453,2.566,23.517,1.599,34.027-3.629c5.94-2.955,12.285-7.527,17.229-14.546 c2.039-5.19,2.988-10.839,2.813-16.542C321.271,454.284,316,444.83,311.592,439.38z" fill="#934A74"/>
        <path d="M260.129,37.179c0,0-15.436-34.49-57.135-29.359c-16.76,2.063-32.361,9.947-44.393,21.795 c-13.569,13.362-28.887,36.135-27.494,70.168c0.135,3.3,0.541,6.565,1.012,9.834c1.518,10.535,5.246,34.716,9.257,48.014 c1.213,4.023,1.973,8.144,2.241,12.338l0.046,0.719c1.446,22.653-11.192,44.322-32.197,52.931 c-7.658,3.139-16.976,5.148-28.274,5.126c-8.545-0.017-13.556,9.452-8.902,16.62c6.114,9.416,18.015,20.2,41.178,25.992 c15.427,3.856,31.786,3.43,46.5-2.6c8.384-3.436,16.973-8.734,22.314-16.854c0,0,1.802,13.695,16.064,15.034 c6.605,0.62,13.068-1.904,18.195-6.116c7.274-5.976,17.776-17.241,19.155-33.253C237.695,227.569,194.964,132.256,260.129,37.179z" fill="#FFE19F"/>
        <path d="M186.888,258.784c2.216,3.632,6.236,7.476,13.457,8.154c6.605,0.62,13.068-1.905,18.195-6.116 c7.274-5.976,17.776-17.241,19.155-33.253c0,0-3.754-8.426-7.341-22.69C225.299,227.369,213.403,250.339,186.888,258.784z" fill="#D8A648"/>
        <path d="M232.854,474.801C256,450.123,342.968,363.136,413.615,369.116c5.275,0.446,10.422,2.226,14.594,5.485 c0.281,0.221,0.562,0.447,0.838,0.682c2.541,2.154,6.401,1.156,7.664-1.926c4.877-11.903,8.588-35.635-36.914-39.275 c0,0,5.23-25.271-43.648-20.788c0,0-5.265-38.122-68.853-39.442c0,0-78.534-1.727-67.393,41.888c0,0-79.829,16.626-84.49,74.063 c-0.165,2.036-0.017,4.071,0.322,6.085c2.361,14.01,15.515,65.923,82.235,83.283C223.347,480.568,229.054,478.854,232.854,474.801z" fill="#CFC46E"/>
        <path d="M399.797,334.082c0,0,5.23-25.272-43.648-20.788c0,0-0.006-0.036-0.018-0.105 c-0.002-0.016-0.008-0.046-0.012-0.065c-0.011-0.066-0.023-0.138-0.043-0.243c-0.011-0.054-0.027-0.13-0.04-0.192 c-0.02-0.096-0.037-0.183-0.063-0.299c-0.021-0.096-0.05-0.213-0.075-0.32c-0.027-0.117-0.052-0.224-0.085-0.355 c-0.032-0.125-0.073-0.269-0.11-0.407c-0.038-0.141-0.073-0.274-0.118-0.429c-0.045-0.159-0.102-0.336-0.154-0.509 c-0.048-0.156-0.092-0.306-0.146-0.472c-0.062-0.189-0.134-0.395-0.204-0.598c-0.061-0.176-0.118-0.346-0.186-0.531 c-0.077-0.213-0.166-0.437-0.253-0.66c-0.074-0.193-0.146-0.383-0.229-0.584c-0.097-0.239-0.205-0.488-0.313-0.737 c-0.089-0.205-0.176-0.407-0.271-0.62c-0.119-0.264-0.25-0.535-0.381-0.809c-0.104-0.214-0.205-0.426-0.314-0.645 c-0.143-0.284-0.297-0.574-0.452-0.866c-0.12-0.225-0.239-0.448-0.366-0.677c-0.168-0.3-0.346-0.605-0.527-0.912 c-0.137-0.232-0.275-0.464-0.421-0.7c-0.194-0.316-0.401-0.636-0.612-0.958c-0.154-0.237-0.313-0.475-0.477-0.716 c-0.222-0.325-0.455-0.653-0.693-0.983c-0.179-0.246-0.359-0.493-0.547-0.742c-0.251-0.331-0.512-0.664-0.779-0.999 c-0.201-0.251-0.406-0.503-0.618-0.756c-0.283-0.339-0.576-0.679-0.878-1.019c-0.222-0.25-0.448-0.499-0.68-0.75 c-0.32-0.346-0.649-0.692-0.99-1.039c-0.242-0.246-0.492-0.492-0.746-0.739c-0.357-0.349-0.722-0.696-1.102-1.044 c-0.268-0.246-0.545-0.49-0.824-0.734c-0.395-0.347-0.795-0.691-1.213-1.035c-0.295-0.242-0.602-0.484-0.908-0.726 c-0.434-0.341-0.873-0.681-1.33-1.019c-0.32-0.236-0.654-0.471-0.986-0.704c-0.479-0.339-0.963-0.675-1.467-1.007 c-0.345-0.227-0.705-0.448-1.061-0.672c-0.526-0.33-1.055-0.66-1.607-0.982c-0.371-0.217-0.76-0.428-1.143-0.641 c-0.575-0.319-1.15-0.639-1.753-0.949c-0.399-0.206-0.82-0.404-1.232-0.606c-0.624-0.306-1.245-0.61-1.898-0.905 c-0.429-0.193-0.882-0.379-1.323-0.566c-0.676-0.289-1.35-0.578-2.057-0.855c-0.451-0.177-0.93-0.343-1.395-0.515 c-0.738-0.272-1.473-0.546-2.244-0.806c-0.466-0.156-0.96-0.299-1.438-0.449c-0.812-0.256-1.616-0.514-2.464-0.753 c-0.471-0.134-0.972-0.251-1.454-0.378c-0.896-0.237-1.785-0.477-2.721-0.694c-0.456-0.106-0.94-0.196-1.405-0.297 c-1.004-0.218-2.002-0.438-3.051-0.633c-0.365-0.067-0.757-0.12-1.127-0.185c-4.182-0.73-8.7-1.279-13.621-1.586 c-0.082-0.004-0.156-0.014-0.238-0.019l0,0c-1.938-0.116-3.93-0.202-5.987-0.244c0,0-8.351-0.175-19.203,1.087 c-0.169,0.255-0.337,0.509-0.501,0.762c-15.586,24.063,0.995,56.514,29.645,57.589c12.379,0.464,24.829-3.069,35.091-7.284 c2.898,2.801,6.636,4.602,10.712,4.935c10.641,0.868,28.379,4.169,26.09,16.575c-0.665,3.604-2.964,6.693-5.956,8.811 c-8.8,6.225-33.491,24.895-52.429,50.387c32.427-22.494,69.75-40.601,103.344-37.555c4.949,0.447,9.754,2.146,13.723,5.138 c0.416,0.313,0.83,0.642,1.236,0.987c2.541,2.155,6.401,1.156,7.664-1.926C441.588,361.453,445.299,337.723,399.797,334.082z" fill="#A19145"/>
        <path d="M274.037,435.35c-51.703,21.818-104.111,2.836-126.889-7.918c10.885,19.372,31.584,41.529,70.822,51.738 c5.376,1.398,11.083-0.316,14.884-4.369C240.529,466.617,255.249,451.574,274.037,435.35z" fill="#A19145"/>
        <linearGradient gradientUnits="userSpaceOnUse" id="SVGID_2___elf" x1="295.459" x2="295.459" y1="288.1797" y2="188.929">
            <stop offset="0.0051" style="stop-color:#FFC3B0"/>
            <stop offset="1" style="stop-color:#E8897B"/>
        </linearGradient>
        <path d="M295.459,323.076L295.459,323.076c-18.24,0-33.027-14.786-33.027-33.027v-56.647h66.054v56.647 C328.485,308.29,313.699,323.076,295.459,323.076z" fill="url(#SVGID_2___elf)"/>
        <path d="M263.977,233.401c9.798,14.028,36.355,50.427,56.595,78.065c4.925-5.768,7.914-13.238,7.914-21.418v-56.647 H263.977z" fill="#E8897B"/>
        <linearGradient gradientUnits="userSpaceOnUse" id="SVGID_3___elf" x1="328.4854" x2="328.4854" y1="275.1396" y2="32.4424">
            <stop offset="0.0051" style="stop-color:#FFC3B0"/>
            <stop offset="1" style="stop-color:#E8897B"/>
        </linearGradient>
        <path d="M266.359,233.614c0,0,27.863,42.187,75.746,60.264c4.684,1.769,9.968,0.008,12.709-4.181 c9.154-13.99,28.83-48.287,35.592-93.483c0.588-3.928-0.108-7.949-1.844-11.522L339.774,84.25l-24.894,1.464l-45.396,48.323 L266.359,233.614z" fill="url(#SVGID_3___elf)"/>
        <path d="M325.559,200.446L325.559,200.446c-2.975,0-5.387-2.412-5.387-5.387v-11.307 c0-2.976,2.412-5.387,5.387-5.387l0,0c2.977,0,5.388,2.412,5.388,5.387v11.307C330.946,198.034,328.535,200.446,325.559,200.446z" fill="#333345"/>
        <path d="M346.562,215.564h14.462c2.279,0,3.799,2.422,2.729,4.434c-1.684,3.165-4.723,6.864-9.732,6.864 c0,0-7.139-0.114-10.274-7.02C342.838,217.846,344.367,215.564,346.562,215.564z" fill="#E8897B"/>
        <path d="M339.774,84.25l-8.674,0.51l-2.615,14.65c-1.935,1.177-14.225,57.654,31.756,91.865 c4.124,3.068,6.733,7.76,6.965,12.895c0.774,17.198-1.032,56.753-29.493,87.959c1.484,0.621,2.989,1.221,4.516,1.795 c4.643,1.748,9.861-0.063,12.577-4.214c9.151-13.981,28.837-48.287,35.601-93.496c0.588-3.929-0.108-7.949-1.844-11.522 L339.774,84.25z" fill="#E8897B"/>
        <path d="M300.231,119.64l23.783-20.303c0,0-2.29,64.879,63.353,96.937c0,0-1.527,20.608-4.58,31.294 c0,0,33.584,0.763,32.059-47.323c0,0,47.323-83.961-50.377-138.154c0,0-58.773-65.643-122.125,6.106l-9.708,14.432 c-14.468,21.506-22.602,46.644-23.392,72.552c-1.245,40.859,6.083,96.697,52.792,109.945c5.836,1.655,11.603-2.926,11.603-8.991 v-41.387c0,0,33.608-18.821,21.979-60.246C294.098,129.093,295.959,123.288,300.231,119.64z" fill="#FFE19F"/>
        <path d="M373.508,47.449c14.416,18.108,43.833,64.29,19.336,115.967c-3.353,7.072-10.084,11.922-17.884,12.576 c-4.974,0.417-11.315,0.176-18.812-1.575c8.167,8.052,18.378,15.586,31.219,21.857c0,0-1.527,20.609-4.58,31.295 c0,0,33.584,0.763,32.059-47.324C414.846,180.245,459.145,101.638,373.508,47.449z" fill="#EDC063"/>
        <path d="M230.731,43.783L230.731,43.783c4.58-4.193,11.647-3.833,15.842,0.745 c8.573,9.354,25.905,23.283,55.81,28.036c2.071,0.329,3.514,2.238,3.18,4.309l0,0c-0.285,1.773-1.77,3.091-3.564,3.161 c-10.313,0.401-44.398,0.115-70.264-18.904C226.02,56.927,225.5,48.573,230.731,43.783z" fill="#A19145"/>
        <path d="M398.238,50.335L398.238,50.335c-3.297-2.511-7.744-1.752-9.975,1.658 c-4.557,6.969-14.236,17.678-32.75,23.078c-1.282,0.374-2.018,1.773-1.611,3.154l0,0c0.348,1.182,1.412,1.968,2.557,1.885 c6.576-0.478,28.16-3.152,42.772-17.936C402.46,58.909,402.004,53.205,398.238,50.335z" fill="#A19145"/>
        <linearGradient gradientUnits="userSpaceOnUse" id="SVGID_4___elf" x1="242.0645" x2="177.5889" y1="213.8809" y2="122.6008">
            <stop offset="0.0051" style="stop-color:#FFC3B0"/>
            <stop offset="1" style="stop-color:#E8897B"/>
        </linearGradient>
        <path d="M194.677,129.693c-2.676-1.789-6.156,0.766-5.267,3.86c3.727,12.977,10.695,37.713,14.675,54.86 c0,0,5.832,29.162,32.166,35.836c6.233,1.58,12.54-2.487,13.592-8.831c0.815-4.912,1.135-11.359-0.284-18.796 c-1.13-5.918-3.593-11.472-6.792-16.578C235.722,168.794,219.653,146.39,194.677,129.693z" fill="url(#SVGID_4___elf)"/>
        <path d="M226.401,180.767c4.184,4.906,8.963,12.616,9.764,22.815c0.161,2.053-2.148,3.433-3.871,2.306 c-3.619-2.368-8.318-6.9-7.693-14.248c0,0,0.113-4.269-1.259-9.277C222.848,180.558,225.187,179.342,226.401,180.767z" fill="#E8897B"/>
        <path d="M237.317,336.871c5.812,8.581,17.817,20.152,41.415,23.967c3.829,0.619,3.899,6.042,0.077,6.697 c-7.3,1.25-16.774,1.368-27.632-2.02c-8.104-2.527-14.928-8.273-17.925-16.216c-1.119-2.966-1.958-6.446-2.162-10.428 C230.915,335.438,235.39,334.023,237.317,336.871z" fill="#A19145"/>
    </symbol>
    <symbol id="rpsvg_grim_reaper" enable-background="new 0 0 512 512" viewBox="0 0 512 512" xml:space="preserve" xmlns="http://www.w3.org/2000/svg">
        <linearGradient gradientUnits="userSpaceOnUse" id="SVGID_1___grim_reaper" x1="256" x2="256" y1="94.186" y2="719.8057">
            <stop offset="0.0103" style="stop-color:#B7858F"/>
            <stop offset="1" style="stop-color:#8E545C"/>
        </linearGradient>
        <path d="M140.682,238.054c0,0,1.906-95.292,4.765-124.832c2.858-29.54,25.729-103.867,124.832-101.962 c0,0,96.03,2.771,102.667,121.019c0.212,3.77,0.21,7.537,0.142,11.312c-0.337,18.585-1.305,78.797-0.29,108.824 c0.155,4.615,0.983,9.178,2.645,13.487c1.47,3.815,3.169,9.509,3.452,15.96c0.415,9.47,2.31,18.796,6.422,27.336 c6.047,12.559,15.538,29.74,27.402,42.877c7.521,8.326,11.207,19.658,8.915,30.641c-1.308,6.268-4.275,12.631-10.323,17.334 c0,0,31.446,37.164-7.623,74.328c0,0-15.246,15.245-36.866,23.559c-5.873,2.258-12.173,3.155-18.453,2.743 c-36.916-2.422-182.918-20.288-253.227-151.872c-4.962-9.287-7.369-19.866-6.063-30.314c1.574-12.596,8.247-26.871,29.688-29.934 c0,0-5.993-20.257,9.921-29.484C136.105,254.771,140.463,246.628,140.682,238.054L140.682,238.054z" fill="url(#SVGID_1___grim_reaper)"/>
        <path d="M403.687,474.377c39.069-37.164,7.623-74.328,7.623-74.328c6.05-4.705,9.017-11.069,10.324-17.338 c2.288-10.969-1.37-22.291-8.885-30.604c-11.988-13.26-21.556-30.657-27.6-43.254c-4.036-8.414-5.856-17.619-6.254-26.941 c-0.274-6.422-1.954-12.098-3.42-15.922c-1.692-4.416-2.53-9.096-2.688-13.822c-1.001-30.107-0.037-90.043,0.299-108.578 c0.068-3.775,0.07-7.542-0.142-11.312C366.309,14.03,270.278,11.26,270.278,11.26c-4.109-0.079-8.041,0.019-11.892,0.193 c9.824,5.32,22.23,14.754,27.866,30.157c2.907,7.943-0.884,16.93-8.601,20.392c-20.749,9.307-61.363,40.356-54.3,139.831 c0,0-11.532,84.332,64.87,139.71c8.239,5.972,13.885,14.955,15.813,24.946c1.562,8.094,2.425,18.178,0.634,28.623 c-1.771,10.322-12.778,16.402-22.378,12.213c-4.459-1.947-9.302-4.439-13.809-7.543c-2.165-1.49-5.057-1.816-7.252-0.371 c-3.317,2.182-3.799,6.651-1.256,9.439c5.041,5.527,14.41,15.099,25.378,22.932c0,0-23.136,35.329-86.833,23.457 c62.536,36.506,127.028,43.941,149.847,45.438c6.28,0.412,12.58-0.485,18.453-2.743C388.44,489.622,403.687,474.377,403.687,474.377 z" fill="#8E545C"/>
        <path d="M306.662,82.986c15.482,7.376,29.516,21.443,33.566,47.798c0.445,2.895,0.64,5.823,0.788,8.749 l5.891,116.339c0.786,15.532,3.756,30.824,7.976,45.793c3.354,11.897,4.043,26.934-11.16,32.049 c-1.426,0.48-2.932,0.686-4.435,0.731c-13.874,0.425-83.462-2.767-131.959-104.181c-3.713-7.764-6.297-16.021-7.771-24.5 c-3.625-20.871-7.173-60.763,10.25-92.058C228.784,79.623,271.447,66.207,306.662,82.986z" fill="#602E3A"/>
        <linearGradient gradientUnits="userSpaceOnUse" id="SVGID_2___grim_reaper" x1="260.7676" x2="260.7676" y1="213.2178" y2="-35.5389">
            <stop offset="0.0051" style="stop-color:#FFE1FF"/>
            <stop offset="1" style="stop-color:#E5B4F7"/>
        </linearGradient>
        <path d="M293.045,78.065c-31.983-8.14-66.654,5.856-83.236,35.64c-16.132,28.975-14.283,65.291-11.043,87.085 c9.336,8.037,20.426,9.407,27.803,9.192c4.758-0.138,8.85,3.307,9.597,8.007l1.984,12.474c0.543,3.413,3.485,5.924,6.941,5.924 h8.128c3.63,0,6.662-2.764,6.999-6.377l1.345-14.459c0.313-3.354,3.126-5.918,6.494-5.918c3.34,0,6.141,2.524,6.486,5.847 l1.521,14.607c0.373,3.581,3.391,6.301,6.991,6.301h6.872c3.882,0,7.029-3.147,7.029-7.029v-12.244c0-3.489,2.745-6.36,6.23-6.516 l0.897-0.04c3.713-0.166,6.813,2.799,6.813,6.516v9.795c0,3.882,3.146,7.029,7.028,7.029s7.028-3.147,7.028-7.029v-90.655 C324.954,106.253,307.04,87.868,293.045,78.065z" fill="url(#SVGID_2___grim_reaper)"/>
        <path d="M263.313,131.162c-8.324-0.061-24.607,1.906-31.325,17.268c-2.392,5.467-2.954,11.668-1.221,17.378 c0.04,0.131,0.081,0.263,0.123,0.396c3.774,11.81,18.328,16.115,28.172,8.576c0.396-0.303,0.799-0.617,1.206-0.938 c10.226-8.086,15.297-21.49,11.974-34.097c-0.284-1.078-0.628-2.144-1.041-3.184C269.916,133.33,266.788,131.187,263.313,131.162z" fill="#602E3A"/>
        <path d="M299.643,135.715c5.952,1.202,16.58,5.126,17.249,17.848c0.133,2.528-0.563,5.036-1.74,7.276l-0.122,0.232 c-3.698,6.912-13.241,7.924-18.5,2.109c-0.136-0.151-0.273-0.304-0.412-0.46c-5.59-6.304-7.354-15.46-3.676-23.04 c0.147-0.304,0.303-0.604,0.468-0.9C294.238,136.391,296.963,135.174,299.643,135.715z" fill="#602E3A"/>
        <path d="M289.792,173.509c1.421,2.217,2.922,4.826,4.123,7.543c1.187,2.685-0.855,5.7-3.791,5.7h-5.948 c-2.73,0-4.699-2.602-3.949-5.227c0.572-2.003,1.307-4.448,2.178-7.092C283.496,171.12,287.909,170.573,289.792,173.509z" fill="#602E3A"/>
        <path d="M168.611,316.805c12.878,11.869,32.53,28.943,48.895,38.721c4.314,2.578,5.058,8.502,1.414,11.964l0,0 c-2.843,2.7-7.269,2.782-10.188,0.165c-9.426-8.451-29.651-27.514-43.893-47.533C163.09,317.662,166.392,314.76,168.611,316.805z" fill="#8E545C"/>
        <path d="M322.023,116.188c-5.646-18.444-18.422-30.73-28.979-38.124c-27.79-7.072-57.594,2.583-75.813,24.771 C238.556,93.726,284.377,80.862,322.023,116.188z" fill="#E5B4F7"/>
    </symbol>
    <symbol id="rpsvg_helmet" enable-background="new 0 0 512 512" viewBox="0 0 512 512" xml:space="preserve" xmlns="http://www.w3.org/2000/svg">
        <circle cx="256" cy="51.255" fill="#C7DAFF" r="8.626"/>
        <path d="M237.901,57.425c0,0-113.113,5.347-113.113,143.963h113.113V57.425z" fill="#FFFFFF"/>
        <path d="M274.099,57.425c0,0,113.113,5.347,113.113,143.963H274.099V57.425z" fill="#C7DAFF"/>
        <path d="M256,233.39H148.468v136.648c0,8.557,8.575,14.362,16.572,11.32c17.129-6.517,47.503-14.835,90.96-14.835 s73.831,8.318,90.96,14.835c7.997,3.042,16.572-2.764,16.572-11.32V233.39H256z" fill="#8C266B"/>
        <path d="M140.446,201.388h97.455V66.648C229.48,134.018,203.799,178.27,140.446,201.388z" fill="#C7DAFF"/>
        <path d="M271.014,51.255H256h-15.014c-3.066,0-5.553,2.486-5.553,5.553v141.701H256h20.566V56.808 C276.566,53.741,274.08,51.255,271.014,51.255z" fill="#FFFFFF"/>
        <linearGradient gradientUnits="userSpaceOnUse" id="SVGID_1___helmet.jpg" x1="140.4458" x2="140.4458" y1="449.0078" y2="277.4065">
            <stop offset="0" style="stop-color:#CC5697"/>
            <stop offset="1" style="stop-color:#8E3979"/>
        </linearGradient>
        <path d="M131.423,245.289c-1.552,18.332-9.396,103.005-26.645,164.654c-1.132,4.045-0.538,8.384,1.803,11.872 c6.762,10.077,24.187,31.024,60.022,46.921c4.937,2.191,10.444-1.576,10.045-6.963c-1.963-26.494-6.161-95.002-3.053-162.698 c0,0-31.056-17.519-40.996-53.852C132.419,244.565,131.48,244.609,131.423,245.289z" fill="url(#SVGID_1___helmet.jpg)"/>
        <linearGradient gradientUnits="userSpaceOnUse" id="SVGID_2___helmet.jpg" x1="371.5547" x2="371.5547" y1="444.3154" y2="284.2495">
            <stop offset="0" style="stop-color:#CC5697"/>
            <stop offset="1" style="stop-color:#8E3979"/>
        </linearGradient>
        <path d="M380.577,245.289c1.552,18.332,9.396,103.005,26.645,164.654c1.132,4.045,0.538,8.384-1.803,11.872 c-6.763,10.077-24.187,31.024-60.022,46.921c-4.937,2.191-10.444-1.576-10.045-6.963c1.963-26.494,6.161-95.002,3.053-162.698 c0,0,31.055-17.519,40.997-53.852C379.581,244.565,380.52,244.609,380.577,245.289z" fill="url(#SVGID_2___helmet.jpg)"/>
        <path d="M158.828,238.666c0,0,5.611,54.24,86.889,50.188l-0.54,28.99c0,0-105.364,12.781-116.274-79.178H158.828z" fill="#FFFFFF"/>
        <circle cx="256" cy="103.039" fill="#C7DAFF" r="8.626"/>
        <circle cx="256" cy="158.58" fill="#C7DAFF" r="8.626"/>
        <path d="M353.172,238.666c0,0-5.611,54.24-86.889,50.188l0.54,28.99c0,0,105.364,12.781,116.274-79.178H353.172z" fill="#FFFFFF"/>
        <path d="M256,238.666h-13.941v82.299c0,4.818,3.906,8.725,8.726,8.725H256h5.216c4.819,0,8.726-3.906,8.726-8.725 v-82.299H256z" fill="#C7DAFF"/>
        <path d="M274.099,201.388h113.113c0-4.414-0.12-8.687-0.343-12.835H274.099V201.388z" fill="#819FEA"/>
        <path d="M347.06,255.698h32.618c1.512-5.245,2.691-10.888,3.42-17.033h-29.926 C353.172,238.666,352.375,246.34,347.06,255.698z" fill="#819FEA"/>
        <path d="M158.828,238.666h-29.926c0.729,6.145,1.908,11.788,3.421,17.033h32.616 C159.626,246.34,158.828,238.666,158.828,238.666z" fill="#819FEA"/>
        <polygon fill="#819FEA" points="242.059,238.666 242.059,255.697 269.941,255.697 269.941,238.666 256,238.666"/>
        <path d="M125.131,188.553c-0.223,4.148-0.343,8.421-0.343,12.835h113.113v-12.835H125.131z" fill="#819FEA"/>
        <polygon fill="#C7DAFF" points="235.434,188.553 235.434,198.509 256,198.509 276.566,198.509 276.566,188.553"/>
        <path d="M388.857,198.509H256H123.143c-3.407,0-6.17,2.762-6.17,6.17v30.849c0,3.408,2.763,6.17,6.17,6.17H256 h132.857c3.407,0,6.17-2.762,6.17-6.17v-30.849C395.027,201.271,392.265,198.509,388.857,198.509z" fill="#FFFFFF"/>
        <circle cx="142.626" cy="220.104" fill="#C7DAFF" r="8.625"/>
        <circle cx="199.313" cy="220.104" fill="#C7DAFF" r="8.626"/>
        <circle cx="256" cy="220.104" fill="#C7DAFF" r="8.626"/>
        <circle cx="369.374" cy="220.104" fill="#C7DAFF" r="8.625"/>
        <circle cx="312.687" cy="220.104" fill="#C7DAFF" r="8.626"/>
    </symbol>
    <symbol id="rpsvg_king" enable-background="new 0 0 512 512" viewBox="0 0 512 512" xml:space="preserve" xmlns="http://www.w3.org/2000/svg">
        <path d="M131.68,315.735c0,0-19.466,8.9-18.922,26.089c0.166,5.262,2.463,10.215,5.93,14.176 c4.223,4.824,11.837,13.579,19.059,22.166c8.895,10.575,15.999,22.572,20.691,35.57c10.645,29.482,44.367,92.189,138.654,92.204 c7.163,0.001,14.254-1.507,20.803-4.409c26.957-11.952,92.664-52.674,80.02-162.261c0,0-26.652-1.646-51.02,58.319 c-4.585,11.282-14.89,19.344-27.023,20.391c-25.932,2.237-71.488-5.51-113.209-71.324c-9.015-14.219-22.092-25.586-37.93-31.299 C156.746,311.035,143.01,309.131,131.68,315.735z" fill="#59E1FF"/>
        <path d="M397.914,339.271c0,0-26.654-1.646-51.021,58.323c-4.584,11.28-14.886,19.338-27.016,20.386 c-20.094,1.735-51.976-2.546-84.724-35.177l-7.675,3.958c0,0,34.052,52.335,78.828,70.462c2.733,1.106,5.752,1.281,8.627,0.62 c6.629-1.524,19.313-5.481,31.652-15.09c4.805-3.742,11.719,0.725,10.41,6.673c-2.21,10.046-5.816,22.762-11.621,35.721 C374.226,463.07,407.201,419.76,397.914,339.271z" fill="#30A7EA"/>
        <linearGradient gradientUnits="userSpaceOnUse" id="SVGID_1___king" x1="252.1738" x2="321.2128" y1="357.127" y2="-179.7838">
            <stop offset="0" style="stop-color:#CC5697"/>
            <stop offset="1" style="stop-color:#8E3979"/>
        </linearGradient>
        <path d="M232.896,261.559c0,0-35.019-20.627-60.442,20.627c0,0-47.333-9.553-63.085,31.662 c-1.438,3.761,0.312,8.006,3.878,9.874l0,0c2.419,1.267,5.297,1.235,7.682-0.096c7.553-4.214,22.743-15.056,38.573-2.584 c0,0,26.388,17.874,47.433,45.228c8.271,10.752,17.05,21.098,26.913,30.41c17.892,16.893,45.473,38.896,73.429,45.559 c2.135,0.508,4.353,0.332,6.415-0.416c10.115-3.673,40.057-18.558,56.831-69.81c2.446-7.473,6.566-14.39,12.324-19.745 c4.053-3.77,9.171-7.115,15.129-8.086c3.545-0.577,5.905-3.988,4.941-7.449c-1.875-6.729-6.591-16.088-18.435-19.049 c0,0-1.344-24.465-24.178-33.578L232.896,261.559z" fill="url(#SVGID_1___king)"/>
        <path d="M370.875,370.926c1.4-4.371,3.364-8.559,6.154-12.203c4.348-5.68,11.617-13.021,20.946-14.541 c3.546-0.578,5.905-3.988,4.941-7.449c-1.875-6.729-6.59-16.088-18.435-19.049c0,0-1.345-24.465-24.178-33.578l-20.932-3.705 l-19.65,38.243c17.71,3.269,21.353,15.708,21.791,23.749c0.23,4.258,2.438,8.084,5.943,10.512 c19.677,13.633,11.664,41.882,7.953,52.029C361.099,395.862,366.463,384.697,370.875,370.926z" fill="#A03774"/>
        <path d="M269.562,315.735c0,0,30.501,20.185,31.904,50.648h8.777c0,0-2.982-29.01,18.38-46.797v-3.852H269.562z" fill="#A03774"/>
        <path d="M206.729,118.542c0,0-24.221,8.996-24.221,35.929v49.066c0,0-0.836,12.946-10.44,13.781 c0,0-4.543,0.649-8.369-1.896c-3.883-2.582-9.031-0.081-9.476,4.561c-0.44,4.598,0.02,10.122,2.523,16.172 c2.229,5.388,5.883,10.093,10.355,13.835c10.708,8.961,35.126,22.408,73.815,5.33V118.542H206.729z" fill="#E6E6F8"/>
        <path d="M360.997,214.43h-4.62v-38.138h4.62c10.531,0,19.069,8.538,19.069,19.069l0,0 C380.066,205.892,371.528,214.43,360.997,214.43z" fill="#C66760"/>
        <linearGradient gradientUnits="userSpaceOnUse" id="SVGID_2___king" x1="298.4941" x2="298.4941" y1="239.8081" y2="19.364">
            <stop offset="0.0051" style="stop-color:#FFC3B0"/>
            <stop offset="1" style="stop-color:#E8897B"/>
        </linearGradient>
        <rect fill="url(#SVGID_2___king)" height="153.753" width="123.62" x="236.685" y="118.542"/>
        <path d="M260.182,135.467h59.927c8.419,0,15.242,6.825,15.242,15.243v121.585h24.954V118.542H260.182V135.467z" fill="#E8897B"/>
        <circle cx="295.865" cy="160.072" fill="#333345" r="5.601"/>
        <circle cx="344.193" cy="160.072" fill="#333345" r="5.601"/>
        <path d="M219.257,204.372c1.67,55.934-49.827,47.431-49.874,47.423c11.688,8.784,35.373,19.486,71.534,3.524v-50.947 H219.257z" fill="#B3B3C5"/>
        <path d="M265.179,118.542c0,0,6.138,34.32-19.727,47.131v61.437c0,8.727,3.691,17.232,10.58,22.589 c4.056,3.154,9.434,5.889,16.394,6.868c3.018,0.425,5.816-1.618,6.589-4.565c2.509-9.578,11.169-30.12,39.763-34.839 c9.562-1.578,19.463-0.939,28.467,2.643c11.334,4.509,24.678,14.601,25.235,37.145l0,0c0,36.801-29.832,66.633-66.632,66.633 h-11.736c-36.8,0-66.632-29.832-66.632-66.633V118.542H265.179z" fill="#E6E6F8"/>
        <path d="M222.859,214.43h4.62v-38.138h-4.62c-10.531,0-19.069,8.538-19.069,19.069l0,0 C203.79,205.892,212.328,214.43,222.859,214.43z" fill="#E8897B"/>
        <path d="M337.632,200.333h-11.237c-3.686,0-6.672-2.988-6.672-6.672l0,0c0-3.685,2.986-6.672,6.672-6.672h11.237 c3.685,0,6.672,2.987,6.672,6.672l0,0C344.304,197.346,341.316,200.333,337.632,200.333z" fill="#E8897B"/>
        <path d="M372.479,256.951c-0.558-22.545-13.901-32.636-25.235-37.145c-3.83-1.524-7.827-2.485-11.888-3 c0.126,0.26,27.808,57.958,1.849,98.929C358.191,304.518,372.479,282.41,372.479,256.951z" fill="#B3B3C5"/>
        <path d="M249.594,74.932c-9.917-4.8-13.797-16.914-9.615-27.107c0.988-2.409,2.149-4.372,3.168-5.842 c1.368-1.976,1.405-4.571,0.006-6.525c-3.97-5.544-7.604-11.885-10.091-16.513c-1.44-2.68-5.284-2.68-6.724,0 c-2.488,4.628-6.121,10.969-10.092,16.513c-1.399,1.954-1.361,4.549,0.007,6.525c1.019,1.47,2.18,3.433,3.168,5.842 c4.181,10.193,0.302,22.307-9.615,27.107c-3.572,1.729-10.981,3.244-16.983,3.244l2.776,20.863h34.101h34.102l3.274-22.358 C261.072,76.681,253.166,76.66,249.594,74.932z" fill="#AD6D2A"/>
        <path d="M187.421,135.467h53.496v-16.925h-34.188C206.729,118.542,194.496,123.139,187.421,135.467z" fill="#B3B3C5"/>
        <path d="M265.258,135.467c1.237-9.345-0.079-16.925-0.079-16.925h-37.7v16.925H265.258z" fill="#B3B3C5"/>
        <path d="M347.27,74.932c-9.918-4.8-13.797-16.914-9.615-27.107c0.987-2.409,2.148-4.372,3.167-5.842 c1.368-1.976,1.406-4.571,0.007-6.525c-3.971-5.544-7.604-11.885-10.092-16.513c-1.439-2.68-5.283-2.68-6.724,0 c-2.487,4.628-6.121,10.969-10.092,16.513c-1.399,1.954-1.36,4.549,0.008,6.525c1.019,1.47,2.179,3.433,3.167,5.842 c4.182,10.193,0.302,22.307-9.615,27.107c-3.572,1.729-10.98,3.244-16.982,3.244l2.775,20.863h34.102h34.101l3.275-22.358 C358.748,76.681,350.841,76.66,347.27,74.932z" fill="#AD6D2A"/>
        <path d="M357.27,34.356c-2.023,2.83-2.057,6.575-0.074,9.434c1.52,2.193,3.265,5.156,4.719,8.81 c5.706,14.337-0.33,31.994-14.295,38.56c-5.067,2.383-11.594,3.959-19.995,3.959c-8.597,0-15.231-1.651-20.347-4.127 c-14.202-6.875-19.758-24.223-13.77-38.822c1.414-3.449,3.078-6.261,4.536-8.367c1.98-2.861,1.972-6.599-0.052-9.429 c-6.479-9.063-12.326-19.592-15.822-26.261c-1.437-2.739-5.33-2.739-6.767,0c-3.493,6.662-9.333,17.178-15.805,26.235 c-2.027,2.837-2.053,6.591-0.067,9.458c1.513,2.186,3.248,5.133,4.696,8.764c5.818,14.589,0.171,31.622-13.978,38.443 c-5.109,2.464-11.73,4.105-20.301,4.105c-8.332,0-14.819-1.551-19.869-3.9c-14.052-6.539-20.152-24.221-14.421-38.621 c1.454-3.653,3.198-6.615,4.719-8.808c1.981-2.859,1.949-6.604-0.073-9.434c-4.516-6.317-8.723-13.344-12.04-19.278 c-1.92-3.435-7.153-2.043-7.153,1.891v98.831c0,5.367,4.351,9.718,9.718,9.718h39.12h48.837h48.838h39.12 c5.367,0,9.717-4.351,9.717-9.718V16.97c0-3.935-5.232-5.326-7.153-1.892C365.99,21.013,361.783,28.04,357.27,34.356z" fill="#FFCA95"/>
        <path d="M366.744,125.519c5.367,0,9.717-4.351,9.717-9.718V16.97c0-3.935-5.233-5.325-7.153-1.891 c-3.317,5.935-7.524,12.961-12.038,19.278c-2.023,2.83-2.057,6.575-0.074,9.434c1.52,2.193,3.265,5.156,4.719,8.81 c5.706,14.337-0.33,31.994-14.295,38.56c-5.067,2.383-11.594,3.959-19.995,3.959c-8.597,0-15.231-1.651-20.347-4.127 c-14.202-6.875-19.758-24.223-13.77-38.822c1.414-3.449,3.078-6.261,4.536-8.367c1.98-2.861,1.972-6.599-0.052-9.43 c-6.479-9.063-12.326-19.592-15.823-26.26c-0.718-1.37-2.05-2.055-3.383-2.055v105.007c0,0-0.498,14.452,16.446,14.452h32.392 H366.744z" fill="#FBB04D"/>
        <ellipse cx="305.332" cy="384.771" fill="#FBB04D" rx="21.107" ry="23.913"/>
        <ellipse cx="298.495" cy="381.308" fill="#FFCA95" rx="6.696" ry="7.589" transform="matrix(0.985 0.1728 -0.1728 0.985 70.3602 -45.8331)"/>
    </symbol>
    <symbol id="rpsvg_knight" enable-background="new 0 0 512 512" viewBox="0 0 512 512" xml:space="preserve" xmlns="http://www.w3.org/2000/svg">
        <path d="M397.117,261.816c0,0-19.654-9.933-42.365,53.431l39.046,40.416 C393.798,355.663,421.435,294.255,397.117,261.816z" fill="#375DAB"/>
        <linearGradient gradientUnits="userSpaceOnUse" id="SVGID_1___knight" x1="274.2451" x2="276.2507" y1="310.2207" y2="155.1373">
            <stop offset="0.0051" style="stop-color:#FFC3B0"/>
            <stop offset="1" style="stop-color:#E8897B"/>
        </linearGradient>
        <path d="M240.722,187.892v42.194c0,9.713-2.941,19.173-8.46,27.165 c-10.207,14.782-27.984,39.321-43.904,55.241c0,0,60.152,43.199,127.96,65.62l43.748-65.073c0,0-35.745-12.578-33.458-47.576 L240.722,187.892z" fill="url(#SVGID_1___knight)"/>
        <path d="M326.607,265.463l-85.886-77.571v42.194c0,0.564-0.044,1.125-0.064,1.688l102.158,106.924l17.25-25.658 C360.065,313.039,324.32,300.461,326.607,265.463z" fill="#E8897B"/>
        <path d="M188.356,312.492c0,0,60.153,43.199,127.961,65.62l43.748-65.073c0,0-11.502-4.056-21.04-13.949 c-2.05,4.731-5.02,8.541-8.189,11.531c-6.975,6.579-16.266,10.082-25.824,10.828c-48.879,3.816-84.48-27.941-93.033-36.398 C204.396,294.826,196.156,304.693,188.356,312.492z" fill="#375DAB"/>
        <path d="M138.629,355.443l65.258-60.271c0,0,51.396,45.813,102.731,64.678c3.251,1.194,6.909,0.193,9.182-2.42 c7.214-8.297,22.504-27.356,27.86-45.484l16.405,1.094c0,0,16.851,19.01,31.733,31.301c3.854,3.183,6.677,7.41,7.94,12.246 c6.146,23.523,16.231,94.301-63.159,150.207c-2.545,1.792-5.604,2.709-8.717,2.703c-17.378-0.025-76.74-4.477-125.479-60.294 c0,0-25.552-28.183-55.213-41.36c-10.503-4.667-17.611-14.697-18.647-26.144l0,0C127.633,371.852,131.367,362.15,138.629,355.443z" fill="#FFFFFF"/>
        <path d="M391.799,344.34c-14.883-12.291-31.733-31.301-31.733-31.301l-16.377-1.092l-0.042,0.038 c-5.198,17.548-19.666,35.928-27.121,44.601c7.818,113.326-75.594,105.819-108.834,98.429 c47.655,50.302,103.42,54.456,120.172,54.481c3.113,0.006,6.172-0.911,8.717-2.703c79.391-55.906,69.305-126.684,63.159-150.207 C398.476,351.75,395.652,347.522,391.799,344.34z" fill="#CDE0FF"/>
        <path d="M399.739,356.586c-1.264-4.836-4.087-9.063-7.94-12.246c-14.883-12.291-31.733-31.301-31.733-31.301 l-16.405-1.094c-5.356,18.128-20.646,37.188-27.86,45.484c-1.063,1.223-2.434,2.075-3.919,2.532 c21.161,63.453,19.606,129.354,18.518,149.317c2.213-0.361,4.335-1.186,6.182-2.486 C415.971,450.887,405.885,380.109,399.739,356.586z" fill="#AFC8FF"/>
        <linearGradient gradientUnits="userSpaceOnUse" id="SVGID_2___knight" x1="204.3711" x2="153.7395" y1="308.0303" y2="228.2211">
            <stop offset="0" style="stop-color:#CC5697"/>
            <stop offset="1" style="stop-color:#8E3979"/>
        </linearGradient>
        <path d="M178.944,289.678l20.131-11.424c5.185-2.941,11.729-1.834,15.594,2.704 c6.357,7.464,15.659,19.826,21.771,34.353c3.706,8.811,0.458,19.008-7.75,23.904l0,0c-6.95,4.146-15.745,3.44-21.967-1.735 c-8.288-6.895-20.131-17.256-30.653-28.359C170.491,303.234,171.893,293.681,178.944,289.678z" fill="url(#SVGID_2___knight)"/>
        <linearGradient gradientUnits="userSpaceOnUse" id="SVGID_3___knight" x1="348.3584" x2="366.3793" y1="330.7305" y2="270.6605">
            <stop offset="0" style="stop-color:#CC5697"/>
            <stop offset="1" style="stop-color:#8E3979"/>
        </linearGradient>
        <path d="M340.279,298.871l0.883,34.443c0.149,5.842,4.573,10.684,10.377,11.358l0,0 c5.25,0.61,10.278-2.342,12.237-7.25c2.038-5.106,4.351-12.01,5.351-19.023c0.475-3.322-0.779-6.652-3.244-8.931 c-3.943-3.643-10.814-9.377-19.633-14.281C343.533,293.676,340.2,295.763,340.279,298.871z" fill="url(#SVGID_3___knight)"/>
        <path d="M127.982,245.622c21.512,11.911,67.045,45.725,68.608,119.115c0.062,2.874-0.614,5.716-1.893,8.29 c-6.011,12.104-27.357,45.396-82.178,50.643c-4.802,0.46-9.553-1.353-12.804-4.916c-7.421-8.133-23.035-23.4-42.696-32.256 c-5.587-2.518-8.901-8.398-8.186-14.484c2.318-19.721,12.435-60.721,56.096-80.281c5.21-2.334,9.121-6.793,10.609-12.305 c1.755-6.494,3.424-16.064,2.75-27.722C117.993,246.568,123.48,243.129,127.982,245.622z" fill="#EEF5FF"/>
        <path d="M194.698,373.027c1.278-2.574,1.954-5.416,1.893-8.29c-1.527-71.716-45.027-105.628-67.085-118.253 c21.374,28.053,78.9,119.362-35.867,166c2.369,2.325,4.452,4.488,6.078,6.27c3.25,3.563,8.002,5.376,12.804,4.916 C167.342,418.423,188.688,385.132,194.698,373.027z" fill="#C7DAFF"/>
        <path d="M85.634,326.094c1.886-4.138,5.352-8.881,11.721-12.338c0.276-0.15,0.569-0.287,0.865-0.396 c1.295-0.481,5.205-1.787,9.563-1.803c4.678-0.018,7.691,4.988,5.387,9.059c-2.978,5.26-8.988,11.859-20.81,13.891 C87.545,335.332,83.607,330.54,85.634,326.094z" fill="#FFFFFF"/>
        <linearGradient gradientUnits="userSpaceOnUse" id="SVGID_4___knight" x1="217.3198" x2="217.3198" y1="119.6138" y2="411.5316">
            <stop offset="0" style="stop-color:#CC5697"/>
            <stop offset="1" style="stop-color:#8E3979"/>
        </linearGradient>
        <path d="M281.39,47.353L281.39,47.353c0-24.77-20.079-44.849-44.849-44.849l0,0 c-46,0-83.29,37.29-83.29,83.29V220.34c0,9.799,7.943,17.743,17.742,17.743l0,0c9.799,0,17.742-7.944,17.742-17.743v-21.438 c0-4.491,3.641-8.132,8.132-8.132l0,0c4.491,0,8.132,3.641,8.132,8.132v7.64c0,5.987,4.854,10.842,10.843,10.842l0,0 c5.988,0,10.843-4.854,10.843-10.842V150.85C226.685,150.85,225.206,76.43,281.39,47.353z" fill="url(#SVGID_4___knight)"/>
        <path d="M236.541,2.504L236.541,2.504c-12.177,0-23.73,2.634-34.156,7.33c20.04,4.269,50.212,18.157,39.928,63.346 l6.765,2.704c7.77-11.102,18.228-21.242,32.313-28.531C281.39,22.583,261.311,2.504,236.541,2.504z" fill="#A03774"/>
        <path d="M229.514,179.146c0,0-17.557-7.937-19.373-38.586c-1.274-21.487,5.293-42.817,17.998-60.192 c5.124-7.008,11.768-14.413,20.228-21.042c32.111-25.162,77.159-26.15,110.59-2.77c14.69,10.273,27.934,26.128,32.029,50.513 c0.556,3.309,0.809,6.662,0.947,10.015c0.449,10.92,0.381,33.998-7.376,43.644L229.514,179.146z" fill="#EEF5FF"/>
        <path d="M384.557,160.728c7.757-9.646,7.825-32.724,7.376-43.644c-0.138-3.353-0.392-6.706-0.947-10.015 c-4.096-24.385-17.339-40.239-32.029-50.513c-19.144-13.389-42.091-18.748-64.242-16.192c22.958,9.664,59.604,41.092-33.582,135.025 L384.557,160.728z" fill="#C7DAFF"/>
        <path d="M224.586,119.971c1.164-7.08,5.232-24.78,17.937-36.706c3.222-3.025,8.124-3.415,11.784-0.938l0,0 c4.306,2.914,5.442,8.745,2.549,13.065c-5.39,8.045-14.388,20.531-23.619,29.182c-1.854,1.737-4.689,1.866-6.702,0.315l0,0 C225.026,123.727,224.277,121.85,224.586,119.971z" fill="#FFFFFF"/>
        <linearGradient gradientUnits="userSpaceOnUse" id="SVGID_5___knight" x1="336.1582" x2="244.5789" y1="250.7617" y2="109.7161">
            <stop offset="0.0051" style="stop-color:#FFC3B0"/>
            <stop offset="1" style="stop-color:#E8897B"/>
        </linearGradient>
        <path d="M240.722,187.892l7.761,32.224c1.406,5.843,4.803,11.023,9.647,14.579 c11.676,8.566,36.225,24.784,68.879,36.626c3.857,1.398,7.95,2.045,12.054,2.045h8.435c5.884,0,11.199-3.442,13.6-8.814 c4.793-10.723,12.286-30.813,15.907-57.974L250.98,179.146L240.722,187.892z" fill="url(#SVGID_5___knight)"/>
        <path d="M265.688,182.347l-2.853,8.726c0,0,36.556,23.462,71.207,37.934c6.821,2.849,11.425,9.374,11.513,16.766 c0.078,6.656-0.201,15.9-1.467,27.594h3.409c5.884,0,11.199-3.442,13.601-8.814c4.792-10.723,12.285-30.814,15.906-57.975 L265.688,182.347z" fill="#E8897B"/>
        <path d="M242.867,168.642c10.202-10.034,47.141-43.836,110.063-74.053c0,0,34.274,34.274,51.623,68.125v16.503 c0,0-16.342,26.915-48.923,47.649c0,0-54.445-10.532-111.532-46.917c-1.571-1.002-2.706-2.587-3.157-4.395l0,0 C240.318,173.064,241.037,170.441,242.867,168.642z" fill="#EEF5FF"/>
        <path d="M296.107,207.307c34.199,14.647,59.523,19.56,59.523,19.56c32.581-20.734,48.923-47.649,48.923-47.649 v-16.503c-14.148-27.605-39.539-55.478-48.431-64.828C356.761,122.464,352.724,186.663,296.107,207.307z" fill="#C7DAFF"/>
        <path d="M404.554,179.217v-16.503c-17.349-33.851-51.623-68.125-51.623-68.125s9.208,51.292,2.7,132.277 C388.212,206.132,404.554,179.217,404.554,179.217z" fill="#819FEA"/>
        <path d="M324.305,139.148c0,0,5.738-5.025,15.42-11.111c0,0,3.372,40.663,0.613,67.334l-15.42-8.481L324.305,139.148 z" fill="#375DAB"/>
        <path d="M301.893,154.366l1.796,21.047l-14.135-8.102C289.554,167.312,298.137,158.823,301.893,154.366z" fill="#375DAB"/>
        <path d="M369.607,134.256c0,0,2.026,28.685,0.336,59.959l9.798-11.249l0.305-37.136L369.607,134.256z" fill="#375DAB"/>
        <path d="M393.798,163.53c-1.344-1.563-2.977-3.399-4.443-4.866v16.238l4.443-5.031V163.53z" fill="#375DAB"/>
        <circle cx="240.721" cy="175.413" fill="#C7DAFF" r="17.503"/>
        <path d="M397.117,261.816c0,0,16.872,31.598-5.126,82.89c-2.442,5.692-1.662,12.251,2.263,17.045 c5.494,6.711,13.889,16.292,22.575,23.686c7.895,6.718,18.821,8.526,28.486,4.775c4.157-1.612,8.777-3.817,13.345-6.812 c4.308-2.822,5.818-8.428,3.557-13.055c-5.569-11.395-18.641-33.754-43.948-56.361c-1.425-1.273-2.311-3.046-2.397-4.954 C415.447,299.656,412.861,270.404,397.117,261.816z" fill="#819FEA"/>
        <path d="M186.541,434.025c17.616-21.152,50.458-58.766,85.93-90.223c-7.133-3.998-14.021-8.217-20.498-12.438 c-10.954,24.433-34.844,57.382-86.932,86.346C173.188,423.01,180.549,428.825,186.541,434.025z" fill="#CDE0FF"/>
        <path d="M291.942,353.762c-3.386-1.554-6.746-3.199-10.073-4.909c-17.385,20.25-57.174,66.259-84.475,95.216 c3.169,3.135,4.99,5.133,4.99,5.133c0.469,0.537,0.943,1.037,1.414,1.563C222.429,427.802,260.499,382.288,291.942,353.762z" fill="#CDE0FF"/>
    </symbol>
    <symbol id="rpsvg_potion" enable-background="new 0 0 512 512" viewBox="0 0 512 512" xml:space="preserve" xmlns="http://www.w3.org/2000/svg">
        <path d="M256,22.974h-27.656c-4.731,0-8.367,4.188-7.705,8.872l4.904,34.683H256h30.457l4.904-34.683 c0.662-4.685-2.974-8.872-7.705-8.872H256z" fill="#BA8280"/>
        <polygon fill="#965C5C" points="222.464,44.751 225.543,66.528 256,66.528 286.457,66.528 289.536,44.751"/>
        <linearGradient gradientUnits="userSpaceOnUse" id="SVGID_1___potion" x1="256" x2="256" y1="475.6611" y2="-13.8296">
            <stop offset="0.0103" style="stop-color:#FFCCE0"/>
            <stop offset="1" style="stop-color:#FFE6FA"/>
        </linearGradient>
        <path d="M328.733,181.56l0.087,0.01c-0.048-0.01-0.091-0.026-0.139-0.036 c-1.773-0.89-3.563-1.751-5.371-2.581c-14.48-6.648-25.809-18.919-29.865-34.328c-0.437-1.659-0.792-3.245-1.082-4.725 c-1.135-5.801-1.559-11.743-0.836-17.609c3.08-25.015,21.564-36.845,21.564-36.845H256h-57.092c0,0,18.484,11.83,21.564,36.845 c0.723,5.866,0.299,11.809-0.836,17.609c-0.29,1.479-0.646,3.065-1.082,4.725c-4.058,15.409-15.385,27.68-29.865,34.328 c-1.808,0.83-3.598,1.691-5.371,2.581c-0.048,0.01-0.091,0.026-0.139,0.036l0.087-0.01c-56.602,28.424-94.309,88.938-89.133,157.693 c6.142,81.592,73.709,146.511,155.471,149.65c92.571,3.555,168.735-70.437,168.735-162.217 C418.34,263.187,381.859,208.238,328.733,181.56z" fill="url(#SVGID_1___potion)"/>
        <path d="M312.854,59.05H196.377c-7.289,0-13.197,5.908-13.197,13.198l0,0c0,7.289,5.908,13.197,13.197,13.197 h116.477c7.289,0,13.198-5.908,13.198-13.197l0,0C326.052,64.958,320.143,59.05,312.854,59.05z" fill="#FFCCE0"/>
        <path d="M198.908,85.445c0,0,7.582,4.887,13.846,14.958h86.492c6.264-10.071,13.846-14.958,13.846-14.958H256 H198.908z" fill="#DB8DA5"/>
        <path d="M384.15,333.04c0.521-9.888-0.088-19.542-1.703-28.852c-3.918-22.584-24.301-38.612-47.162-36.966 c-35.465,2.555-72.27,23.617-83.893,30.801c-2.79,1.724-5.632,3.374-8.594,4.781c-39.337,18.691-69.826,14.979-90.558,6.503 c-11.732-4.796-24.558,3.87-24.573,16.546v0.299c0,73.722,62.162,132.925,136.932,128.052 C328.913,450.013,380.758,397.401,384.15,333.04z" fill="#CC5697"/>
        <path d="M186.041,206.189c0,0-35.918,7.771-43.749,52.925c-0.852,4.907,2.501,9.619,7.404,10.492 c7.724,1.376,20.066,1.479,34.174-6.28c6.333-3.482,11.892-8.19,16.729-13.561c5.931-6.581,13.164-16.51,14.123-26.594 c0.947-9.973-7.45-18.322-17.468-18.325C193.898,204.846,190.046,205.181,186.041,206.189z" fill="#FFFFFF"/>
        <circle cx="182.974" cy="369.12" fill="#A03774" r="15.998"/>
        <circle cx="244.055" cy="339.308" fill="#A03774" r="4.908"/>
        <circle cx="282.23" cy="396.389" fill="#A03774" r="27.269"/>
        <circle cx="332.041" cy="319.311" fill="#A03774" r="12.543"/>
    </symbol>
    <symbol id="rpsvg_sorceress_witch" enable-background="new 0 0 512 512" viewBox="0 0 512 512" xml:space="preserve" xmlns="http://www.w3.org/2000/svg">
        <path d="M332.035,185.986l-1.857,83.622c0,0-3.209,69.505-67.393,55.611c0,0-18.094-50.678,3.561-149.647 L332.035,185.986z" fill="#AD3A4C"/>
        <linearGradient gradientUnits="userSpaceOnUse" id="SVGID_1___sorceress_witch" x1="235.8325" x2="235.8325" y1="403.4248" y2="217.3378">
            <stop offset="0.0051" style="stop-color:#FFC3B0"/>
            <stop offset="1" style="stop-color:#E8897B"/>
        </linearGradient>
        <path d="M264.312,275.599c0,0-10.159,44.874,16.511,57.087c3.291,1.508,6.893,2.15,10.508,2.324 c11.192,0.541,46.888,5.813,39.775,51.416c0,0-16.579,30.182-93.637,37.604c0,0-67.163,0.494-97.838-46.509 c0,0,9.896-44.528,39.086-46.509c0,0,15.747-0.254,27.496-5.312c6.463-2.782,10.889-8.88,11.784-15.858l7.229-56.393 L264.312,275.599z" fill="url(#SVGID_1___sorceress_witch)"/>
        <path d="M225.225,253.449l-4.156,32.42l50.077,39.35l0,0c-14.157-17.23-6.834-49.62-6.834-49.62L225.225,253.449z" fill="#E8897B"/>
        <path d="M331.105,386.426c6.946-44.54-26.93-50.604-38.94-51.367c9.979,6.878,28.206,24.971,25.696,64.297 C327.92,392.221,331.105,386.426,331.105,386.426z" fill="#E8897B"/>
        <path d="M237.508,400.503c3.454,2.633,11.106,9.95,11.834,23.526h12.727c0,0-3.779-17.502,5.308-27.395 c0.37-0.402-0.052-1.019-0.555-0.806c-3.38,1.428-9.567,6.645-12.796,12.179c0,0-5.037-6.886-16.118-8.414 C237.392,399.523,237.094,400.188,237.508,400.503z" fill="#E8897B"/>
        <path d="M244.032,348.23c-3.263,0-30.328-2.457-39.429-24.162c-0.755-1.801,0.2-3.878,2.068-4.444l0,0 c1.582-0.479,3.293,0.296,3.926,1.821c7.892,19.029,32.661,20.233,33.676,20.242c16.426-0.002,24.839-11.595,27.738-16.691 c0.769-1.352,2.398-1.938,3.865-1.428l0,0c1.92,0.667,2.779,2.906,1.765,4.668c-3.755,6.518-13.874,19.991-33.255,19.991 C244.375,348.228,244.252,348.23,244.032,348.23z" fill="#333345"/>
        <path d="M186.552,157.085l-5.729,32.789c0,0-40.838-1.018-87.406,12.746c0,0-86.976,27.643-81.134-62.913 L186.552,157.085z" fill="#6D4D7A"/>
        <linearGradient gradientUnits="userSpaceOnUse" id="SVGID_2___sorceress_witch" x1="272.7012" x2="272.7012" y1="277.0254" y2="145.3401">
            <stop offset="0.0051" style="stop-color:#FFC3B0"/>
            <stop offset="1" style="stop-color:#E8897B"/>
        </linearGradient>
        <path d="M317.518,184.886l-2.287,77.795c-0.023,0.753-0.082,1.482-0.188,2.228 c-0.465,3.247-2.137,11.562-7.544,17.551c-4.511,4.995-11.561,6.832-18.16,5.511c-13.328-2.67-46.808-11.121-61.453-30.8v-88.477 L317.518,184.886z" fill="url(#SVGID_2___sorceress_witch)"/>
        <path d="M307.498,282.46c5.407-5.989,7.079-14.304,7.544-17.552c0.106-0.744,0.165-1.474,0.188-2.227l2.287-77.795 l-89.632-16.192v24.666c14.144,3.983,53.734,16.077,72.623,31.486c2.625,2.142,4.049,5.42,4.049,8.807v33.835 c0,0,0.239,10.556-4.74,19.873C302.724,286.405,305.393,284.791,307.498,282.46z" fill="#E8897B"/>
        <path d="M279.479,228.54h12.941c2.038,0,3.397,2.167,2.439,3.967c-1.506,2.832-4.225,6.142-8.708,6.142 c0,0-6.386-0.102-9.192-6.28C276.146,230.581,277.516,228.54,279.479,228.54z" fill="#E8897B"/>
        <path d="M300.855,201.438L300.855,201.438c-2.045,0-3.703-1.658-3.703-3.702v-8.048c0-2.045,1.658-3.702,3.703-3.702 l0,0c2.045,0,3.701,1.657,3.701,3.702v8.048C304.557,199.781,302.9,201.438,300.855,201.438z" fill="#333345"/>
        <path d="M281.569,178.325c0,0-4.685,35.486-44.101,52.333l-4.662,67.153c-1.855,26.728-23.141,48.64-49.911,49.73 c-1.059,0.043-2.139,0.061-3.241,0.051c-8.489-0.076-16.384-4.398-21.478-11.189l-0.025-0.033c-4.5-6.002-6.404-13.531-5.298-20.951 c1.937-12.983,6.377-34.913,16.196-57.871c3.045-7.12,4.327-14.844,4.008-22.582c-0.86-20.913-1.772-61.966,3.486-75.638 L281.569,178.325z" fill="#E25A6C"/>
        <path d="M172.898,183.915c12.532,2.385,41.049,8.27,59.867,15.692c3.897,1.537,5.38,6.221,3.131,9.754 c-2.011,3.159-4.82,7.02-8.407,10.655c-3.488,3.534-5.361,8.347-5.12,13.307c1.224,25.126,1.184,99.261-40.439,114.233 c0.005,0.025-0.001-0.011,0.003,0.015c27.221-0.597,48.996-22.713,50.874-49.76l4.662-67.153 c39.416-16.847,44.101-52.333,44.101-52.333l-105.023-18.998C174.564,164.48,173.46,173.526,172.898,183.915z" fill="#AD3A4C"/>
        <path d="M12.282,139.707c0,0,174.011,27.139,332.856,55.875c0,0,57.38,8.942,92.937,6.667 c2.728-0.174,5.387-0.785,7.947-1.739c13.582-5.06,54.637-24.006,53.971-67.986c0,0-67.086-16.054-174.863-6.753 c0,0,9.47-60.498-87.66-117.526c-4.065-2.387-8.854-3.279-13.466-2.307c-13.272,2.797-44.274,12.884-95.277,49.258 c0,0-6.133-5.111-14.097-9.686c-4.181-2.402-9.348-2.186-13.413,0.409c-7.478,4.772-19.974,14.18-31.09,29.336 c-2.784,3.796,1.052,8.924,5.458,7.267c6.013-2.261,13.036-4.662,18.909-6.013c4.221-0.971,8.629-0.071,12.233,2.332 c5.62,3.749,14.659,10.282,22.126,18.022c3.711,3.846,9.46,4.84,14.185,2.342c10.258-5.423,27.532-13.908,37.113-15.014 l14.771,19.55c0,0-11.489,15.463-19.148,31.329C175.775,135.07,104.278,143.797,12.282,139.707z" fill="#936FA0"/>
        <path d="M153.073,94.126c9.37-4.539,20.197-9.142,27.079-9.936l-8.426-13.643c-1.262-2.043-4.29-1.861-5.27,0.332 C163.963,76.452,159.414,85.587,153.073,94.126z" fill="#6D4D7A"/>
        <path d="M283.057,117.354c0.392,4.614-1.318,9.158-4.717,12.304c-2.109,1.953-4.664,4.243-7.283,6.418 c-2.529,2.1-1.135,6.201,2.152,6.266c20.108,0.397,64.033,1.716,84.746,5.859c0,0,24.668,5.432,32.748,22.515 c2.109,4.457,1.796,9.663-0.937,13.768c-2.988,4.49-8.44,10.469-17.772,14.606c19.664,2.211,46.259,4.429,66.081,3.16 c2.727-0.174,5.386-0.785,7.946-1.739c13.582-5.06,54.637-24.006,53.971-67.986c0,0-67.086-16.054-174.863-6.753 c0,0,9.47-60.498-87.66-117.526C237.469,8.244,277.012,46.041,283.057,117.354z" fill="#6D4D7A"/>
        <path d="M266.346,352.891c0-10.183-8.255-18.438-18.438-18.438c-10.184,0-18.439,8.255-18.439,18.438 c0,8.19,5.345,15.125,12.732,17.528l0.755,7.493c0.218,2.163,2.148,3.74,4.312,3.521l7.535-0.758 c2.163-0.219,3.741-2.148,3.522-4.313l-0.783-7.773C262.817,365.346,266.346,359.537,266.346,352.891z" fill="#FFFFFF"/>
        <circle cx="242.16" cy="354.202" fill="#333345" r="4.847"/>
        <circle cx="256.217" cy="352.418" fill="#333345" r="4.848"/>
        <path d="M131.625,374.967c1.907-3.83,6.914-4.783,10.069-1.895c15.827,14.494,61.072,50.188,114.446,41.061 c0,0,47.018-7.504,75.164-34.186c2.434-2.308,6.328-1.795,8.088,1.059c2.707,4.387,6.959,10.426,12.391,15.395 c2.32,2.121,3.355,5.303,2.572,8.346c-0.734,2.858-1.988,6.484-4.094,9.932c-2.146,3.514-3.244,7.547-2.766,11.636 c1.795,15.358,2.531,52.411-29.979,62.53c0,0-23.425,4.805-41.422-5.698c-2.433-1.419-5.239-2.064-8.045-1.831l0,0 c-4.133,0.346-7.854,2.538-10.215,5.947c-5.715,8.251-20.572,22.713-52.896,18.403c0,0-39.157-3.601-41.918-44.284 c-0.371-5.463-1.828-10.783-4.549-15.533c-4.855-8.475-14.186-20.828-30.239-28.846c-6.438-3.215-9.316-10.818-6.955-17.617 C123.499,392.996,126.82,384.619,131.625,374.967z" fill="#936FA0"/>
        <path d="M244.528,441.429c-1.563-1.614-3.703-2.51-5.949-2.51c-3.847,0-7.154,2.667-8.066,6.403 c-11.14,45.638-39.812,48.133-55.107,45.908c12.4,12.848,29.534,14.435,29.534,14.435c32.325,4.31,47.182-10.152,52.896-18.403 C261.099,461.883,249.909,446.984,244.528,441.429z" fill="#6D4D7A"/>
        <path d="M282.291,486.092c16.745,6.518,35.227,2.752,35.227,2.752c32.51-10.119,31.773-47.172,29.979-62.53 c-0.479-4.089,0.619-8.122,2.766-11.636c2.105-3.447,3.359-7.073,4.094-9.932c0.783-3.043-0.253-6.225-2.572-8.346 c-5.432-4.969-9.684-11.008-12.391-15.395c-1.76-2.854-5.654-3.366-8.088-1.059c-4.241,4.02-8.914,7.597-13.786,10.786l-0.001,0.006 C323.7,458.358,294.818,479.965,282.291,486.092z" fill="#6D4D7A"/>
    </symbol>
    <symbol id="rpsvg_spell_book" enable-background="new 0 0 512 512" viewBox="0 0 512 512" xml:space="preserve" xmlns="http://www.w3.org/2000/svg">
        <path d="M162.027,360.441v73.413c0,4.554,5.805,6.479,8.525,2.825l12.645-16.98c0.451-0.605,1.359-0.599,1.801,0.013 l11.992,16.577c2.689,3.718,8.564,1.815,8.564-2.772v-73.075H162.027z" fill="#7A2B5A"/>
        <path d="M309.645,360.441v113.088c0,3.281,4.313,4.476,5.987,1.653c6.298-10.608,16.825-26.333,27.974-34.318 c0.852-0.609,1.365-1.56,1.365-2.607v-77.815H309.645z" fill="#5B153E"/>
        <path d="M340.555,35.233h46.059c7.661,0,13.872,6.211,13.872,13.872v305.021c0,7.661-6.211,13.872-13.872,13.872 h-46.059V35.233z" fill="#5B153E"/>
        <path d="M268.258,43.615h99.326c8.564,0,15.506,6.943,15.506,15.507v293.369c0,8.564-6.941,15.507-15.506,15.507 h-99.326V43.615z" fill="#B57B76"/>
        <linearGradient gradientUnits="userSpaceOnUse" id="SVGID_1___spell_book" x1="371.3076" x2="-26.5867" y1="97.2808" y2="404.9693">
            <stop offset="0.0103" style="stop-color:#78264D"/>
            <stop offset="1" style="stop-color:#93486F"/>
        </linearGradient>
        <path d="M129.536,35.233h147.942l24.04,35.087c2.444,3.568,8.002,2.232,8.558-2.057l4.282-33.03h30.595 c7.175,0,12.992,5.817,12.992,12.992v306.78c0,7.175-5.817,12.992-12.992,12.992H128.698c-9.49,0-17.183-7.693-17.183-17.184V53.255 C111.515,43.302,119.583,35.233,129.536,35.233z" fill="url(#SVGID_1___spell_book)"/>
        <path d="M367.051,79.716v107.243l24.069-99.8c0.915-3.793-1.96-7.443-5.86-7.443H367.051z" fill="#DDAEA9"/>
        <path d="M275.082,201.306l17.881-33.115c1.902-3.522-0.648-7.8-4.652-7.8h-35.32l-13.609-25.202 c-1.998-3.7-7.306-3.7-9.304,0l-13.608,25.202h-35.32c-4.003,0-6.554,4.277-4.652,7.8l17.881,33.115l-17.881,33.115 c-1.902,3.522,0.649,7.799,4.652,7.799h35.32l13.608,25.203c1.998,3.7,7.307,3.7,9.304,0l13.609-25.203h35.32 c4.004,0,6.555-4.276,4.652-7.799L275.082,201.306z M278.787,171.359l-9.938,18.403l-9.938-18.403H278.787z M262.617,201.306 l-16.171,29.946h-23.435l-16.17-29.946l16.17-29.946h23.435L262.617,201.306z M234.729,149.658l5.795,10.732h-11.59L234.729,149.658 z M190.672,171.359h19.874l-9.937,18.403L190.672,171.359z M190.672,231.252l9.937-18.403l9.937,18.403H190.672z M234.729,252.952 l-5.795-10.732h11.59L234.729,252.952z M268.85,212.848l9.938,18.404h-19.875L268.85,212.848z" fill="#FFFFFF"/>
        <path d="M139.146,323.046l1.483-20.025c0.409-5.521,7.904-6.863,10.204-1.829l7.456,16.317 c1.259,2.756-0.018,6.006-2.816,7.167l-8.939,3.709C142.852,329.912,138.852,327.021,139.146,323.046z" fill="#5B153E"/>
        <path d="M339.178,88.399c-2.006-1.276-4.69-0.465-5.613,1.727c-1.633,3.878-3.373,9.453-1.102,11.725 c0.824,0.825,1.774,1.992,2.75,3.305c2.224,2.993,6.968,1.459,6.968-2.271V92.427c0-1.318-0.673-2.545-1.785-3.253L339.178,88.399z" fill="#5B153E"/>
        <path d="M159.483,191.128c3.947-29.271,25.252-53.812,53.556-62.25c15.352-4.577,30.036-3.984,43.285-0.009 c1.861,0.559,3.824-0.438,4.377-2.301l2.209-7.428c0.538-1.811-0.461-3.758-2.27-4.3c-8.214-2.463-16.907-3.803-25.912-3.803 c-22.875,0-43.782,8.536-59.74,22.574c-1.236,1.088-1.549,2.902-0.801,4.369l3.387,6.646l-5.525-3.885 c-1.486-1.046-3.546-0.853-4.759,0.501c-14.373,16.035-23.141,37.191-23.141,60.37c0,35,19.964,65.407,49.094,80.482 c1.972,1.02,4.397,0.019,5.177-2.061l2.541-6.775c0.671-1.79-0.131-3.756-1.817-4.654 C172.321,254.307,154.987,224.47,159.483,191.128z" fill="#FFFFFF"/>
        <path d="M282.068,127.492l-5.615,7.279c-0.977,1.266-0.646,3.063,0.678,3.957 c20.631,13.947,34.114,37.692,33.535,64.548c-0.773,35.922-32.204,70.089-67.935,73.87c-11.665,1.234-22.825-0.279-33.021-3.864 c-1.682-0.592-3.485,0.444-3.74,2.21l-1.316,9.114c-0.194,1.343,0.592,2.657,1.881,3.081c12.25,4.025,25.635,5.523,39.553,3.805 c42.821-5.285,76.411-41.149,79.047-84.214c2.04-33.317-14.061-63.08-39.33-80.401C284.605,126.056,282.955,126.342,282.068,127.492 z" fill="#FFFFFF"/>
    </symbol>
    <symbol id="rpsvg_spell_scroll" enable-background="new 0 0 512 512" viewBox="0 0 512 512" xml:space="preserve" xmlns="http://www.w3.org/2000/svg">
        <linearGradient gradientUnits="userSpaceOnUse" id="SVGID_1___spell_scroll" x1="65.3345" x2="367.3861" y1="188.0972" y2="393.308">
            <stop offset="0.0103" style="stop-color:#FFDDCD"/>
            <stop offset="1" style="stop-color:#F79A80"/>
        </linearGradient>
        <path d="M56.727,159.284c3.669,8.513,9.077,23.904,9.053,40.645c-0.003,2.011,1.292,3.834,3.258,4.256 c4.574,0.979,12.198,4.247,12.198,15.139c0,0,0,9.762-8.884,13.65c-1.684,0.736-2.75,2.422-2.567,4.25 c1.805,18.046,10.158,106.854,7.208,176.821c0,0,8.652,5.768,16.974,10.964c2.614,1.632,6.063,0.344,6.936-2.611 c1.631-5.515,4.064-14.063,5.793-21.555c0,0,5.652,16.554,6.122,33.596c0.067,2.421,2.012,4.35,4.432,4.465 c11.832,0.563,44.852-0.203,67.712-23.444c0,0,45.973-36.775,90.408-20.745c0,0,57.906-106.02,8.031-276.491 c0,0-16.832-0.229-33.528,3.832c-2.428,0.591-4.262,2.57-4.603,5.045c-0.921,6.686-3.036,20.308-5.986,28.737 c-0.559,1.599-2.856,1.497-3.31-0.134c-1.31-4.705-3.392-12.349-5.303-20.092c-0.825-3.34-4.181-5.364-7.5-4.457 c-8.589,2.348-26.073,8.633-51.411,24.99c0,0-36.283,23.009-75.414,7.301c-2.973-1.193-5.908-2.412-8.949-3.419 c-6.126-2.027-16.693-5.262-26.005-6.807C57.998,152.656,55.364,156.125,56.727,159.284z" fill="url(#SVGID_1___spell_scroll)"/>
        <path d="M275.369,394.714c0,0,57.906-106.02,8.031-276.491c0,0-8.926-0.113-20.213,1.386 c5.65,32.104,25.88,167.167-12.577,271.068C258.711,390.569,267.066,391.718,275.369,394.714z" fill="#F79A80"/>
        <path d="M122.715,215.244L122.715,215.244c-2.714,0.44-4.709,2.784-4.709,5.534v26.482 c0,3.097,2.51,5.606,5.606,5.606h1.991c3.262,0,5.835-2.773,5.59-6.026l-1.991-26.482 C128.956,217.082,125.958,214.719,122.715,215.244z" fill="#E2526F"/>
        <path d="M147.029,221.712v19.769c0,2.857,3.204,4.544,5.559,2.927l9.335-6.409c2.674-1.836,3.752-5.258,2.613-8.294 l0,0c-0.441-1.177-1.188-2.214-2.165-3.005l-9.558-7.745C150.493,217.073,147.029,218.725,147.029,221.712z" fill="#E2526F"/>
        <path d="M170.247,214.061v1.385c0,2.474,1.85,4.556,4.306,4.848l0,0c2.904,0.346,5.458-1.923,5.458-4.848v-1.385 c0-2.261-1.553-4.227-3.752-4.749l0,0C173.191,208.582,170.247,210.907,170.247,214.061z" fill="#E2526F"/>
        <path d="M206.976,200.54L206.976,200.54c-1.661,0.747-2.668,2.461-2.515,4.274l1.601,18.892 c0.508,5.995,7.2,9.377,12.28,6.154c1.259-0.799,2.495-1.635,3.631-2.482c3.637-2.714,4.265-7.916,1.43-11.46l-11.317-14.146 C210.864,200.243,208.761,199.736,206.976,200.54z" fill="#E2526F"/>
        <path d="M225.903,197.861l6.105,8.546c1.474,2.063,4.665,1.583,5.467-0.822l1.566-4.696 c0.353-1.06,0.109-2.227-0.637-3.057l-4.928-5.475c-0.989-1.099-2.615-1.348-3.887-0.594l-2.743,1.626 C225.283,194.315,224.847,196.382,225.903,197.861z" fill="#E2526F"/>
        <path d="M272.655,176.88l-11.89,1.877c-2.386,0.377-3.996,2.621-3.562,4.997c0.825,4.511,2.267,11.906,4.032,18.969 c1.004,4.01,6.533,4.436,8.137,0.626l8.651-20.558c1.192-2.832-0.888-5.964-3.961-5.964h-0.737 C273.102,176.827,272.877,176.845,272.655,176.88z" fill="#E2526F"/>
        <path d="M124.167,327.984l-0.396,3.459c-0.322,2.811,1.212,5.506,3.794,6.663l0,0 c2.458,1.102,5.34,0.571,7.245-1.334l2.961-2.961c1.904-1.904,2.435-4.787,1.333-7.245l-0.224-0.498 c-1.046-2.334-3.366-3.836-5.923-3.836h-2.341C127.317,322.232,124.543,324.707,124.167,327.984z" fill="#E2526F"/>
        <path d="M127.459,360.823l1.369-7.87c0.288-1.652,1.722-2.859,3.4-2.859h17.234c3.761,0,4.809,5.163,1.344,6.629 l-18.603,7.869C129.687,365.656,126.991,363.515,127.459,360.823z" fill="#E2526F"/>
        <path d="M180.376,311.003l3.39,30.448c0.226,2.033,2.152,3.423,4.153,2.993c3.006-0.646,7.14-1.706,9.716-3.076 c1.203-0.64,1.888-1.94,1.787-3.299l-1.197-16.049c-0.073-0.974,0.271-1.933,0.945-2.64l4.081-4.275 c0.613-0.642,0.955-1.495,0.955-2.383v-4.745c0-2.117-1.89-3.735-3.982-3.409l-16.948,2.644 C181.449,307.496,180.171,309.167,180.376,311.003z" fill="#E2526F"/>
        <path d="M216.361,304.4l0.723,4.427c0.446,2.735,3.772,3.854,5.782,1.945l0,0c0.686-0.651,1.074-1.556,1.074-2.502 v-4.555c0-2.148-1.942-3.775-4.057-3.397l-0.723,0.129C217.304,300.779,216.057,302.539,216.361,304.4z" fill="#E2526F"/>
        <path d="M238.313,298.295l-7.583,29.685c-0.608,2.379,1.394,4.614,3.826,4.271l5.842-0.826 c1.38-0.194,2.495-1.188,2.849-2.536c0.919-3.493,3.604-10.075,10.961-11.591c1.372-0.283,2.421-1.406,2.646-2.789l0.827-5.048 c0.204-1.25-0.293-2.513-1.296-3.287l-12.62-9.754C241.802,294.901,238.927,295.891,238.313,298.295z" fill="#E2526F"/>
        <path d="M290.221,284.347l-10.5,5.016c-1.499,0.716-2.275,2.397-1.848,4.002l6.226,23.361 c0.925,3.472,5.88,3.41,6.693-0.089c2.087-8.973,4.392-20.804,4.378-29.232C295.165,284.884,292.495,283.26,290.221,284.347z" fill="#C7304D"/>
        <path d="M280.299,198.448l-2.621,7.16c-0.436,1.189,0.588,2.4,1.833,2.171l5.358-0.992 c1.039-0.192,1.626-1.305,1.197-2.271l-2.736-6.169C282.733,197.003,280.805,197.067,280.299,198.448z" fill="#C7304D"/>
        <path d="M275.369,106.938c0,0,13.207-17.457,43.699-31.779c22.404-10.522,47.383-14.84,72.006-12.31 c11.794,1.212,23.377,3.977,29.225,9.825c0,0-3.987,32.563-17.943,79.082C402.355,151.756,305.883,161.137,275.369,106.938z" fill="#A34F46"/>
        <path d="M338.829,107.26l4.513,41.156c30.76,6.067,59.014,3.339,59.014,3.339 c13.956-46.519,17.943-79.081,17.943-79.081S400.032,110.223,338.829,107.26z" fill="#F79A80"/>
        <path d="M455.64,126.531c0,0-17.12-17.622-53.018-19.271l-8.394,45.116 C394.229,152.376,443.186,151.305,455.64,126.531z" fill="#A34F46"/>
        <path d="M391.76,97.485c-2.861,14.526-9.439,35.787-25.377,54.075c20.498,1.678,35.973,0.194,35.973,0.194 c13.956-46.519,17.943-79.081,17.943-79.081S412.441,87.215,391.76,97.485z" fill="#CE735F"/>
        <linearGradient gradientUnits="userSpaceOnUse" id="SVGID_2___spell_scroll" x1="286.2246" x2="562.9127" y1="204.0674" y2="468.4579">
            <stop offset="0.0103" style="stop-color:#FFDDCD"/>
            <stop offset="1" style="stop-color:#F79A80"/>
        </linearGradient>
        <path d="M275.369,106.938c0,0,61.723,58.783,180.271,19.594c0,0-21.554,216.52-58.784,293.918 c0,0-21.566,23.226-43.328,29.226c-3.007,0.829-6.047-1.267-6.544-4.346l-4.013-24.88c0,0-4.845,13.729-12.336,26.521 c-1.318,2.251-4.04,3.252-6.483,2.337c-10.654-3.988-39.778-15.392-61.392-28.563c-4.424-2.695-6.023-8.305-3.65-12.908 C273.513,379.903,316.763,276.647,275.369,106.938z" fill="url(#SVGID_2___spell_scroll)"/>
        <path d="M382.049,139.908c7.991,7.34,21.196,23.707,19.499,50.862c0,0-1.614,99.778-19.575,198.355 c-2.859,15.694-9.221,30.677-19.434,42.932c-1.609,1.931-3.349,3.854-5.227,5.734c-1.593,1.596-4.26,1.264-5.334-0.719 l-9.008-16.624l4.013,24.879c0.497,3.079,3.537,5.175,6.544,4.347c21.762-6,43.328-29.226,43.328-29.226 c37.23-77.397,58.784-293.918,58.784-293.918C427.98,135.675,403.458,139.44,382.049,139.908z" fill="#F79A80"/>
        <path d="M274.063,176.827h-0.737c-0.225,0-0.449,0.018-0.671,0.053l-2.014,0.317 c0.556,6.218,1.058,12.776,1.488,19.6l5.895-14.006C279.217,179.959,277.137,176.827,274.063,176.827z" fill="#9C304D"/>
    </symbol>
    <symbol id="rpsvg_viking" enable-background="new 0 0 512 512" viewBox="0 0 512 512" xml:space="preserve" xmlns="http://www.w3.org/2000/svg">
        <circle cx="289.06" cy="17.909" fill="#C7DAFF" r="6.454"/>
        <path d="M353.036,125.158c0,0,12.077,3.016,16.499,17.623c3.09,10.208,1.03,21.57-6.75,28.866 c-3.421,3.209-8.139,5.863-14.556,6.435L353.036,125.158z" fill="#A06260"/>
        <path d="M202.549,270.612c0,0-57.87,11.671-105.44,70.462c-4.968,6.141-3.905,15.23,2.475,19.887 c12.189,8.895,31.725,28.734,50.624,71.688c0,0,24.088,61.664,112.146,68.486c15.557,1.205,31.28-1.234,45.438-7.797 c27.531-12.764,69.115-43.502,74.579-113.742c1.179-15.167-1.207-30.482-7.755-44.215 C359.703,304.105,318.168,261.219,202.549,270.612z" fill="#F9C8B2"/>
        <path d="M382.37,379.596c1.18-15.167-1.207-30.482-7.755-44.215c-13.178-27.639-47.188-64.318-134.701-65.999 l-7.499,18.492l-9.475,42.653c0,0,15.383,54.836,83.118,59.657c0,0,40.465,4.29,17.373,94.568 C348.896,468.461,377.873,437.421,382.37,379.596z" fill="#DDA288"/>
        <circle cx="287.107" cy="441.148" fill="#D39671" r="10.795"/>
        <path d="M207.998,116.686c0,0-49.216,32.746-68.917,77.209c-6.782,15.306-7.277,32.933,0.07,47.976 c7.366,15.082,23.216,31.363,57.15,36.162L207.998,116.686z" fill="#773E41"/>
        <path d="M343.145,216.487h5.893c10.605,0,19.202-8.597,19.202-19.203l0,0c0-10.605-8.597-19.203-19.202-19.203 h-5.893V216.487z" fill="#C66760"/>
        <path d="M211.513,103.824V63.746c-48.958-0.813-64.346-33.911-69.047-51.186c-0.729-2.679-4.517-2.644-5.233,0.039 C130.114,39.257,120.375,108.14,211.513,103.824z" fill="#EEF6FF"/>
        <path d="M348.229,99.19V63.613c43.46-0.722,57.12-30.103,61.294-45.438c0.646-2.378,4.009-2.347,4.645,0.034 C420.487,41.875,429.133,103.021,348.229,99.19z" fill="#819FEA"/>
        <path d="M211.513,103.824V63.746c-7.791-0.129-14.644-1.148-20.827-2.718c-3.739,11.056-13.493,25.004-38.733,28.476 C163.866,99.182,182.601,105.193,211.513,103.824z" fill="#C7DAFF"/>
        <linearGradient gradientUnits="userSpaceOnUse" id="SVGID_1___viking" x1="273.376" x2="273.376" y1="145.1763" y2="326.9932">
            <stop offset="0.0051" style="stop-color:#FFC3B0"/>
            <stop offset="1" style="stop-color:#E8897B"/>
        </linearGradient>
        <polygon fill="url(#SVGID_1___viking)" points="355.691,125.158 353.036,265.008 191.06,265.008 193.781,126.47"/>
        <path d="M118.665,320.984c11.916,1.119,28.161,4.472,42.945,13.711c19.776,12.357,41.814,20.579,65.045,22.613 c41.914,3.67,103.271,2.407,147.884-26.887c5.031-3.305,6.285-10.151,2.851-15.096c-12.515-18.015-51.096-55.957-154.238-56.393 c0,0-63.169,3.239-109.33,47.92C108.747,311.765,111.634,320.324,118.665,320.984z" fill="#BC7D5C"/>
        <path d="M192.018,216.487h-5.891c-10.605,0-19.203-8.597-19.203-19.203l0,0c0-10.605,8.597-19.203,19.203-19.203 h5.891V216.487z" fill="#E8897B"/>
        <linearGradient gradientUnits="userSpaceOnUse" id="SVGID_2___viking" x1="271.9404" x2="271.9404" y1="342.1611" y2="138.9499">
            <stop offset="0" style="stop-color:#A06260"/>
            <stop offset="1" style="stop-color:#82494C"/>
        </linearGradient>
        <path d="M192.558,125.158l-1.707,159.302c-0.629,58.676,46.763,106.578,105.442,106.578l0,0 c31.338,0,56.742-25.404,56.742-56.742V233.884l-92.583,0.475L234.583,248.7c0,0-34.902-13.392-34.902-67.518v-56.025H192.558z" fill="url(#SVGID_2___viking)"/>
        <path d="M322.111,157.217v107.791h30.925l2.655-139.85l-78.545,0.637c7.067,0.828,18.379,2.643,27.92,6.411 C315.343,136.263,322.111,146.168,322.111,157.217z" fill="#E8897B"/>
        <path d="M321.92,278.033v49.309c0,13.898-2.73,27.743-8.674,40.307c-3.8,8.031-9.242,16.411-16.884,23.387 c31.306-0.037,56.674-25.424,56.674-56.739V233.884l-14.55,0.075l-47.299,6.119C291.188,240.078,320.355,240.894,321.92,278.033z" fill="#773E41"/>
        <path d="M192.018,189.624c0,0,6.586-24.162,29.779-31.28c13.558-4.161,24.319-15.881,22.938-31.864h-52.176 L192.018,189.624z" fill="#773E41"/>
        <circle cx="278.113" cy="163.127" fill="#333345" r="7.924"/>
        <circle cx="337.904" cy="163.127" fill="#333345" r="7.924"/>
        <path d="M373.109,238.767c-6.16-1.846-13.489-5.871-18.357-14.575c-5.877-10.51-16.086-17.499-27.408-19.837 c-6.424-1.327-36.146-1.327-42.569,0c-11.322,2.339-21.532,9.328-27.409,19.837c-4.868,8.704-12.197,12.729-18.356,14.575 c-5.479,1.642-6.766,9.325-2.211,12.942c9.265,7.358,20.87,7.831,29.244,6.839c5.698-0.675,10.997-3.694,14.431-8.556 c9.82-13.9,41.353-13.9,51.172,0c3.435,4.862,8.732,7.881,14.432,8.556c8.374,0.991,19.979,0.519,29.244-6.839 C379.875,248.091,378.588,240.408,373.109,238.767z" fill="#BC8285"/>
        <path d="M270.293,100.681c0-0.943,0-73.867,0-73.867s-68.524-1.551-75.753,71.048L270.293,100.681z" fill="#EEF6FF"/>
        <path d="M310.29,26.811c0,0,59.959,12.261,54.93,69.783h-54.93V26.811z" fill="#C7DAFF"/>
        <path d="M207.998,98.362l62.295,2.318c0-0.62,0-32.352,0-54.019C265.529,65.72,250.871,90.555,207.998,98.362z" fill="#C7DAFF"/>
        <path d="M310.29,97.862h-42.46v-72.82c0-3.939,3.193-7.132,7.133-7.132h28.195c3.939,0,7.132,3.193,7.132,7.132 V97.862z" fill="#EEF6FF"/>
        <path d="M365.076,130.202H196.411c-5.209,0-9.433-4.223-9.433-9.433v-17.518c0-5.209,4.224-9.433,9.433-9.433 h168.665c5.209,0,9.433,4.223,9.433,9.433v17.518C374.509,125.979,370.285,130.202,365.076,130.202z" fill="#C7DAFF"/>
        <path d="M374.509,103.252c0-5.209-4.224-9.433-9.433-9.433h-39.191c-1.293,9.151-9.465,33.752-44.131,36.383h83.322 c5.209,0,9.433-4.223,9.433-9.433V103.252z" fill="#819FEA"/>
        <path d="M373.109,238.767c-6.16-1.846-13.489-5.871-18.357-14.575c-3.545-6.339-8.683-11.37-14.674-14.899 c0.341,19.169-12.017,27.699-23.955,31.457c6.513,1.54,12.239,4.596,15.521,9.242c3.436,4.862,8.732,7.881,14.432,8.556 c8.374,0.991,19.979,0.519,29.244-6.839C379.875,248.091,378.588,240.408,373.109,238.767z" fill="#9E6369"/>
        <circle cx="308.578" cy="193.454" fill="#E8897B" r="3.83"/>
        <circle cx="289.06" cy="73.671" fill="#C7DAFF" r="6.454"/>
        <circle cx="289.06" cy="44.125" fill="#C7DAFF" r="6.454"/>
    </symbol>
    <symbol id="rpsvg_werewolf" enable-background="new 0 0 512 512" viewBox="0 0 512 512" xml:space="preserve" xmlns="http://www.w3.org/2000/svg">
        <path d="M301.994,88.389c0,0,1.01-26.796,14.348-49.727c1.759-3.024,5.866-3.607,8.442-1.241 c8.93,8.202,26.93,29.024,30.325,65.89L301.994,88.389z" fill="#466B8E"/>
        <linearGradient gradientUnits="userSpaceOnUse" id="SVGID_1___werewolf" x1="217.8174" x2="309.5928" y1="404.1689" y2="63.4692">
            <stop offset="0.0051" style="stop-color:#88ABD6"/>
            <stop offset="1" style="stop-color:#4F76A0"/>
        </linearGradient>
        <path d="M207.537,163.374c0,0-11.311,41.472-52.591,69.803c-2.079,1.426-1.774,4.578,0.587,5.461 c1.69,0.633,3.732,1.23,6.019,1.573c0,0-31.947,41.373-87.35,60.05c-4.623,1.559-5.55,7.606-1.592,10.459 c7.029,5.067,18.576,11.7,35.376,16.383c0,0-5.197,7.948-17.254,13.146c-6.008,2.588-7.945,10.172-4.244,15.566 c16.62,24.222,59.353,79.755,124.261,117.48c2.832,1.646,6.335-0.682,5.959-3.936c-0.654-5.648-1.508-13.406-2.073-19.979 c-0.231-2.697,2.881-4.343,4.965-2.614c13.652,11.318,52.853,38.346,118.815,41.339c3.671,0.167,7.146-1.688,9.138-4.776 c9.474-14.703,36.419-59.463,41.399-100.133l7.058-2.27c3.025-0.973,4.476-4.412,3.019-7.236 c-3.431-6.65-10.481-17.748-21.678-23.848c0,0,15.732-0.342,26.653-10.042c3.398-3.02,2.409-8.568-1.891-10.048 c-18.979-6.526-65.006-27.783-66.661-80.813L207.537,163.374z" fill="url(#SVGID_1___werewolf)"/>
        <path d="M402.113,329.752c-18.979-6.526-65.006-27.783-66.661-80.813l-106.703-71.375 c6.612,8.568,16.754,22.511,26.944,39.607l-31.046-11.144c-0.94,23.396,15.975,39.251,15.975,39.251l30.91,1.659 c12.615,27.061,21.861,57.791,18.894,86.568c0,0-3.647,38.521-47.085,25.34l-2.89,2.748c0,0,26.625,22.984,57.795,26.28 c0,0,46.32,84.929-19.905,89.724c16.717,5.336,36.678,9.447,60.074,10.509c3.671,0.167,7.146-1.688,9.138-4.776 c9.475-14.703,36.419-59.463,41.398-100.133l7.059-2.27c3.025-0.973,4.477-4.412,3.019-7.236 c-3.431-6.651-10.481-17.748-21.678-23.848c0,0,15.732-0.342,26.653-10.042C407.403,336.78,406.413,331.23,402.113,329.752z" fill="#6086AD"/>
        <path d="M283.147,24.818c11.898,8.975,35.736,30.011,40.56,57.504c0,0,33.769,9.648,54.788,37.086 c1.49,1.945,2.473,4.239,2.984,6.635c3.164,14.816,17.423,72.283,51.584,90.947c4.084,2.231,7.03,6.054,7.772,10.649 c1.97,12.188,2.988,35.702-14.519,49.334c-2.619,2.039-6.329,1.923-8.995-0.056l-15.796-11.719c0,0-20.104,22.049-47.988,2.594 L311.563,242.5c-5.778-3.481-12.264-5.576-18.988-6.112c-9.266-0.738-23.49-1.663-37.454-1.748 c-7.002-0.042-13.742-2.63-18.985-7.273c-12.354-10.941-32.227-34.643-33.675-74.731c-0.125-3.449,3.884-5.456,6.597-3.324 c2.485,1.953,5.279,4.064,7.646,5.643c0,0-1.183-31.951,22.448-52.334c1.815-1.566,4.587-1.283,5.998,0.657l7.871,10.822 c0,0,1.702-31.771,15.719-60.289c2.621-5.334,4.493-10.992,5.639-16.824c0.551-2.802,1.079-5.901,1.452-8.994 C276.258,24.446,280.296,22.667,283.147,24.818z" fill="#88ABD6"/>
        <path d="M280.077,23.931c-2.071,0.154-3.962,1.698-4.247,4.061c-0.373,3.093-0.901,6.192-1.452,8.994 c-1.146,5.832-3.018,11.49-5.639,16.824c-14.017,28.519-15.719,60.289-15.719,60.289c2.362,9.859,12.318,14.667,12.318,14.667 c5.163-34.044,32.907-42.463,32.907-42.463C297.979,45.749,286.289,29.642,280.077,23.931z" fill="#6086AD"/>
        <path d="M441.864,240.211c-0.009-4.77-0.472-9.13-1.028-12.571c-0.742-4.595-3.688-8.417-7.772-10.649 c-1.974-1.078-3.872-2.299-5.714-3.62c-1.362,2.572-2.206,5.459-2.206,8.572C425.144,231.538,432.499,239.331,441.864,240.211z" fill="#333345"/>
        <path d="M344.256,231.119c0,0,1.311-13.6,18.093-24.589c2.234-1.463,5.14,0.478,4.593,3.092 c-1.642,7.858-3.769,21.095-1.973,30.589L344.256,231.119z" fill="#FFFFFF"/>
        <path d="M362.503,240.211c0,0,1.181,7.444,0.612,14.902c-0.148,1.945,2.032,3.23,3.671,2.172 c3.104-2.006,7.087-5.124,9.032-8.887L362.503,240.211z" fill="#FFFFFF"/>
        <path d="M335.567,229.403L335.567,229.403c-0.443,1.557,0.433,3.167,1.986,3.619 c8.986,2.614,37.723,12.467,58.701,36.53c3.393-2.3,5.271-4.353,5.271-4.353s-25.777-30.205-62.543-37.893 C337.482,226.992,335.987,227.928,335.567,229.403z" fill="#6086AD"/>
        <path d="M172.166,313.916c6.186,11.532,17.062,26.895,33.698,34.422c0,0-0.52-12.482,2.531-23.811 c0.474-1.76,2.867-2.025,3.751-0.432c6.042,10.893,25.301,39.401,66.978,52.51c6.755,2.125,14.057-0.899,17.252-7.219 c5.654-11.182,13.364-30.392,13.393-52.053c0.003-1.873,2.345-2.725,3.571-1.31c2.34,2.7,5.131,6.543,6.281,10.56 c0,0,4.894-12.689,6.572-29.139c0.105-1.03,1.608-1.061,1.719-0.029c1.082,10.16,1.593,28.496-5.321,46.004 c-0.573,1.453-2.591,1.546-3.252,0.131l-3.173-6.787c0,0,0.906,20.186-14.695,51.137c-3.242,6.431-10.721,9.539-17.529,7.193 c-16.776-5.777-47.769-19.784-67.605-48.893c0,0-1.486,8.463-1.538,14.782c-0.009,1.132-1.101,1.948-2.191,1.644 c-7.119-1.988-29.521-11.01-42.459-47.777C169.699,313.568,171.525,312.721,172.166,313.916z" fill="#6086AD"/>
        <path d="M341.622,168.662l-0.313-0.253c-6.34-5.096-10.473-12.525-11.32-20.615 c-0.393-3.745-0.464-7.983,0.182-12.339c0.213-1.437,2.132-1.817,2.867-0.564l3.866,6.582l16.806,24.295l9.206,3.066 c1.646,1.241,1.119,3.834-0.879,4.336l0,0C354.901,174.962,347.339,173.292,341.622,168.662z" fill="#6086AD"/>
        <path d="M340.699,135.747c5.371,4.262,13.777,11.396,18.123,17.487c0.88,1.232,1.347,2.678,1.319,4.192 c-0.035,1.949-0.079,5.017-0.071,8.093c0.008,3.076-3.291,5.003-5.986,3.522c-7.203-3.957-18.26-12.9-18.631-30.622 C335.396,135.662,338.538,134.033,340.699,135.747z" fill="#FFFFFF"/>
    </symbol>
</svg>