<svg xmlns="http://www.w3.org/2000/svg" width="512" height="512" id="archer"><path fill="#E8897B" d="M430.847 368.385s.435 45.119-9.979 84.6l-40.478-90.674c.001 0 35.272-3.471 50.457 6.074z"></path><linearGradient id="a" x1="311.571" x2="345.333" y1="409.217" y2="516.492" gradientUnits="userSpaceOnUse"><stop offset=".005" stop-color="#FFC3B0"></stop><stop offset="1" stop-color="#E8897B"></stop></linearGradient><path fill="url(#a)" d="M226.504 469.471s9.466 26.766 41.139 33.865c11.453 2.566 23.517 1.599 34.027-3.629 6.703-3.334 13.931-8.713 19.065-17.361 1.368-2.304 4.662-2.29 6.128-.047 3.338 5.109 9.595 12.443 20.099 17.391 15.135 7.129 32.739 5.976 47.389-2.105 11.136-6.144 23.337-17.162 28.02-36.715 2.317-9.675 2.08-19.761.024-29.493-3.588-16.981-25.569-50.735-42.004-69.065 0-.001-84.471 19.522-153.887 107.159z"></path><path fill="#B56D95" d="M422.395 431.375c-.145-.683-.313-1.435-.473-2.17-16.443-.561-57.639-6.938-63.23-55.978-34.713 13.467-88.924 41.622-132.188 96.243 0 0 9.466 26.766 41.139 33.865 11.453 2.566 23.517 1.599 34.027-3.629 6.703-3.334 13.931-8.713 19.065-17.361 1.368-2.304 4.662-2.29 6.128-.047 3.338 5.109 9.595 12.443 20.099 17.391 15.136 7.129 32.739 5.975 47.388-2.105 11.137-6.144 23.338-17.162 28.021-36.715 2.317-9.675 2.079-19.761.024-29.494z"></path><path fill="#934A74" d="M422.395 431.375c-.145-.683-.313-1.435-.473-2.17-8.816-.301-24.747-2.283-38.492-11.609 2.748 18.002 5.816 69.195-46.67 75.672a49.32 49.32 0 0 0 10.202 6.422c15.136 7.129 32.739 5.975 47.388-2.105 11.137-6.144 23.338-17.162 28.021-36.715 2.317-9.676 2.079-19.762.024-29.495zM321.385 435.826c-2.025-3.885-5.594-9.275-11.389-13.852-1.248-.986-.371-2.969 1.188-2.645l11.107 2.311s3.608-2.768 9.539-6.1c1.394-.783 2.883.889 1.931 2.174-3.286 4.438-7.48 11.031-9.265 17.75-.396 1.497-2.394 1.735-3.111.362zM311.592 439.38c-2.164-2.676-6.408-1.409-6.969 1.986-6.715 40.685-40.844 53.976-50.426 57.228a60.437 60.437 0 0 0 13.446 4.742c11.453 2.566 23.517 1.599 34.027-3.629 5.94-2.955 12.285-7.527 17.229-14.546 2.039-5.19 2.988-10.839 2.813-16.542-.441-14.335-5.712-23.789-10.12-29.239z"></path><path fill="#FFE19F" d="M260.129 37.179S244.693 2.689 202.994 7.82c-16.76 2.063-32.361 9.947-44.393 21.795-13.569 13.362-28.887 36.135-27.494 70.168.135 3.3.541 6.565 1.012 9.834 1.518 10.535 5.246 34.716 9.257 48.014a54.76 54.76 0 0 1 2.241 12.338l.046.719c1.446 22.653-11.192 44.322-32.197 52.931-7.658 3.139-16.976 5.148-28.274 5.126-8.545-.017-13.556 9.452-8.902 16.62 6.114 9.416 18.015 20.2 41.178 25.992 15.427 3.856 31.786 3.43 46.5-2.6 8.384-3.436 16.973-8.734 22.314-16.854 0 0 1.802 13.695 16.064 15.034 6.605.62 13.068-1.904 18.195-6.116 7.274-5.976 17.776-17.241 19.155-33.253-.001.001-42.732-95.312 22.433-190.389z"></path><path fill="#D8A648" d="M186.888 258.784c2.216 3.632 6.236 7.476 13.457 8.154 6.605.62 13.068-1.905 18.195-6.116 7.274-5.976 17.776-17.241 19.155-33.253 0 0-3.754-8.426-7.341-22.69-5.055 22.49-16.951 45.46-43.466 53.905z"></path><path fill="#CFC46E" d="M232.854 474.801C256 450.123 342.968 363.136 413.615 369.116c5.275.446 10.422 2.226 14.594 5.485.281.221.562.447.838.682 2.541 2.154 6.401 1.156 7.664-1.926 4.877-11.903 8.588-35.635-36.914-39.275 0 0 5.23-25.271-43.648-20.788 0 0-5.265-38.122-68.853-39.442 0 0-78.534-1.727-67.393 41.888 0 0-79.829 16.626-84.49 74.063-.165 2.036-.017 4.071.322 6.085 2.361 14.01 15.515 65.923 82.235 83.283 5.377 1.397 11.084-.317 14.884-4.37z"></path><path fill="#A19145" d="M399.797 334.082s5.23-25.272-43.648-20.788l-.018-.105a1.023 1.023 0 0 0-.012-.065c-.011-.066-.023-.138-.043-.243l-.04-.192c-.02-.096-.037-.183-.063-.299-.021-.096-.05-.213-.075-.32a17.233 17.233 0 0 0-.085-.355c-.032-.125-.073-.269-.11-.407-.038-.141-.073-.274-.118-.429-.045-.159-.102-.336-.154-.509-.048-.156-.092-.306-.146-.472-.062-.189-.134-.395-.204-.598-.061-.176-.118-.346-.186-.531-.077-.213-.166-.437-.253-.66-.074-.193-.146-.383-.229-.584-.097-.239-.205-.488-.313-.737-.089-.205-.176-.407-.271-.62-.119-.264-.25-.535-.381-.809-.104-.214-.205-.426-.314-.645-.143-.284-.297-.574-.452-.866-.12-.225-.239-.448-.366-.677a47.695 47.695 0 0 0-.948-1.612 38.82 38.82 0 0 0-.612-.958 40.416 40.416 0 0 0-1.17-1.699 51.839 51.839 0 0 0-.547-.742 52.663 52.663 0 0 0-1.397-1.755 43.889 43.889 0 0 0-1.558-1.769c-.32-.346-.649-.692-.99-1.039a47.518 47.518 0 0 0-.746-.739 46.428 46.428 0 0 0-1.102-1.044c-.268-.246-.545-.49-.824-.734a49.244 49.244 0 0 0-1.213-1.035c-.295-.242-.602-.484-.908-.726a57.164 57.164 0 0 0-1.33-1.019 51.97 51.97 0 0 0-.986-.704 52.983 52.983 0 0 0-1.467-1.007c-.345-.227-.705-.448-1.061-.672-.526-.33-1.055-.66-1.607-.982-.371-.217-.76-.428-1.143-.641-.575-.319-1.15-.639-1.753-.949-.399-.206-.82-.404-1.232-.606a65.765 65.765 0 0 0-1.898-.905c-.429-.193-.882-.379-1.323-.566-.676-.289-1.35-.578-2.057-.855-.451-.177-.93-.343-1.395-.515-.738-.272-1.473-.546-2.244-.806-.466-.156-.96-.299-1.438-.449-.812-.256-1.616-.514-2.464-.753-.471-.134-.972-.251-1.454-.378-.896-.237-1.785-.477-2.721-.694-.456-.106-.94-.196-1.405-.297-1.004-.218-2.002-.438-3.051-.633-.365-.067-.757-.12-1.127-.185a123.89 123.89 0 0 0-13.621-1.586c-.082-.004-.156-.014-.238-.019a151.89 151.89 0 0 0-5.987-.244s-8.351-.175-19.203 1.087a90.03 90.03 0 0 0-.501.762c-15.586 24.063.995 56.514 29.645 57.589 12.379.464 24.829-3.069 35.091-7.284 2.898 2.801 6.636 4.602 10.712 4.935 10.641.868 28.379 4.169 26.09 16.575-.665 3.604-2.964 6.693-5.956 8.811-8.8 6.225-33.491 24.895-52.429 50.387 32.427-22.494 69.75-40.601 103.344-37.555 4.949.447 9.754 2.146 13.723 5.138.416.313.83.642 1.236.987 2.541 2.155 6.401 1.156 7.664-1.926 4.873-11.907 8.584-35.637-36.918-39.278zM274.037 435.35c-51.703 21.818-104.111 2.836-126.889-7.918 10.885 19.372 31.584 41.529 70.822 51.738 5.376 1.398 11.083-.316 14.884-4.369 7.675-8.184 22.395-23.227 41.183-39.451z"></path><linearGradient id="b" x1="295.459" x2="295.459" y1="288.18" y2="188.929" gradientUnits="userSpaceOnUse"><stop offset=".005" stop-color="#FFC3B0"></stop><stop offset="1" stop-color="#E8897B"></stop></linearGradient><path fill="url(#b)" d="M295.459 323.076c-18.24 0-33.027-14.786-33.027-33.027v-56.647h66.054v56.647c-.001 18.241-14.787 33.027-33.027 33.027z"></path><path fill="#E8897B" d="M263.977 233.401c9.798 14.028 36.355 50.427 56.595 78.065 4.925-5.768 7.914-13.238 7.914-21.418v-56.647h-64.509z"></path><linearGradient id="c" x1="328.485" x2="328.485" y1="275.14" y2="32.442" gradientUnits="userSpaceOnUse"><stop offset=".005" stop-color="#FFC3B0"></stop><stop offset="1" stop-color="#E8897B"></stop></linearGradient><path fill="url(#c)" d="M266.359 233.614s27.863 42.187 75.746 60.264c4.684 1.769 9.968.008 12.709-4.181 9.154-13.99 28.83-48.287 35.592-93.483.588-3.928-.108-7.949-1.844-11.522L339.774 84.25l-24.894 1.464-45.396 48.323-3.125 99.577z"></path><path fill="#333345" d="M325.559 200.446a5.387 5.387 0 0 1-5.387-5.387v-11.307a5.387 5.387 0 0 1 5.387-5.387 5.387 5.387 0 0 1 5.388 5.387v11.307a5.388 5.388 0 0 1-5.388 5.387z"></path><path fill="#E8897B" d="M346.562 215.564h14.462c2.279 0 3.799 2.422 2.729 4.434-1.684 3.165-4.723 6.864-9.732 6.864 0 0-7.139-.114-10.274-7.02-.909-1.996.62-4.278 2.815-4.278z"></path><path fill="#E8897B" d="m339.774 84.25-8.674.51-2.615 14.65c-1.935 1.177-14.225 57.654 31.756 91.865 4.124 3.068 6.733 7.76 6.965 12.895.774 17.198-1.032 56.753-29.493 87.959 1.484.621 2.989 1.221 4.516 1.795 4.643 1.748 9.861-.063 12.577-4.214 9.151-13.981 28.837-48.287 35.601-93.496.588-3.929-.108-7.949-1.844-11.522L339.774 84.25z"></path><path fill="#FFE19F" d="m300.231 119.64 23.783-20.303s-2.29 64.879 63.353 96.937c0 0-1.527 20.608-4.58 31.294 0 0 33.584.763 32.059-47.323 0 0 47.323-83.961-50.377-138.154 0 0-58.773-65.643-122.125 6.106l-9.708 14.432c-14.468 21.506-22.602 46.644-23.392 72.552-1.245 40.859 6.083 96.697 52.792 109.945 5.836 1.655 11.603-2.926 11.603-8.991v-41.387s33.608-18.821 21.979-60.246c-1.52-5.409.341-11.214 4.613-14.862z"></path><path fill="#EDC063" d="M373.508 47.449c14.416 18.108 43.833 64.29 19.336 115.967-3.353 7.072-10.084 11.922-17.884 12.576-4.974.417-11.315.176-18.812-1.575 8.167 8.052 18.378 15.586 31.219 21.857 0 0-1.527 20.609-4.58 31.295 0 0 33.584.763 32.059-47.324 0 0 44.299-78.607-41.338-132.796z"></path><path fill="#A19145" d="M230.731 43.783c4.58-4.193 11.647-3.833 15.842.745 8.573 9.354 25.905 23.283 55.81 28.036 2.071.329 3.514 2.238 3.18 4.309a3.751 3.751 0 0 1-3.564 3.161c-10.313.401-44.398.115-70.264-18.904-5.715-4.203-6.235-12.557-1.004-17.347zM398.238 50.335c-3.297-2.511-7.744-1.752-9.975 1.658-4.557 6.969-14.236 17.678-32.75 23.078-1.282.374-2.018 1.773-1.611 3.154.348 1.182 1.412 1.968 2.557 1.885 6.576-.478 28.16-3.152 42.772-17.936 3.229-3.265 2.773-8.969-.993-11.839z"></path><linearGradient id="d" x1="242.065" x2="177.589" y1="213.881" y2="122.601" gradientUnits="userSpaceOnUse"><stop offset=".005" stop-color="#FFC3B0"></stop><stop offset="1" stop-color="#E8897B"></stop></linearGradient><path fill="url(#d)" d="M194.677 129.693c-2.676-1.789-6.156.766-5.267 3.86 3.727 12.977 10.695 37.713 14.675 54.86 0 0 5.832 29.162 32.166 35.836 6.233 1.58 12.54-2.487 13.592-8.831.815-4.912 1.135-11.359-.284-18.796-1.13-5.918-3.593-11.472-6.792-16.578-7.045-11.25-23.114-33.654-48.09-50.351z"></path><path fill="#E8897B" d="M226.401 180.767c4.184 4.906 8.963 12.616 9.764 22.815.161 2.053-2.148 3.433-3.871 2.306-3.619-2.368-8.318-6.9-7.693-14.248 0 0 .113-4.269-1.259-9.277-.494-1.805 1.845-3.021 3.059-1.596z"></path><path fill="#A19145" d="M237.317 336.871c5.812 8.581 17.817 20.152 41.415 23.967 3.829.619 3.899 6.042.077 6.697-7.3 1.25-16.774 1.368-27.632-2.02-8.104-2.527-14.928-8.273-17.925-16.216a34.397 34.397 0 0 1-2.162-10.428c-.175-3.433 4.3-4.848 6.227-2z"></path></svg>